M48
METRIC,LZ,000.000
;FILE_FORMAT=3:3
;TYPE=PLATED
;Layer: PTH_Through
;EasyEDA v6.5.14, 2022-08-24 20:25:52
;37d94133e9fb4008a465715c89777dd1,10
;Gerber Generator version 0.2
;Holesize 1 = 0.306 mm
T01C0.306
;Holesize 2 = 1.000 mm
T02C1.000
%
G05
G90
T01
X097629Y079874
T02
X078359Y102489
X075819Y102489
X073279Y102489
X070739Y102489
X068199Y102489
X065659Y102489
X101219Y102489
X098679Y102489
X096139Y102489
X093599Y102489
X091059Y102489
X088519Y102489
X085979Y102489
X083439Y102489
X083566Y054229
X081026Y054229
X078486Y054229
X075946Y054229
X073406Y054229
X070866Y054229
X068326Y054229
X065786Y054229
X110490Y054229
X107950Y054229
X105410Y054229
X102870Y054229
X100330Y054229
X097790Y054229
X095250Y054229
X092710Y054229
X090170Y054229
X087630Y054229
X080010Y089408
X077470Y089408
X074930Y089408
X072390Y089408
X080645Y074676
X078105Y074676
X075565Y074676
X073025Y074676
M30
