G04 Layer: BottomSilkscreenLayer*
G04 EasyEDA v6.5.14, 2022-08-24 20:25:52*
G04 37d94133e9fb4008a465715c89777dd1,10*
G04 Gerber Generator version 0.2*
G04 Scale: 100 percent, Rotated: No, Reflected: No *
G04 Dimensions in millimeters *
G04 leading zeros omitted , absolute positions ,4 integer and 5 decimal *
%FSLAX45Y45*%
%MOMM*%

%ADD10C,0.1524*%
%ADD11C,0.2540*%

%LPD*%
D10*
X7200900Y10694415D02*
G01*
X7200900Y10585450D01*
X7200900Y10694415D02*
G01*
X7154163Y10694415D01*
X7138670Y10689336D01*
X7133336Y10684002D01*
X7128256Y10673587D01*
X7128256Y10658094D01*
X7133336Y10647679D01*
X7138670Y10642600D01*
X7154163Y10637265D01*
X7200900Y10637265D01*
X7093965Y10694415D02*
G01*
X7093965Y10585450D01*
X7059675Y10694415D02*
G01*
X7059675Y10585450D01*
X7059675Y10694415D02*
G01*
X6986777Y10585450D01*
X6986777Y10694415D02*
G01*
X6986777Y10585450D01*
X6952488Y10694415D02*
G01*
X6952488Y10585450D01*
X6879843Y10694415D02*
G01*
X6879843Y10585450D01*
X6952488Y10642600D02*
G01*
X6879843Y10642600D01*
X6845554Y10694415D02*
G01*
X6845554Y10585450D01*
X6845554Y10694415D02*
G01*
X6777990Y10694415D01*
X6845554Y10642600D02*
G01*
X6803897Y10642600D01*
X6845554Y10585450D02*
G01*
X6777990Y10585450D01*
X6702043Y10694415D02*
G01*
X6743700Y10585450D01*
X6702043Y10694415D02*
G01*
X6660641Y10585450D01*
X6728206Y10621771D02*
G01*
X6676136Y10621771D01*
X6626352Y10694415D02*
G01*
X6626352Y10585450D01*
X6626352Y10694415D02*
G01*
X6590029Y10694415D01*
X6574281Y10689336D01*
X6563868Y10678921D01*
X6558788Y10668508D01*
X6553454Y10652760D01*
X6553454Y10626852D01*
X6558788Y10611358D01*
X6563868Y10600944D01*
X6574281Y10590529D01*
X6590029Y10585450D01*
X6626352Y10585450D01*
X6519163Y10694415D02*
G01*
X6519163Y10585450D01*
X6519163Y10694415D02*
G01*
X6451600Y10694415D01*
X6519163Y10642600D02*
G01*
X6477761Y10642600D01*
X6519163Y10585450D02*
G01*
X6451600Y10585450D01*
X6417309Y10694415D02*
G01*
X6417309Y10585450D01*
X6417309Y10694415D02*
G01*
X6370574Y10694415D01*
X6355079Y10689336D01*
X6350000Y10684002D01*
X6344665Y10673587D01*
X6344665Y10663174D01*
X6350000Y10652760D01*
X6355079Y10647679D01*
X6370574Y10642600D01*
X6417309Y10642600D01*
X6380988Y10642600D02*
G01*
X6344665Y10585450D01*
X6310375Y10673587D02*
G01*
X6299961Y10678921D01*
X6284468Y10694415D01*
X6284468Y10585450D01*
X6250177Y10694415D02*
G01*
X6177279Y10585450D01*
X6177279Y10694415D02*
G01*
X6250177Y10585450D01*
X6080759Y10678921D02*
G01*
X6085840Y10689336D01*
X6101588Y10694415D01*
X6112002Y10694415D01*
X6127495Y10689336D01*
X6137909Y10673587D01*
X6142990Y10647679D01*
X6142990Y10621771D01*
X6137909Y10600944D01*
X6127495Y10590529D01*
X6112002Y10585450D01*
X6106668Y10585450D01*
X6091174Y10590529D01*
X6080759Y10600944D01*
X6075679Y10616437D01*
X6075679Y10621771D01*
X6080759Y10637265D01*
X6091174Y10647679D01*
X6106668Y10652760D01*
X6112002Y10652760D01*
X6127495Y10647679D01*
X6137909Y10637265D01*
X6142990Y10621771D01*
X7200900Y10516615D02*
G01*
X7200900Y10438637D01*
X7195820Y10423144D01*
X7185406Y10412729D01*
X7169658Y10407650D01*
X7159243Y10407650D01*
X7143750Y10412729D01*
X7133336Y10423144D01*
X7128256Y10438637D01*
X7128256Y10516615D01*
X7093965Y10495787D02*
G01*
X7083552Y10501121D01*
X7067804Y10516615D01*
X7067804Y10407650D01*
X9232900Y10694415D02*
G01*
X9232900Y10585450D01*
X9232900Y10694415D02*
G01*
X9186163Y10694415D01*
X9170670Y10689336D01*
X9165336Y10684002D01*
X9160256Y10673587D01*
X9160256Y10658094D01*
X9165336Y10647679D01*
X9170670Y10642600D01*
X9186163Y10637265D01*
X9232900Y10637265D01*
X9125965Y10694415D02*
G01*
X9125965Y10585450D01*
X9091675Y10694415D02*
G01*
X9091675Y10585450D01*
X9091675Y10694415D02*
G01*
X9018777Y10585450D01*
X9018777Y10694415D02*
G01*
X9018777Y10585450D01*
X8984488Y10694415D02*
G01*
X8984488Y10585450D01*
X8911843Y10694415D02*
G01*
X8911843Y10585450D01*
X8984488Y10642600D02*
G01*
X8911843Y10642600D01*
X8877554Y10694415D02*
G01*
X8877554Y10585450D01*
X8877554Y10694415D02*
G01*
X8809990Y10694415D01*
X8877554Y10642600D02*
G01*
X8835897Y10642600D01*
X8877554Y10585450D02*
G01*
X8809990Y10585450D01*
X8734043Y10694415D02*
G01*
X8775700Y10585450D01*
X8734043Y10694415D02*
G01*
X8692641Y10585450D01*
X8760206Y10621771D02*
G01*
X8708136Y10621771D01*
X8658352Y10694415D02*
G01*
X8658352Y10585450D01*
X8658352Y10694415D02*
G01*
X8622029Y10694415D01*
X8606281Y10689336D01*
X8595868Y10678921D01*
X8590788Y10668508D01*
X8585454Y10652760D01*
X8585454Y10626852D01*
X8590788Y10611358D01*
X8595868Y10600944D01*
X8606281Y10590529D01*
X8622029Y10585450D01*
X8658352Y10585450D01*
X8551163Y10694415D02*
G01*
X8551163Y10585450D01*
X8551163Y10694415D02*
G01*
X8483600Y10694415D01*
X8551163Y10642600D02*
G01*
X8509761Y10642600D01*
X8551163Y10585450D02*
G01*
X8483600Y10585450D01*
X8449309Y10694415D02*
G01*
X8449309Y10585450D01*
X8449309Y10694415D02*
G01*
X8402574Y10694415D01*
X8387079Y10689336D01*
X8382000Y10684002D01*
X8376665Y10673587D01*
X8376665Y10663174D01*
X8382000Y10652760D01*
X8387079Y10647679D01*
X8402574Y10642600D01*
X8449309Y10642600D01*
X8412988Y10642600D02*
G01*
X8376665Y10585450D01*
X8342375Y10673587D02*
G01*
X8331961Y10678921D01*
X8316468Y10694415D01*
X8316468Y10585450D01*
X8282177Y10694415D02*
G01*
X8209279Y10585450D01*
X8209279Y10694415D02*
G01*
X8282177Y10585450D01*
X8149081Y10694415D02*
G01*
X8164829Y10689336D01*
X8169909Y10678921D01*
X8169909Y10668508D01*
X8164829Y10658094D01*
X8154415Y10652760D01*
X8133588Y10647679D01*
X8117840Y10642600D01*
X8107679Y10632186D01*
X8102345Y10621771D01*
X8102345Y10606024D01*
X8107679Y10595610D01*
X8112759Y10590529D01*
X8128254Y10585450D01*
X8149081Y10585450D01*
X8164829Y10590529D01*
X8169909Y10595610D01*
X8174990Y10606024D01*
X8174990Y10621771D01*
X8169909Y10632186D01*
X8159495Y10642600D01*
X8144002Y10647679D01*
X8123174Y10652760D01*
X8112759Y10658094D01*
X8107679Y10668508D01*
X8107679Y10678921D01*
X8112759Y10689336D01*
X8128254Y10694415D01*
X8149081Y10694415D01*
X9232900Y10516615D02*
G01*
X9232900Y10438637D01*
X9227820Y10423144D01*
X9217406Y10412729D01*
X9201658Y10407650D01*
X9191243Y10407650D01*
X9175750Y10412729D01*
X9165336Y10423144D01*
X9160256Y10438637D01*
X9160256Y10516615D01*
X9120631Y10490708D02*
G01*
X9120631Y10495787D01*
X9115552Y10506202D01*
X9110218Y10511536D01*
X9099804Y10516615D01*
X9079229Y10516615D01*
X9068815Y10511536D01*
X9063481Y10506202D01*
X9058402Y10495787D01*
X9058402Y10485374D01*
X9063481Y10474960D01*
X9073895Y10459465D01*
X9125965Y10407650D01*
X9053068Y10407650D01*
X7467600Y5868415D02*
G01*
X7467600Y5759450D01*
X7467600Y5868415D02*
G01*
X7420863Y5868415D01*
X7405370Y5863336D01*
X7400036Y5858002D01*
X7394956Y5847587D01*
X7394956Y5832094D01*
X7400036Y5821679D01*
X7405370Y5816600D01*
X7420863Y5811265D01*
X7467600Y5811265D01*
X7360665Y5868415D02*
G01*
X7360665Y5759450D01*
X7326375Y5868415D02*
G01*
X7326375Y5759450D01*
X7326375Y5868415D02*
G01*
X7253477Y5759450D01*
X7253477Y5868415D02*
G01*
X7253477Y5759450D01*
X7219188Y5868415D02*
G01*
X7219188Y5759450D01*
X7146543Y5868415D02*
G01*
X7146543Y5759450D01*
X7219188Y5816600D02*
G01*
X7146543Y5816600D01*
X7112254Y5868415D02*
G01*
X7112254Y5759450D01*
X7112254Y5868415D02*
G01*
X7044690Y5868415D01*
X7112254Y5816600D02*
G01*
X7070597Y5816600D01*
X7112254Y5759450D02*
G01*
X7044690Y5759450D01*
X6968743Y5868415D02*
G01*
X7010400Y5759450D01*
X6968743Y5868415D02*
G01*
X6927341Y5759450D01*
X6994906Y5795771D02*
G01*
X6942836Y5795771D01*
X6893052Y5868415D02*
G01*
X6893052Y5759450D01*
X6893052Y5868415D02*
G01*
X6856729Y5868415D01*
X6840981Y5863336D01*
X6830568Y5852921D01*
X6825488Y5842507D01*
X6820154Y5826760D01*
X6820154Y5800852D01*
X6825488Y5785357D01*
X6830568Y5774944D01*
X6840981Y5764529D01*
X6856729Y5759450D01*
X6893052Y5759450D01*
X6785863Y5868415D02*
G01*
X6785863Y5759450D01*
X6785863Y5868415D02*
G01*
X6718300Y5868415D01*
X6785863Y5816600D02*
G01*
X6744461Y5816600D01*
X6785863Y5759450D02*
G01*
X6718300Y5759450D01*
X6684009Y5868415D02*
G01*
X6684009Y5759450D01*
X6684009Y5868415D02*
G01*
X6637274Y5868415D01*
X6621779Y5863336D01*
X6616700Y5858002D01*
X6611365Y5847587D01*
X6611365Y5837173D01*
X6616700Y5826760D01*
X6621779Y5821679D01*
X6637274Y5816600D01*
X6684009Y5816600D01*
X6647688Y5816600D02*
G01*
X6611365Y5759450D01*
X6577075Y5847587D02*
G01*
X6566661Y5852921D01*
X6551168Y5868415D01*
X6551168Y5759450D01*
X6516877Y5868415D02*
G01*
X6443979Y5759450D01*
X6443979Y5868415D02*
G01*
X6516877Y5759450D01*
X6383781Y5868415D02*
G01*
X6399529Y5863336D01*
X6404609Y5852921D01*
X6404609Y5842507D01*
X6399529Y5832094D01*
X6389115Y5826760D01*
X6368288Y5821679D01*
X6352540Y5816600D01*
X6342379Y5806186D01*
X6337045Y5795771D01*
X6337045Y5780023D01*
X6342379Y5769610D01*
X6347459Y5764529D01*
X6362954Y5759450D01*
X6383781Y5759450D01*
X6399529Y5764529D01*
X6404609Y5769610D01*
X6409690Y5780023D01*
X6409690Y5795771D01*
X6404609Y5806186D01*
X6394195Y5816600D01*
X6378702Y5821679D01*
X6357874Y5826760D01*
X6347459Y5832094D01*
X6342379Y5842507D01*
X6342379Y5852921D01*
X6347459Y5863336D01*
X6362954Y5868415D01*
X6383781Y5868415D01*
X7467600Y5690615D02*
G01*
X7467600Y5612637D01*
X7462520Y5597144D01*
X7452106Y5586729D01*
X7436358Y5581650D01*
X7425943Y5581650D01*
X7410450Y5586729D01*
X7400036Y5597144D01*
X7394956Y5612637D01*
X7394956Y5690615D01*
X7350252Y5690615D02*
G01*
X7293102Y5690615D01*
X7324090Y5648960D01*
X7308595Y5648960D01*
X7298181Y5643879D01*
X7293102Y5638800D01*
X7287768Y5623052D01*
X7287768Y5612637D01*
X7293102Y5597144D01*
X7303515Y5586729D01*
X7319009Y5581650D01*
X7334504Y5581650D01*
X7350252Y5586729D01*
X7355331Y5591810D01*
X7360665Y5602223D01*
X9931400Y5868415D02*
G01*
X9931400Y5759450D01*
X9931400Y5868415D02*
G01*
X9884663Y5868415D01*
X9869170Y5863336D01*
X9863836Y5858002D01*
X9858756Y5847587D01*
X9858756Y5832094D01*
X9863836Y5821679D01*
X9869170Y5816600D01*
X9884663Y5811265D01*
X9931400Y5811265D01*
X9824465Y5868415D02*
G01*
X9824465Y5759450D01*
X9790175Y5868415D02*
G01*
X9790175Y5759450D01*
X9790175Y5868415D02*
G01*
X9717277Y5759450D01*
X9717277Y5868415D02*
G01*
X9717277Y5759450D01*
X9682988Y5868415D02*
G01*
X9682988Y5759450D01*
X9610343Y5868415D02*
G01*
X9610343Y5759450D01*
X9682988Y5816600D02*
G01*
X9610343Y5816600D01*
X9576054Y5868415D02*
G01*
X9576054Y5759450D01*
X9576054Y5868415D02*
G01*
X9508490Y5868415D01*
X9576054Y5816600D02*
G01*
X9534397Y5816600D01*
X9576054Y5759450D02*
G01*
X9508490Y5759450D01*
X9432543Y5868415D02*
G01*
X9474200Y5759450D01*
X9432543Y5868415D02*
G01*
X9391141Y5759450D01*
X9458706Y5795771D02*
G01*
X9406636Y5795771D01*
X9356852Y5868415D02*
G01*
X9356852Y5759450D01*
X9356852Y5868415D02*
G01*
X9320529Y5868415D01*
X9304781Y5863336D01*
X9294368Y5852921D01*
X9289288Y5842507D01*
X9283954Y5826760D01*
X9283954Y5800852D01*
X9289288Y5785357D01*
X9294368Y5774944D01*
X9304781Y5764529D01*
X9320529Y5759450D01*
X9356852Y5759450D01*
X9249663Y5868415D02*
G01*
X9249663Y5759450D01*
X9249663Y5868415D02*
G01*
X9182100Y5868415D01*
X9249663Y5816600D02*
G01*
X9208261Y5816600D01*
X9249663Y5759450D02*
G01*
X9182100Y5759450D01*
X9147809Y5868415D02*
G01*
X9147809Y5759450D01*
X9147809Y5868415D02*
G01*
X9101074Y5868415D01*
X9085579Y5863336D01*
X9080500Y5858002D01*
X9075165Y5847587D01*
X9075165Y5837173D01*
X9080500Y5826760D01*
X9085579Y5821679D01*
X9101074Y5816600D01*
X9147809Y5816600D01*
X9111488Y5816600D02*
G01*
X9075165Y5759450D01*
X9040875Y5847587D02*
G01*
X9030461Y5852921D01*
X9014968Y5868415D01*
X9014968Y5759450D01*
X8980677Y5868415D02*
G01*
X8907779Y5759450D01*
X8907779Y5868415D02*
G01*
X8980677Y5759450D01*
X8873490Y5847587D02*
G01*
X8863329Y5852921D01*
X8847581Y5868415D01*
X8847581Y5759450D01*
X8782050Y5868415D02*
G01*
X8797797Y5863336D01*
X8808211Y5847587D01*
X8813291Y5821679D01*
X8813291Y5806186D01*
X8808211Y5780023D01*
X8797797Y5764529D01*
X8782050Y5759450D01*
X8771890Y5759450D01*
X8756141Y5764529D01*
X8745727Y5780023D01*
X8740647Y5806186D01*
X8740647Y5821679D01*
X8745727Y5847587D01*
X8756141Y5863336D01*
X8771890Y5868415D01*
X8782050Y5868415D01*
X9931400Y5690615D02*
G01*
X9931400Y5612637D01*
X9926320Y5597144D01*
X9915906Y5586729D01*
X9900158Y5581650D01*
X9889743Y5581650D01*
X9874250Y5586729D01*
X9863836Y5597144D01*
X9858756Y5612637D01*
X9858756Y5690615D01*
X9772395Y5690615D02*
G01*
X9824465Y5617971D01*
X9746488Y5617971D01*
X9772395Y5690615D02*
G01*
X9772395Y5581650D01*
X7620000Y9386315D02*
G01*
X7620000Y9277350D01*
X7620000Y9386315D02*
G01*
X7573263Y9386315D01*
X7557770Y9381236D01*
X7552436Y9375902D01*
X7547356Y9365487D01*
X7547356Y9349994D01*
X7552436Y9339579D01*
X7557770Y9334500D01*
X7573263Y9329165D01*
X7620000Y9329165D01*
X7513065Y9386315D02*
G01*
X7513065Y9277350D01*
X7478775Y9386315D02*
G01*
X7478775Y9277350D01*
X7478775Y9386315D02*
G01*
X7405877Y9277350D01*
X7405877Y9386315D02*
G01*
X7405877Y9277350D01*
X7371588Y9386315D02*
G01*
X7371588Y9277350D01*
X7298943Y9386315D02*
G01*
X7298943Y9277350D01*
X7371588Y9334500D02*
G01*
X7298943Y9334500D01*
X7264654Y9386315D02*
G01*
X7264654Y9277350D01*
X7264654Y9386315D02*
G01*
X7197090Y9386315D01*
X7264654Y9334500D02*
G01*
X7222997Y9334500D01*
X7264654Y9277350D02*
G01*
X7197090Y9277350D01*
X7121143Y9386315D02*
G01*
X7162800Y9277350D01*
X7121143Y9386315D02*
G01*
X7079741Y9277350D01*
X7147306Y9313671D02*
G01*
X7095236Y9313671D01*
X7045452Y9386315D02*
G01*
X7045452Y9277350D01*
X7045452Y9386315D02*
G01*
X7009129Y9386315D01*
X6993381Y9381236D01*
X6982968Y9370821D01*
X6977888Y9360408D01*
X6972554Y9344660D01*
X6972554Y9318752D01*
X6977888Y9303258D01*
X6982968Y9292844D01*
X6993381Y9282429D01*
X7009129Y9277350D01*
X7045452Y9277350D01*
X6938263Y9386315D02*
G01*
X6938263Y9277350D01*
X6938263Y9386315D02*
G01*
X6870700Y9386315D01*
X6938263Y9334500D02*
G01*
X6896861Y9334500D01*
X6938263Y9277350D02*
G01*
X6870700Y9277350D01*
X6836409Y9386315D02*
G01*
X6836409Y9277350D01*
X6836409Y9386315D02*
G01*
X6789674Y9386315D01*
X6774179Y9381236D01*
X6769100Y9375902D01*
X6763765Y9365487D01*
X6763765Y9355074D01*
X6769100Y9344660D01*
X6774179Y9339579D01*
X6789674Y9334500D01*
X6836409Y9334500D01*
X6800088Y9334500D02*
G01*
X6763765Y9277350D01*
X6729475Y9365487D02*
G01*
X6719061Y9370821D01*
X6703568Y9386315D01*
X6703568Y9277350D01*
X6669277Y9386315D02*
G01*
X6596379Y9277350D01*
X6596379Y9386315D02*
G01*
X6669277Y9277350D01*
X6510274Y9386315D02*
G01*
X6562090Y9313671D01*
X6484365Y9313671D01*
X6510274Y9386315D02*
G01*
X6510274Y9277350D01*
X7620000Y9208515D02*
G01*
X7620000Y9099550D01*
X7620000Y9208515D02*
G01*
X7583677Y9208515D01*
X7567929Y9203436D01*
X7557770Y9193021D01*
X7552436Y9182608D01*
X7547356Y9166860D01*
X7547356Y9140952D01*
X7552436Y9125458D01*
X7557770Y9115044D01*
X7567929Y9104629D01*
X7583677Y9099550D01*
X7620000Y9099550D01*
X7513065Y9208515D02*
G01*
X7513065Y9099550D01*
X7447534Y9208515D02*
G01*
X7457947Y9203436D01*
X7468361Y9193021D01*
X7473441Y9182608D01*
X7478775Y9166860D01*
X7478775Y9140952D01*
X7473441Y9125458D01*
X7468361Y9115044D01*
X7457947Y9104629D01*
X7447534Y9099550D01*
X7426706Y9099550D01*
X7416291Y9104629D01*
X7405877Y9115044D01*
X7400797Y9125458D01*
X7395463Y9140952D01*
X7395463Y9166860D01*
X7400797Y9182608D01*
X7405877Y9193021D01*
X7416291Y9203436D01*
X7426706Y9208515D01*
X7447534Y9208515D01*
X7361174Y9208515D02*
G01*
X7361174Y9099550D01*
X7361174Y9208515D02*
G01*
X7324852Y9208515D01*
X7309358Y9203436D01*
X7298943Y9193021D01*
X7293609Y9182608D01*
X7288529Y9166860D01*
X7288529Y9140952D01*
X7293609Y9125458D01*
X7298943Y9115044D01*
X7309358Y9104629D01*
X7324852Y9099550D01*
X7361174Y9099550D01*
X7254240Y9208515D02*
G01*
X7254240Y9099550D01*
X7254240Y9208515D02*
G01*
X7186675Y9208515D01*
X7254240Y9156700D02*
G01*
X7212584Y9156700D01*
X7254240Y9099550D02*
G01*
X7186675Y9099550D01*
X7152386Y9062974D02*
G01*
X7058913Y9062974D01*
X7024624Y9208515D02*
G01*
X7024624Y9099550D01*
X7024624Y9208515D02*
G01*
X6951979Y9099550D01*
X6951979Y9208515D02*
G01*
X6951979Y9099550D01*
X6917690Y9208515D02*
G01*
X6917690Y9099550D01*
X6917690Y9208515D02*
G01*
X6870700Y9208515D01*
X6855206Y9203436D01*
X6850125Y9198102D01*
X6844791Y9187687D01*
X6844791Y9177274D01*
X6850125Y9166860D01*
X6855206Y9161779D01*
X6870700Y9156700D01*
X6917690Y9156700D01*
X6881113Y9156700D02*
G01*
X6844791Y9099550D01*
X6810502Y9062974D02*
G01*
X6717029Y9062974D01*
X6682740Y9187687D02*
G01*
X6672325Y9193021D01*
X6656831Y9208515D01*
X6656831Y9099550D01*
X7683500Y7913115D02*
G01*
X7683500Y7804150D01*
X7683500Y7913115D02*
G01*
X7636763Y7913115D01*
X7621270Y7908036D01*
X7615936Y7902702D01*
X7610856Y7892287D01*
X7610856Y7876794D01*
X7615936Y7866379D01*
X7621270Y7861300D01*
X7636763Y7855965D01*
X7683500Y7855965D01*
X7576565Y7913115D02*
G01*
X7576565Y7804150D01*
X7542275Y7913115D02*
G01*
X7542275Y7804150D01*
X7542275Y7913115D02*
G01*
X7469377Y7804150D01*
X7469377Y7913115D02*
G01*
X7469377Y7804150D01*
X7435088Y7913115D02*
G01*
X7435088Y7804150D01*
X7362443Y7913115D02*
G01*
X7362443Y7804150D01*
X7435088Y7861300D02*
G01*
X7362443Y7861300D01*
X7328154Y7913115D02*
G01*
X7328154Y7804150D01*
X7328154Y7913115D02*
G01*
X7260590Y7913115D01*
X7328154Y7861300D02*
G01*
X7286497Y7861300D01*
X7328154Y7804150D02*
G01*
X7260590Y7804150D01*
X7184643Y7913115D02*
G01*
X7226300Y7804150D01*
X7184643Y7913115D02*
G01*
X7143241Y7804150D01*
X7210806Y7840471D02*
G01*
X7158736Y7840471D01*
X7108952Y7913115D02*
G01*
X7108952Y7804150D01*
X7108952Y7913115D02*
G01*
X7072629Y7913115D01*
X7056881Y7908036D01*
X7046468Y7897621D01*
X7041388Y7887208D01*
X7036054Y7871460D01*
X7036054Y7845552D01*
X7041388Y7830058D01*
X7046468Y7819644D01*
X7056881Y7809229D01*
X7072629Y7804150D01*
X7108952Y7804150D01*
X7001763Y7913115D02*
G01*
X7001763Y7804150D01*
X7001763Y7913115D02*
G01*
X6934200Y7913115D01*
X7001763Y7861300D02*
G01*
X6960361Y7861300D01*
X7001763Y7804150D02*
G01*
X6934200Y7804150D01*
X6899909Y7913115D02*
G01*
X6899909Y7804150D01*
X6899909Y7913115D02*
G01*
X6853174Y7913115D01*
X6837679Y7908036D01*
X6832600Y7902702D01*
X6827265Y7892287D01*
X6827265Y7881873D01*
X6832600Y7871460D01*
X6837679Y7866379D01*
X6853174Y7861300D01*
X6899909Y7861300D01*
X6863588Y7861300D02*
G01*
X6827265Y7804150D01*
X6792975Y7892287D02*
G01*
X6782561Y7897621D01*
X6767068Y7913115D01*
X6767068Y7804150D01*
X6732777Y7913115D02*
G01*
X6659879Y7804150D01*
X6659879Y7913115D02*
G01*
X6732777Y7804150D01*
X6573774Y7913115D02*
G01*
X6625590Y7840471D01*
X6547865Y7840471D01*
X6573774Y7913115D02*
G01*
X6573774Y7804150D01*
X7683500Y7735315D02*
G01*
X7683500Y7626350D01*
X7683500Y7735315D02*
G01*
X7647177Y7735315D01*
X7631429Y7730236D01*
X7621270Y7719821D01*
X7615936Y7709408D01*
X7610856Y7693660D01*
X7610856Y7667752D01*
X7615936Y7652258D01*
X7621270Y7641844D01*
X7631429Y7631429D01*
X7647177Y7626350D01*
X7683500Y7626350D01*
X7576565Y7735315D02*
G01*
X7576565Y7626350D01*
X7511034Y7735315D02*
G01*
X7521447Y7730236D01*
X7531861Y7719821D01*
X7536941Y7709408D01*
X7542275Y7693660D01*
X7542275Y7667752D01*
X7536941Y7652258D01*
X7531861Y7641844D01*
X7521447Y7631429D01*
X7511034Y7626350D01*
X7490206Y7626350D01*
X7479791Y7631429D01*
X7469377Y7641844D01*
X7464297Y7652258D01*
X7458963Y7667752D01*
X7458963Y7693660D01*
X7464297Y7709408D01*
X7469377Y7719821D01*
X7479791Y7730236D01*
X7490206Y7735315D01*
X7511034Y7735315D01*
X7424674Y7735315D02*
G01*
X7424674Y7626350D01*
X7424674Y7735315D02*
G01*
X7388352Y7735315D01*
X7372858Y7730236D01*
X7362443Y7719821D01*
X7357109Y7709408D01*
X7352029Y7693660D01*
X7352029Y7667752D01*
X7357109Y7652258D01*
X7362443Y7641844D01*
X7372858Y7631429D01*
X7388352Y7626350D01*
X7424674Y7626350D01*
X7317740Y7735315D02*
G01*
X7317740Y7626350D01*
X7317740Y7735315D02*
G01*
X7250175Y7735315D01*
X7317740Y7683500D02*
G01*
X7276084Y7683500D01*
X7317740Y7626350D02*
G01*
X7250175Y7626350D01*
X7215886Y7589773D02*
G01*
X7122413Y7589773D01*
X7088124Y7735315D02*
G01*
X7088124Y7626350D01*
X7088124Y7735315D02*
G01*
X7015479Y7626350D01*
X7015479Y7735315D02*
G01*
X7015479Y7626350D01*
X6981190Y7735315D02*
G01*
X6981190Y7626350D01*
X6981190Y7735315D02*
G01*
X6934200Y7735315D01*
X6918706Y7730236D01*
X6913625Y7724902D01*
X6908291Y7714487D01*
X6908291Y7704073D01*
X6913625Y7693660D01*
X6918706Y7688579D01*
X6934200Y7683500D01*
X6981190Y7683500D01*
X6944613Y7683500D02*
G01*
X6908291Y7626350D01*
X6874002Y7589773D02*
G01*
X6780529Y7589773D01*
X6741159Y7709408D02*
G01*
X6741159Y7714487D01*
X6735825Y7724902D01*
X6730745Y7730236D01*
X6720331Y7735315D01*
X6699504Y7735315D01*
X6689090Y7730236D01*
X6684009Y7724902D01*
X6678675Y7714487D01*
X6678675Y7704073D01*
X6684009Y7693660D01*
X6694170Y7678165D01*
X6746240Y7626350D01*
X6673595Y7626350D01*
D11*
X7200900Y10185400D02*
G01*
X7264400Y10121900D01*
X7391400Y10121900D01*
X7454900Y10185400D01*
X7454900Y10312400D02*
G01*
X7518400Y10375900D01*
X7645400Y10375900D01*
X7708900Y10312400D01*
X7454900Y10185400D02*
G01*
X7518400Y10121900D01*
X7645400Y10121900D01*
X7708900Y10185400D01*
X6438900Y10312400D02*
G01*
X6438900Y10185400D01*
X7708900Y10312400D02*
G01*
X7772400Y10375900D01*
X7899400Y10375900D01*
X7962900Y10312400D01*
X7708900Y10185400D02*
G01*
X7772400Y10121900D01*
X7899400Y10121900D01*
X7962900Y10185400D01*
X7962900Y10312400D02*
G01*
X7962900Y10185400D01*
X7200900Y10312400D02*
G01*
X7264400Y10375900D01*
X7391400Y10375900D01*
X7454900Y10312400D01*
X6946900Y10312400D02*
G01*
X7010400Y10375900D01*
X7137400Y10375900D01*
X7200900Y10312400D01*
X6946900Y10185400D02*
G01*
X7010400Y10121900D01*
X7137400Y10121900D01*
X7200900Y10185400D01*
X6692900Y10312400D02*
G01*
X6756400Y10375900D01*
X6883400Y10375900D01*
X6946900Y10312400D01*
X6692900Y10185400D02*
G01*
X6756400Y10121900D01*
X6883400Y10121900D01*
X6946900Y10185400D01*
X6438900Y10312400D02*
G01*
X6502400Y10375900D01*
X6629400Y10375900D01*
X6692900Y10312400D01*
X6438900Y10185400D02*
G01*
X6502400Y10121900D01*
X6629400Y10121900D01*
X6692900Y10185400D01*
X9486900Y10185400D02*
G01*
X9550400Y10121900D01*
X9677400Y10121900D01*
X9740900Y10185400D01*
X9740900Y10312400D02*
G01*
X9804400Y10375900D01*
X9931400Y10375900D01*
X9994900Y10312400D01*
X9740900Y10185400D02*
G01*
X9804400Y10121900D01*
X9931400Y10121900D01*
X9994900Y10185400D01*
X8216900Y10312400D02*
G01*
X8216900Y10185400D01*
X9994900Y10312400D02*
G01*
X10058400Y10375900D01*
X10185400Y10375900D01*
X10248900Y10312400D01*
X9994900Y10185400D02*
G01*
X10058400Y10121900D01*
X10185400Y10121900D01*
X10248900Y10185400D01*
X10248900Y10312400D02*
G01*
X10248900Y10185400D01*
X9486900Y10312400D02*
G01*
X9550400Y10375900D01*
X9677400Y10375900D01*
X9740900Y10312400D01*
X9232900Y10312400D02*
G01*
X9296400Y10375900D01*
X9423400Y10375900D01*
X9486900Y10312400D01*
X9232900Y10185400D02*
G01*
X9296400Y10121900D01*
X9423400Y10121900D01*
X9486900Y10185400D01*
X8978900Y10312400D02*
G01*
X9042400Y10375900D01*
X9169400Y10375900D01*
X9232900Y10312400D01*
X8978900Y10185400D02*
G01*
X9042400Y10121900D01*
X9169400Y10121900D01*
X9232900Y10185400D01*
X8724900Y10312400D02*
G01*
X8788400Y10375900D01*
X8915400Y10375900D01*
X8978900Y10312400D01*
X8724900Y10185400D02*
G01*
X8788400Y10121900D01*
X8915400Y10121900D01*
X8978900Y10185400D01*
X8470900Y10312400D02*
G01*
X8534400Y10375900D01*
X8661400Y10375900D01*
X8724900Y10312400D01*
X8216900Y10312400D02*
G01*
X8280400Y10375900D01*
X8407400Y10375900D01*
X8470900Y10312400D01*
X8470900Y10185400D02*
G01*
X8534400Y10121900D01*
X8661400Y10121900D01*
X8724900Y10185400D01*
X8216900Y10185400D02*
G01*
X8280400Y10121900D01*
X8407400Y10121900D01*
X8470900Y10185400D01*
X7721600Y5359400D02*
G01*
X7785100Y5295900D01*
X7912100Y5295900D01*
X7975600Y5359400D01*
X7975600Y5486400D02*
G01*
X8039100Y5549900D01*
X8166100Y5549900D01*
X8229600Y5486400D01*
X7975600Y5359400D02*
G01*
X8039100Y5295900D01*
X8166100Y5295900D01*
X8229600Y5359400D01*
X6451600Y5486400D02*
G01*
X6451600Y5359400D01*
X8229600Y5486400D02*
G01*
X8293100Y5549900D01*
X8420100Y5549900D01*
X8483600Y5486400D01*
X8229600Y5359400D02*
G01*
X8293100Y5295900D01*
X8420100Y5295900D01*
X8483600Y5359400D01*
X8483600Y5486400D02*
G01*
X8483600Y5359400D01*
X7721600Y5486400D02*
G01*
X7785100Y5549900D01*
X7912100Y5549900D01*
X7975600Y5486400D01*
X7467600Y5486400D02*
G01*
X7531100Y5549900D01*
X7658100Y5549900D01*
X7721600Y5486400D01*
X7467600Y5359400D02*
G01*
X7531100Y5295900D01*
X7658100Y5295900D01*
X7721600Y5359400D01*
X7213600Y5486400D02*
G01*
X7277100Y5549900D01*
X7404100Y5549900D01*
X7467600Y5486400D01*
X7213600Y5359400D02*
G01*
X7277100Y5295900D01*
X7404100Y5295900D01*
X7467600Y5359400D01*
X6959600Y5486400D02*
G01*
X7023100Y5549900D01*
X7150100Y5549900D01*
X7213600Y5486400D01*
X6959600Y5359400D02*
G01*
X7023100Y5295900D01*
X7150100Y5295900D01*
X7213600Y5359400D01*
X6705600Y5486400D02*
G01*
X6769100Y5549900D01*
X6896100Y5549900D01*
X6959600Y5486400D01*
X6451600Y5486400D02*
G01*
X6515100Y5549900D01*
X6642100Y5549900D01*
X6705600Y5486400D01*
X6705600Y5359400D02*
G01*
X6769100Y5295900D01*
X6896100Y5295900D01*
X6959600Y5359400D01*
X6451600Y5359400D02*
G01*
X6515100Y5295900D01*
X6642100Y5295900D01*
X6705600Y5359400D01*
X8890002Y5359400D02*
G01*
X8953502Y5295900D01*
X9080502Y5295900D01*
X9144002Y5359400D01*
X9144000Y5359400D02*
G01*
X9207500Y5295900D01*
X9334500Y5295900D01*
X9398000Y5359400D01*
X8636002Y5486400D02*
G01*
X8699502Y5549900D01*
X8826502Y5549900D01*
X8890002Y5486400D01*
X8890002Y5486400D02*
G01*
X8953502Y5549900D01*
X9080502Y5549900D01*
X9144002Y5486400D01*
X9144000Y5486400D02*
G01*
X9207500Y5549900D01*
X9334500Y5549900D01*
X9398000Y5486400D01*
X8636002Y5486400D02*
G01*
X8636002Y5359400D01*
X10414000Y5359400D02*
G01*
X10477500Y5295900D01*
X10604500Y5295900D01*
X10668000Y5359400D01*
X10668000Y5486400D02*
G01*
X10731500Y5549900D01*
X10858500Y5549900D01*
X10922000Y5486400D01*
X10668000Y5359400D02*
G01*
X10731500Y5295900D01*
X10858500Y5295900D01*
X10922000Y5359400D01*
X10922000Y5486400D02*
G01*
X10985500Y5549900D01*
X11112500Y5549900D01*
X11176000Y5486400D01*
X10922000Y5359400D02*
G01*
X10985500Y5295900D01*
X11112500Y5295900D01*
X11176000Y5359400D01*
X11176000Y5486400D02*
G01*
X11176000Y5359400D01*
X10414000Y5486400D02*
G01*
X10477500Y5549900D01*
X10604500Y5549900D01*
X10668000Y5486400D01*
X10160000Y5486400D02*
G01*
X10223500Y5549900D01*
X10350500Y5549900D01*
X10414000Y5486400D01*
X10160000Y5359400D02*
G01*
X10223500Y5295900D01*
X10350500Y5295900D01*
X10414000Y5359400D01*
X9906000Y5486400D02*
G01*
X9969500Y5549900D01*
X10096500Y5549900D01*
X10160000Y5486400D01*
X9906000Y5359400D02*
G01*
X9969500Y5295900D01*
X10096500Y5295900D01*
X10160000Y5359400D01*
X9652000Y5486400D02*
G01*
X9715500Y5549900D01*
X9842500Y5549900D01*
X9906000Y5486400D01*
X9652000Y5359400D02*
G01*
X9715500Y5295900D01*
X9842500Y5295900D01*
X9906000Y5359400D01*
X9398000Y5486400D02*
G01*
X9461500Y5549900D01*
X9588500Y5549900D01*
X9652000Y5486400D01*
X9398000Y5359400D02*
G01*
X9461500Y5295900D01*
X9588500Y5295900D01*
X9652000Y5359400D01*
X8636002Y5359400D02*
G01*
X8699502Y5295900D01*
X8826502Y5295900D01*
X8890002Y5359400D01*
X7366000Y8877300D02*
G01*
X7429500Y8813800D01*
X7556500Y8813800D01*
X7620000Y8877300D01*
X7620000Y9004300D02*
G01*
X7683500Y9067800D01*
X7810500Y9067800D01*
X7874000Y9004300D01*
X7620000Y8877300D02*
G01*
X7683500Y8813800D01*
X7810500Y8813800D01*
X7874000Y8877300D01*
X7112000Y9004300D02*
G01*
X7112000Y8877300D01*
X7874000Y9004300D02*
G01*
X7937500Y9067800D01*
X8064500Y9067800D01*
X8128000Y9004300D01*
X7874000Y8877300D02*
G01*
X7937500Y8813800D01*
X8064500Y8813800D01*
X8128000Y8877300D01*
X8128000Y9004300D02*
G01*
X8128000Y8877300D01*
X7366000Y9004300D02*
G01*
X7429500Y9067800D01*
X7556500Y9067800D01*
X7620000Y9004300D01*
X7112000Y9004300D02*
G01*
X7175500Y9067800D01*
X7302500Y9067800D01*
X7366000Y9004300D01*
X7112000Y8877300D02*
G01*
X7175500Y8813800D01*
X7302500Y8813800D01*
X7366000Y8877300D01*
X7429500Y7404100D02*
G01*
X7493000Y7340600D01*
X7620000Y7340600D01*
X7683500Y7404100D01*
X7683500Y7531100D02*
G01*
X7747000Y7594600D01*
X7874000Y7594600D01*
X7937500Y7531100D01*
X7683500Y7404100D02*
G01*
X7747000Y7340600D01*
X7874000Y7340600D01*
X7937500Y7404100D01*
X7175500Y7531100D02*
G01*
X7175500Y7404100D01*
X7937500Y7531100D02*
G01*
X8001000Y7594600D01*
X8128000Y7594600D01*
X8191500Y7531100D01*
X7937500Y7404100D02*
G01*
X8001000Y7340600D01*
X8128000Y7340600D01*
X8191500Y7404100D01*
X8191500Y7531100D02*
G01*
X8191500Y7404100D01*
X7429500Y7531100D02*
G01*
X7493000Y7594600D01*
X7620000Y7594600D01*
X7683500Y7531100D01*
X7175500Y7531100D02*
G01*
X7239000Y7594600D01*
X7366000Y7594600D01*
X7429500Y7531100D01*
X7175500Y7404100D02*
G01*
X7239000Y7340600D01*
X7366000Y7340600D01*
X7429500Y7404100D01*
M02*
