G04 Layer: BottomSolderMaskLayer*
G04 EasyEDA v6.5.14, 2022-08-24 20:25:52*
G04 37d94133e9fb4008a465715c89777dd1,10*
G04 Gerber Generator version 0.2*
G04 Scale: 100 percent, Rotated: No, Reflected: No *
G04 Dimensions in millimeters *
G04 leading zeros omitted , absolute positions ,4 integer and 5 decimal *
%FSLAX45Y45*%
%MOMM*%

%ADD10C,1.7272*%

%LPD*%
D10*
G01*
X7835900Y10248900D03*
G01*
X7581900Y10248900D03*
G01*
X7327900Y10248900D03*
G01*
X7073900Y10248900D03*
G01*
X6819900Y10248900D03*
G01*
X6565900Y10248900D03*
G01*
X10121900Y10248900D03*
G01*
X9867900Y10248900D03*
G01*
X9613900Y10248900D03*
G01*
X9359900Y10248900D03*
G01*
X9105900Y10248900D03*
G01*
X8851900Y10248900D03*
G01*
X8597900Y10248900D03*
G01*
X8343900Y10248900D03*
G01*
X8356600Y5422900D03*
G01*
X8102600Y5422900D03*
G01*
X7848600Y5422900D03*
G01*
X7594600Y5422900D03*
G01*
X7340600Y5422900D03*
G01*
X7086600Y5422900D03*
G01*
X6832600Y5422900D03*
G01*
X6578600Y5422900D03*
G01*
X11049000Y5422900D03*
G01*
X10795000Y5422900D03*
G01*
X10541000Y5422900D03*
G01*
X10287000Y5422900D03*
G01*
X10033000Y5422900D03*
G01*
X9779000Y5422900D03*
G01*
X9525000Y5422900D03*
G01*
X9271000Y5422900D03*
G01*
X9017000Y5422900D03*
G01*
X8763000Y5422900D03*
G01*
X8001000Y8940800D03*
G01*
X7747000Y8940800D03*
G01*
X7493000Y8940800D03*
G01*
X7239000Y8940800D03*
G01*
X8064500Y7467600D03*
G01*
X7810500Y7467600D03*
G01*
X7556500Y7467600D03*
G01*
X7302500Y7467600D03*
M02*
