G04 Layer: TopPasteMaskLayer*
G04 EasyEDA v6.5.14, 2022-08-24 20:25:52*
G04 37d94133e9fb4008a465715c89777dd1,10*
G04 Gerber Generator version 0.2*
G04 Scale: 100 percent, Rotated: No, Reflected: No *
G04 Dimensions in millimeters *
G04 leading zeros omitted , absolute positions ,4 integer and 5 decimal *
%FSLAX45Y45*%
%MOMM*%

%ADD10C,0.0001*%

%LPD*%
G36*
X8013801Y6647586D02*
G01*
X8008772Y6642608D01*
X8008772Y6514592D01*
X8013801Y6509613D01*
X8128812Y6509613D01*
X8133791Y6514592D01*
X8133283Y6556603D01*
X8089290Y6556603D01*
X8089290Y6601612D01*
X8134299Y6601612D01*
X8133791Y6642608D01*
X8128812Y6647586D01*
G37*
G36*
X8228787Y6647586D02*
G01*
X8223808Y6642608D01*
X8224316Y6601612D01*
X8268309Y6601612D01*
X8268309Y6556603D01*
X8223808Y6556603D01*
X8223808Y6514592D01*
X8228787Y6509613D01*
X8343798Y6509613D01*
X8348776Y6514592D01*
X8348776Y6642608D01*
X8343798Y6647586D01*
G37*
G36*
X9639401Y8425586D02*
G01*
X9634372Y8420608D01*
X9634372Y8292592D01*
X9639401Y8287613D01*
X9754412Y8287613D01*
X9759391Y8292592D01*
X9758883Y8334603D01*
X9714890Y8334603D01*
X9714890Y8379612D01*
X9759899Y8379612D01*
X9759391Y8420608D01*
X9754412Y8425586D01*
G37*
G36*
X9854387Y8425586D02*
G01*
X9849408Y8420608D01*
X9849916Y8379612D01*
X9893909Y8379612D01*
X9893909Y8334603D01*
X9849408Y8334603D01*
X9849408Y8292592D01*
X9854387Y8287613D01*
X9969398Y8287613D01*
X9974376Y8292592D01*
X9974376Y8420608D01*
X9969398Y8425586D01*
G37*
G36*
X9779101Y7092086D02*
G01*
X9774072Y7087108D01*
X9774072Y6959092D01*
X9779101Y6954113D01*
X9894112Y6954113D01*
X9899091Y6959092D01*
X9898583Y7001103D01*
X9854590Y7001103D01*
X9854590Y7046112D01*
X9899599Y7046112D01*
X9899091Y7087108D01*
X9894112Y7092086D01*
G37*
G36*
X9994087Y7092086D02*
G01*
X9989108Y7087108D01*
X9989616Y7046112D01*
X10033609Y7046112D01*
X10033609Y7001103D01*
X9989108Y7001103D01*
X9989108Y6959092D01*
X9994087Y6954113D01*
X10109098Y6954113D01*
X10114076Y6959092D01*
X10114076Y7087108D01*
X10109098Y7092086D01*
G37*
M02*
