G04 Layer: TopSilkscreenLayer*
G04 EasyEDA v6.5.14, 2022-08-24 20:25:52*
G04 37d94133e9fb4008a465715c89777dd1,10*
G04 Gerber Generator version 0.2*
G04 Scale: 100 percent, Rotated: No, Reflected: No *
G04 Dimensions in millimeters *
G04 leading zeros omitted , absolute positions ,4 integer and 5 decimal *
%FSLAX45Y45*%
%MOMM*%

%ADD10C,0.1524*%

%LPD*%
D10*
X8178800Y6952487D02*
G01*
X8189213Y6957821D01*
X8204708Y6973315D01*
X8204708Y6864095D01*
X8238997Y6973315D02*
G01*
X8238997Y6864095D01*
X8291068Y6936994D02*
G01*
X8238997Y6884923D01*
X8259825Y6905752D02*
G01*
X8296147Y6864095D01*
X8178800Y6795515D02*
G01*
X8178800Y6686295D01*
X8178800Y6795515D02*
G01*
X8225536Y6795515D01*
X8241029Y6790436D01*
X8246363Y6785102D01*
X8251443Y6774687D01*
X8251443Y6764273D01*
X8246363Y6753860D01*
X8241029Y6748779D01*
X8225536Y6743445D01*
X8178800Y6743445D01*
X8215122Y6743445D02*
G01*
X8251443Y6686295D01*
X8296147Y6795515D02*
G01*
X8353297Y6795515D01*
X8322056Y6753860D01*
X8337804Y6753860D01*
X8348218Y6748779D01*
X8353297Y6743445D01*
X8358631Y6727952D01*
X8358631Y6717537D01*
X8353297Y6702044D01*
X8342884Y6691629D01*
X8327390Y6686295D01*
X8311895Y6686295D01*
X8296147Y6691629D01*
X8291068Y6696710D01*
X8285734Y6707123D01*
X9804400Y8730487D02*
G01*
X9814813Y8735821D01*
X9830308Y8751315D01*
X9830308Y8642350D01*
X9864597Y8751315D02*
G01*
X9864597Y8642350D01*
X9916668Y8714994D02*
G01*
X9864597Y8662924D01*
X9885425Y8683752D02*
G01*
X9921747Y8642350D01*
X9804400Y8573515D02*
G01*
X9804400Y8464550D01*
X9804400Y8573515D02*
G01*
X9851136Y8573515D01*
X9866629Y8568436D01*
X9871963Y8563102D01*
X9877043Y8552687D01*
X9877043Y8542274D01*
X9871963Y8531860D01*
X9866629Y8526779D01*
X9851136Y8521700D01*
X9804400Y8521700D01*
X9840722Y8521700D02*
G01*
X9877043Y8464550D01*
X9911334Y8552687D02*
G01*
X9921747Y8558021D01*
X9937495Y8573515D01*
X9937495Y8464550D01*
X9944100Y7396987D02*
G01*
X9954513Y7402321D01*
X9970008Y7417815D01*
X9970008Y7308850D01*
X10004297Y7417815D02*
G01*
X10004297Y7308850D01*
X10056368Y7381494D02*
G01*
X10004297Y7329423D01*
X10025125Y7350252D02*
G01*
X10061447Y7308850D01*
X9944100Y7240015D02*
G01*
X9944100Y7131050D01*
X9944100Y7240015D02*
G01*
X9990836Y7240015D01*
X10006329Y7234936D01*
X10011663Y7229602D01*
X10016743Y7219187D01*
X10016743Y7208773D01*
X10011663Y7198360D01*
X10006329Y7193279D01*
X9990836Y7188200D01*
X9944100Y7188200D01*
X9980422Y7188200D02*
G01*
X10016743Y7131050D01*
X10056368Y7214108D02*
G01*
X10056368Y7219187D01*
X10061447Y7229602D01*
X10066781Y7234936D01*
X10077195Y7240015D01*
X10097770Y7240015D01*
X10108184Y7234936D01*
X10113518Y7229602D01*
X10118597Y7219187D01*
X10118597Y7208773D01*
X10113518Y7198360D01*
X10103104Y7182865D01*
X10051034Y7131050D01*
X10123931Y7131050D01*
X8226419Y6486890D02*
G01*
X8354913Y6486890D01*
X8354913Y6670309D01*
X8226419Y6670309D01*
X8131180Y6486890D02*
G01*
X8002686Y6486890D01*
X8002686Y6670309D01*
X8131180Y6670309D01*
X9852019Y8264890D02*
G01*
X9980513Y8264890D01*
X9980513Y8448309D01*
X9852019Y8448309D01*
X9756780Y8264890D02*
G01*
X9628286Y8264890D01*
X9628286Y8448309D01*
X9756780Y8448309D01*
X9991719Y6931390D02*
G01*
X10120213Y6931390D01*
X10120213Y7114809D01*
X9991719Y7114809D01*
X9896480Y6931390D02*
G01*
X9767986Y6931390D01*
X9767986Y7114809D01*
X9896480Y7114809D01*
M02*
