M48
METRIC,LZ,000.000
;FILE_FORMAT=3:3
;TYPE=PLATED
;Layer: PTH_Through
;EasyEDA v6.5.5, 2022-05-22 00:28:19
;37d94133e9fb4008a465715c89777dd1,10
;Gerber Generator version 0.2
;Holesize 1 = 0.306 mm
T01C0.306
;Holesize 2 = 1.000 mm
T02C1.000
%
G05
G90
T01
X028058Y034023
X051190Y043152
X020787Y057619
X026684Y035024
T02
X011811Y063373
X014351Y063373
X016891Y063373
X019431Y063373
X021971Y063373
X024511Y063373
X012192Y015113
X014732Y015113
X017272Y015113
X019812Y015113
X022352Y015113
X024892Y015113
X027432Y015113
X029972Y015113
X029718Y063373
X032258Y063373
X034798Y063373
X037338Y063373
X039878Y063373
X042418Y063373
X044958Y063373
X047498Y063373
X034036Y014986
X036576Y014986
X039116Y014986
X041656Y014986
X044196Y014986
X046736Y014986
X049276Y014986
X051816Y014986
X054356Y014986
X056896Y014986
M30
