G04 Layer: TopLayer*
G04 EasyEDA v6.5.5, 2022-05-22 00:28:19*
G04 37d94133e9fb4008a465715c89777dd1,10*
G04 Gerber Generator version 0.2*
G04 Scale: 100 percent, Rotated: No, Reflected: No *
G04 Dimensions in millimeters *
G04 leading zeros omitted , absolute positions ,4 integer and 5 decimal *
%FSLAX45Y45*%
%MOMM*%

%ADD10C,0.2540*%
%ADD11C,0.6100*%
%ADD13C,1.5240*%

%LPD*%
G36*
X798068Y1029208D02*
G01*
X794156Y1029969D01*
X790905Y1032205D01*
X788670Y1035456D01*
X787908Y1039368D01*
X787908Y6530797D01*
X788720Y6534810D01*
X791057Y6538163D01*
X794562Y6540296D01*
X798576Y6540906D01*
X802538Y6539890D01*
X805789Y6537401D01*
X807872Y6533388D01*
X814222Y6519367D01*
X822198Y6506159D01*
X831697Y6494068D01*
X842568Y6483197D01*
X854659Y6473698D01*
X867867Y6465722D01*
X881887Y6459372D01*
X896569Y6454800D01*
X911707Y6452057D01*
X927100Y6451092D01*
X942492Y6452057D01*
X957630Y6454800D01*
X972312Y6459372D01*
X986332Y6465722D01*
X999540Y6473698D01*
X1011631Y6483197D01*
X1022502Y6494068D01*
X1032002Y6506159D01*
X1039977Y6519367D01*
X1046327Y6533388D01*
X1050899Y6548069D01*
X1053642Y6563207D01*
X1054608Y6578600D01*
X1053642Y6593992D01*
X1050899Y6609130D01*
X1046327Y6623812D01*
X1039977Y6637832D01*
X1032002Y6651040D01*
X1022502Y6663131D01*
X1011631Y6674002D01*
X999540Y6683502D01*
X986332Y6691477D01*
X972312Y6697827D01*
X957630Y6702399D01*
X942492Y6705142D01*
X927100Y6706108D01*
X911707Y6705142D01*
X896569Y6702399D01*
X881887Y6697827D01*
X867867Y6691477D01*
X854659Y6683502D01*
X842568Y6674002D01*
X831697Y6663131D01*
X822198Y6651040D01*
X814222Y6637832D01*
X807770Y6623405D01*
X805789Y6619798D01*
X802538Y6617309D01*
X798576Y6616293D01*
X794562Y6616903D01*
X791057Y6619036D01*
X788720Y6622389D01*
X787908Y6626402D01*
X787908Y6720331D01*
X788670Y6724243D01*
X790905Y6727494D01*
X794156Y6729730D01*
X798068Y6730492D01*
X6442202Y6730492D01*
X6446062Y6729730D01*
X6449314Y6727596D01*
X6451549Y6724345D01*
X6452362Y6720484D01*
X6463792Y5976518D01*
X6463792Y1039368D01*
X6463030Y1035456D01*
X6460794Y1032205D01*
X6457543Y1029969D01*
X6453632Y1029208D01*
G37*

%LPC*%
G36*
X6197600Y6400292D02*
G01*
X6212992Y6401257D01*
X6228130Y6404000D01*
X6242812Y6408572D01*
X6256832Y6414922D01*
X6270040Y6422898D01*
X6282131Y6432397D01*
X6293002Y6443268D01*
X6302502Y6455359D01*
X6310477Y6468567D01*
X6316827Y6482588D01*
X6321399Y6497269D01*
X6324142Y6512407D01*
X6325108Y6527800D01*
X6324142Y6543192D01*
X6321399Y6558330D01*
X6316827Y6573012D01*
X6310477Y6587032D01*
X6302502Y6600240D01*
X6293002Y6612331D01*
X6282131Y6623202D01*
X6270040Y6632702D01*
X6256832Y6640677D01*
X6242812Y6647027D01*
X6228130Y6651599D01*
X6212992Y6654342D01*
X6197600Y6655308D01*
X6182207Y6654342D01*
X6167069Y6651599D01*
X6152388Y6647027D01*
X6138367Y6640677D01*
X6125159Y6632702D01*
X6113068Y6623202D01*
X6102197Y6612331D01*
X6092698Y6600240D01*
X6084722Y6587032D01*
X6078372Y6573012D01*
X6073800Y6558330D01*
X6071057Y6543192D01*
X6070092Y6527800D01*
X6071057Y6512407D01*
X6073800Y6497269D01*
X6078372Y6482588D01*
X6084722Y6468567D01*
X6092698Y6455359D01*
X6102197Y6443268D01*
X6113068Y6432397D01*
X6125159Y6422898D01*
X6138367Y6414922D01*
X6152388Y6408572D01*
X6167069Y6404000D01*
X6182207Y6401257D01*
G37*
G36*
X5178196Y1396593D02*
G01*
X5191810Y1397050D01*
X5205272Y1399286D01*
X5218277Y1403350D01*
X5230672Y1409090D01*
X5242153Y1416405D01*
X5252567Y1425194D01*
X5261711Y1435354D01*
X5269433Y1446580D01*
X5275580Y1458722D01*
X5280050Y1471625D01*
X5282793Y1484985D01*
X5283708Y1498600D01*
X5282793Y1512214D01*
X5280050Y1525574D01*
X5277815Y1532077D01*
X5277256Y1535836D01*
X5278069Y1539494D01*
X5280202Y1542592D01*
X5296560Y1559001D01*
X5301691Y1565198D01*
X5305247Y1571904D01*
X5307431Y1579118D01*
X5308244Y1587144D01*
X5308244Y3045968D01*
X5309108Y3050032D01*
X5311495Y3053435D01*
X5315051Y3055569D01*
X5321147Y3057702D01*
X5326075Y3060801D01*
X5330139Y3064865D01*
X5333238Y3069793D01*
X5335168Y3075228D01*
X5335879Y3081578D01*
X5335879Y3166821D01*
X5335168Y3173171D01*
X5333238Y3178606D01*
X5330139Y3183534D01*
X5326075Y3187598D01*
X5321147Y3190697D01*
X5315712Y3192576D01*
X5309362Y3193288D01*
X5229860Y3193288D01*
X5223560Y3192576D01*
X5218074Y3190697D01*
X5213197Y3187598D01*
X5209082Y3183534D01*
X5206034Y3178606D01*
X5203901Y3172561D01*
X5201767Y3169005D01*
X5198364Y3166567D01*
X5194300Y3165754D01*
X5190236Y3166567D01*
X5186832Y3169005D01*
X5184698Y3172561D01*
X5182565Y3178606D01*
X5179517Y3183534D01*
X5175402Y3187598D01*
X5170525Y3190697D01*
X5164378Y3192830D01*
X5160822Y3194964D01*
X5158435Y3198368D01*
X5157571Y3202432D01*
X5157571Y4270146D01*
X5158333Y4274007D01*
X5160568Y4277309D01*
X5162143Y4278934D01*
X5167782Y4286961D01*
X5171948Y4295851D01*
X5174488Y4305350D01*
X5175351Y4315155D01*
X5174488Y4324959D01*
X5171948Y4334459D01*
X5167782Y4343349D01*
X5162143Y4351375D01*
X5155184Y4358335D01*
X5147157Y4363974D01*
X5138267Y4368139D01*
X5128768Y4370679D01*
X5118963Y4371543D01*
X5109159Y4370679D01*
X5099659Y4368139D01*
X5090769Y4363974D01*
X5082743Y4358335D01*
X5075783Y4351375D01*
X5070144Y4343349D01*
X5065979Y4334459D01*
X5063439Y4324959D01*
X5062575Y4315155D01*
X5063439Y4305350D01*
X5065979Y4295851D01*
X5070144Y4286961D01*
X5075783Y4278934D01*
X5077358Y4277309D01*
X5079593Y4274007D01*
X5080355Y4270146D01*
X5080355Y3202432D01*
X5079492Y3198368D01*
X5077104Y3194964D01*
X5073548Y3192830D01*
X5067452Y3190697D01*
X5062524Y3187598D01*
X5058460Y3183534D01*
X5055362Y3178606D01*
X5053431Y3173171D01*
X5052720Y3166821D01*
X5052720Y3081578D01*
X5053431Y3075228D01*
X5055362Y3069793D01*
X5058460Y3064865D01*
X5062524Y3060801D01*
X5067452Y3057702D01*
X5072888Y3055823D01*
X5079238Y3055112D01*
X5158740Y3055112D01*
X5165039Y3055823D01*
X5170525Y3057702D01*
X5175402Y3060801D01*
X5179517Y3064865D01*
X5182565Y3069793D01*
X5184698Y3075838D01*
X5186832Y3079394D01*
X5190236Y3081832D01*
X5194300Y3082645D01*
X5198364Y3081832D01*
X5201767Y3079394D01*
X5203901Y3075838D01*
X5206034Y3069793D01*
X5209082Y3064865D01*
X5213197Y3060801D01*
X5218074Y3057702D01*
X5224221Y3055569D01*
X5227777Y3053435D01*
X5230164Y3050032D01*
X5231028Y3045968D01*
X5231028Y1606854D01*
X5230266Y1602943D01*
X5228031Y1599641D01*
X5225643Y1597253D01*
X5222646Y1595170D01*
X5219090Y1594307D01*
X5215483Y1594764D01*
X5205272Y1597914D01*
X5191810Y1600149D01*
X5178196Y1600606D01*
X5164632Y1599285D01*
X5151374Y1596085D01*
X5138623Y1591208D01*
X5126685Y1584655D01*
X5115712Y1576578D01*
X5105908Y1567078D01*
X5097424Y1556359D01*
X5090464Y1544624D01*
X5085181Y1532077D01*
X5081574Y1518920D01*
X5079746Y1505407D01*
X5079746Y1491792D01*
X5081574Y1478280D01*
X5085181Y1465122D01*
X5090464Y1452575D01*
X5097424Y1440840D01*
X5105908Y1430121D01*
X5115712Y1420622D01*
X5126685Y1412544D01*
X5138623Y1405991D01*
X5151374Y1401114D01*
X5164632Y1397914D01*
G37*
G36*
X4883150Y1406804D02*
G01*
X4883150Y1454150D01*
X4835804Y1454150D01*
X4836464Y1452575D01*
X4843424Y1440840D01*
X4851908Y1430121D01*
X4861712Y1420622D01*
X4872685Y1412544D01*
G37*
G36*
X4375150Y1406804D02*
G01*
X4375150Y1454150D01*
X4327804Y1454150D01*
X4328464Y1452575D01*
X4335424Y1440840D01*
X4343908Y1430121D01*
X4353712Y1420622D01*
X4364685Y1412544D01*
G37*
G36*
X4121150Y1406804D02*
G01*
X4121150Y1454150D01*
X4073804Y1454150D01*
X4074464Y1452575D01*
X4081424Y1440840D01*
X4089908Y1430121D01*
X4099712Y1420622D01*
X4110685Y1412544D01*
G37*
G36*
X5391150Y1406804D02*
G01*
X5391150Y1454150D01*
X5343804Y1454150D01*
X5344464Y1452575D01*
X5351424Y1440840D01*
X5359908Y1430121D01*
X5369712Y1420622D01*
X5380685Y1412544D01*
G37*
G36*
X3867150Y1406804D02*
G01*
X3867150Y1454150D01*
X3819804Y1454150D01*
X3820464Y1452575D01*
X3827424Y1440840D01*
X3835908Y1430121D01*
X3845712Y1420622D01*
X3856685Y1412544D01*
G37*
G36*
X3613150Y1406804D02*
G01*
X3613150Y1454150D01*
X3565804Y1454150D01*
X3566464Y1452575D01*
X3573424Y1440840D01*
X3581908Y1430121D01*
X3591712Y1420622D01*
X3602685Y1412544D01*
G37*
G36*
X4629150Y1406804D02*
G01*
X4629150Y1454150D01*
X4581804Y1454150D01*
X4582464Y1452575D01*
X4589424Y1440840D01*
X4597908Y1430121D01*
X4607712Y1420622D01*
X4618685Y1412544D01*
G37*
G36*
X5645150Y1406804D02*
G01*
X5645150Y1454150D01*
X5597804Y1454150D01*
X5598464Y1452575D01*
X5605424Y1440840D01*
X5613908Y1430121D01*
X5623712Y1420622D01*
X5634685Y1412544D01*
G37*
G36*
X3359150Y1406804D02*
G01*
X3359150Y1454150D01*
X3311804Y1454150D01*
X3312464Y1452575D01*
X3319424Y1440840D01*
X3327908Y1430121D01*
X3337712Y1420622D01*
X3348685Y1412544D01*
G37*
G36*
X5734050Y1406956D02*
G01*
X5738672Y1409090D01*
X5750153Y1416405D01*
X5760567Y1425194D01*
X5769711Y1435354D01*
X5777433Y1446580D01*
X5781243Y1454150D01*
X5734050Y1454150D01*
G37*
G36*
X4464050Y1406956D02*
G01*
X4468672Y1409090D01*
X4480153Y1416405D01*
X4490567Y1425194D01*
X4499711Y1435354D01*
X4507433Y1446580D01*
X4511243Y1454150D01*
X4464050Y1454150D01*
G37*
G36*
X3448050Y1406956D02*
G01*
X3452672Y1409090D01*
X3464153Y1416405D01*
X3474567Y1425194D01*
X3483711Y1435354D01*
X3491433Y1446580D01*
X3495243Y1454150D01*
X3448050Y1454150D01*
G37*
G36*
X3702050Y1406956D02*
G01*
X3706672Y1409090D01*
X3718153Y1416405D01*
X3728567Y1425194D01*
X3737711Y1435354D01*
X3745433Y1446580D01*
X3749243Y1454150D01*
X3702050Y1454150D01*
G37*
G36*
X5480050Y1406956D02*
G01*
X5484672Y1409090D01*
X5496153Y1416405D01*
X5506567Y1425194D01*
X5515711Y1435354D01*
X5523433Y1446580D01*
X5527243Y1454150D01*
X5480050Y1454150D01*
G37*
G36*
X4210050Y1406956D02*
G01*
X4214672Y1409090D01*
X4226153Y1416405D01*
X4236567Y1425194D01*
X4245711Y1435354D01*
X4253433Y1446580D01*
X4257243Y1454150D01*
X4210050Y1454150D01*
G37*
G36*
X4718050Y1406956D02*
G01*
X4722672Y1409090D01*
X4734153Y1416405D01*
X4744567Y1425194D01*
X4753711Y1435354D01*
X4761433Y1446580D01*
X4765243Y1454150D01*
X4718050Y1454150D01*
G37*
G36*
X3956050Y1406956D02*
G01*
X3960672Y1409090D01*
X3972153Y1416405D01*
X3982567Y1425194D01*
X3991711Y1435354D01*
X3999433Y1446580D01*
X4003243Y1454150D01*
X3956050Y1454150D01*
G37*
G36*
X4972050Y1406956D02*
G01*
X4976672Y1409090D01*
X4988153Y1416405D01*
X4998567Y1425194D01*
X5007711Y1435354D01*
X5015433Y1446580D01*
X5019243Y1454150D01*
X4972050Y1454150D01*
G37*
G36*
X1215796Y1409293D02*
G01*
X1229410Y1409750D01*
X1242872Y1411986D01*
X1255877Y1416050D01*
X1268272Y1421790D01*
X1279753Y1429105D01*
X1290167Y1437894D01*
X1299311Y1448054D01*
X1307033Y1459280D01*
X1313180Y1471422D01*
X1317650Y1484325D01*
X1320393Y1497685D01*
X1321308Y1511300D01*
X1320393Y1524914D01*
X1317650Y1538274D01*
X1313180Y1551178D01*
X1307033Y1563319D01*
X1299311Y1574546D01*
X1290167Y1584706D01*
X1279753Y1593494D01*
X1268272Y1600809D01*
X1255877Y1606550D01*
X1242872Y1610614D01*
X1229410Y1612849D01*
X1215796Y1613306D01*
X1202232Y1611985D01*
X1188974Y1608785D01*
X1176223Y1603908D01*
X1164285Y1597355D01*
X1153312Y1589278D01*
X1143508Y1579778D01*
X1135024Y1569059D01*
X1128064Y1557324D01*
X1122781Y1544777D01*
X1119174Y1531620D01*
X1117346Y1518107D01*
X1117346Y1504492D01*
X1119174Y1490980D01*
X1122781Y1477822D01*
X1128064Y1465275D01*
X1135024Y1453540D01*
X1143508Y1442821D01*
X1153312Y1433322D01*
X1164285Y1425244D01*
X1176223Y1418691D01*
X1188974Y1413814D01*
X1202232Y1410614D01*
G37*
G36*
X2993796Y1409293D02*
G01*
X3007410Y1409750D01*
X3020872Y1411986D01*
X3033877Y1416050D01*
X3046272Y1421790D01*
X3057753Y1429105D01*
X3068167Y1437894D01*
X3077311Y1448054D01*
X3085033Y1459280D01*
X3091180Y1471422D01*
X3095650Y1484325D01*
X3098393Y1497685D01*
X3099308Y1511300D01*
X3098393Y1524914D01*
X3095650Y1538274D01*
X3091180Y1551178D01*
X3085033Y1563319D01*
X3077311Y1574546D01*
X3068167Y1584706D01*
X3057753Y1593494D01*
X3046272Y1600809D01*
X3033877Y1606550D01*
X3020872Y1610614D01*
X3007410Y1612849D01*
X2993796Y1613306D01*
X2980232Y1611985D01*
X2966974Y1608785D01*
X2954223Y1603908D01*
X2942285Y1597355D01*
X2931312Y1589278D01*
X2921508Y1579778D01*
X2913024Y1569059D01*
X2906064Y1557324D01*
X2900781Y1544777D01*
X2897174Y1531620D01*
X2895346Y1518107D01*
X2895346Y1504492D01*
X2897174Y1490980D01*
X2900781Y1477822D01*
X2906064Y1465275D01*
X2913024Y1453540D01*
X2921508Y1442821D01*
X2931312Y1433322D01*
X2942285Y1425244D01*
X2954223Y1418691D01*
X2966974Y1413814D01*
X2980232Y1410614D01*
G37*
G36*
X2231796Y1409293D02*
G01*
X2245410Y1409750D01*
X2258872Y1411986D01*
X2271877Y1416050D01*
X2284272Y1421790D01*
X2295753Y1429105D01*
X2306167Y1437894D01*
X2315311Y1448054D01*
X2323033Y1459280D01*
X2329180Y1471422D01*
X2333650Y1484325D01*
X2336393Y1497685D01*
X2337308Y1511300D01*
X2336393Y1524914D01*
X2333650Y1538274D01*
X2331415Y1544777D01*
X2330856Y1548536D01*
X2331669Y1552194D01*
X2333802Y1555292D01*
X2626563Y1848104D01*
X2631694Y1854301D01*
X2635250Y1861007D01*
X2637434Y1868220D01*
X2638247Y1876247D01*
X2638247Y3146552D01*
X2639009Y3150412D01*
X2641244Y3153714D01*
X2644495Y3155899D01*
X2648407Y3156712D01*
X2707640Y3156712D01*
X2713939Y3157423D01*
X2719425Y3159302D01*
X2724302Y3162401D01*
X2728417Y3166465D01*
X2731465Y3171393D01*
X2733598Y3177438D01*
X2735732Y3180994D01*
X2739136Y3183432D01*
X2743200Y3184245D01*
X2747264Y3183432D01*
X2750667Y3180994D01*
X2752801Y3177438D01*
X2754934Y3171393D01*
X2757982Y3166465D01*
X2762097Y3162401D01*
X2766974Y3159302D01*
X2772460Y3157423D01*
X2778760Y3156712D01*
X2858262Y3156712D01*
X2864612Y3157423D01*
X2870047Y3159302D01*
X2874975Y3162401D01*
X2879039Y3166465D01*
X2882138Y3171393D01*
X2884068Y3176828D01*
X2884779Y3183178D01*
X2884779Y3268421D01*
X2884068Y3274771D01*
X2882138Y3280206D01*
X2879039Y3285134D01*
X2874975Y3289198D01*
X2870047Y3292297D01*
X2864612Y3294176D01*
X2858262Y3294887D01*
X2797657Y3294887D01*
X2793492Y3295802D01*
X2790037Y3298393D01*
X2787954Y3302101D01*
X2785922Y3308807D01*
X2782366Y3315462D01*
X2777236Y3321710D01*
X2710027Y3388918D01*
X2707792Y3392220D01*
X2707030Y3396132D01*
X2707030Y3457346D01*
X2707792Y3461207D01*
X2710027Y3464509D01*
X2711602Y3466134D01*
X2717241Y3474161D01*
X2721406Y3483051D01*
X2723946Y3492550D01*
X2724810Y3502355D01*
X2723946Y3512159D01*
X2721406Y3521659D01*
X2717241Y3530549D01*
X2711602Y3538575D01*
X2704642Y3545535D01*
X2696616Y3551174D01*
X2687726Y3555339D01*
X2678226Y3557879D01*
X2668422Y3558743D01*
X2658618Y3557879D01*
X2649118Y3555339D01*
X2640228Y3551174D01*
X2632202Y3545535D01*
X2625242Y3538575D01*
X2619603Y3530549D01*
X2615438Y3521659D01*
X2612898Y3512159D01*
X2612034Y3502355D01*
X2612898Y3492550D01*
X2615438Y3483051D01*
X2619603Y3474161D01*
X2625242Y3466134D01*
X2626817Y3464509D01*
X2629052Y3461207D01*
X2629814Y3457346D01*
X2629814Y3376422D01*
X2630627Y3368395D01*
X2632811Y3361182D01*
X2636367Y3354476D01*
X2641498Y3348278D01*
X2677464Y3312261D01*
X2679700Y3308959D01*
X2680462Y3305048D01*
X2679700Y3301187D01*
X2677464Y3297885D01*
X2674162Y3295700D01*
X2670302Y3294887D01*
X2628138Y3294887D01*
X2621788Y3294176D01*
X2616352Y3292297D01*
X2611424Y3289198D01*
X2607360Y3285134D01*
X2604262Y3280206D01*
X2602331Y3274771D01*
X2601163Y3269386D01*
X2599182Y3266592D01*
X2596337Y3264611D01*
X2592120Y3263595D01*
X2584907Y3261410D01*
X2578201Y3257854D01*
X2572359Y3253079D01*
X2567584Y3247237D01*
X2564028Y3240532D01*
X2561844Y3233318D01*
X2561031Y3225292D01*
X2561031Y1895957D01*
X2560269Y1892046D01*
X2558034Y1888743D01*
X2279243Y1609953D01*
X2276246Y1607870D01*
X2272690Y1607007D01*
X2269083Y1607464D01*
X2258872Y1610614D01*
X2245410Y1612849D01*
X2231796Y1613306D01*
X2218232Y1611985D01*
X2204974Y1608785D01*
X2192223Y1603908D01*
X2180285Y1597355D01*
X2169312Y1589278D01*
X2159508Y1579778D01*
X2151024Y1569059D01*
X2144064Y1557324D01*
X2138781Y1544777D01*
X2135174Y1531620D01*
X2133346Y1518107D01*
X2133346Y1504492D01*
X2135174Y1490980D01*
X2138781Y1477822D01*
X2144064Y1465275D01*
X2151024Y1453540D01*
X2159508Y1442821D01*
X2169312Y1433322D01*
X2180285Y1425244D01*
X2192223Y1418691D01*
X2204974Y1413814D01*
X2218232Y1410614D01*
G37*
G36*
X1428750Y1419504D02*
G01*
X1428750Y1466850D01*
X1381404Y1466850D01*
X1382064Y1465275D01*
X1389024Y1453540D01*
X1397508Y1442821D01*
X1407312Y1433322D01*
X1418285Y1425244D01*
G37*
G36*
X1682750Y1419504D02*
G01*
X1682750Y1466850D01*
X1635404Y1466850D01*
X1636064Y1465275D01*
X1643024Y1453540D01*
X1651507Y1442821D01*
X1661312Y1433322D01*
X1672285Y1425244D01*
G37*
G36*
X1936750Y1419504D02*
G01*
X1936750Y1466850D01*
X1889404Y1466850D01*
X1890064Y1465275D01*
X1897024Y1453540D01*
X1905507Y1442821D01*
X1915312Y1433322D01*
X1926285Y1425244D01*
G37*
G36*
X2698750Y1419504D02*
G01*
X2698750Y1466850D01*
X2651404Y1466850D01*
X2652064Y1465275D01*
X2659024Y1453540D01*
X2667508Y1442821D01*
X2677312Y1433322D01*
X2688285Y1425244D01*
G37*
G36*
X2444750Y1419504D02*
G01*
X2444750Y1466850D01*
X2397404Y1466850D01*
X2398064Y1465275D01*
X2405024Y1453540D01*
X2413508Y1442821D01*
X2423312Y1433322D01*
X2434285Y1425244D01*
G37*
G36*
X2025650Y1419656D02*
G01*
X2030272Y1421790D01*
X2041753Y1429105D01*
X2052167Y1437894D01*
X2061311Y1448054D01*
X2069033Y1459280D01*
X2072843Y1466850D01*
X2025650Y1466850D01*
G37*
G36*
X2533650Y1419656D02*
G01*
X2538272Y1421790D01*
X2549753Y1429105D01*
X2560167Y1437894D01*
X2569311Y1448054D01*
X2577033Y1459280D01*
X2580843Y1466850D01*
X2533650Y1466850D01*
G37*
G36*
X2787650Y1419656D02*
G01*
X2792272Y1421790D01*
X2803753Y1429105D01*
X2814167Y1437894D01*
X2823311Y1448054D01*
X2831033Y1459280D01*
X2834843Y1466850D01*
X2787650Y1466850D01*
G37*
G36*
X1517650Y1419656D02*
G01*
X1522272Y1421790D01*
X1533753Y1429105D01*
X1544167Y1437894D01*
X1553311Y1448054D01*
X1561033Y1459280D01*
X1564843Y1466850D01*
X1517650Y1466850D01*
G37*
G36*
X1771650Y1419656D02*
G01*
X1776272Y1421790D01*
X1787753Y1429105D01*
X1798167Y1437894D01*
X1807311Y1448054D01*
X1815033Y1459280D01*
X1818843Y1466850D01*
X1771650Y1466850D01*
G37*
G36*
X3956050Y1543050D02*
G01*
X4003243Y1543050D01*
X3999433Y1550619D01*
X3991711Y1561846D01*
X3982567Y1572006D01*
X3972153Y1580794D01*
X3960672Y1588109D01*
X3956050Y1590243D01*
G37*
G36*
X4210050Y1543050D02*
G01*
X4257243Y1543050D01*
X4253433Y1550619D01*
X4245711Y1561846D01*
X4236567Y1572006D01*
X4226153Y1580794D01*
X4214672Y1588109D01*
X4210050Y1590243D01*
G37*
G36*
X5480050Y1543050D02*
G01*
X5527243Y1543050D01*
X5523433Y1550619D01*
X5515711Y1561846D01*
X5506567Y1572006D01*
X5496153Y1580794D01*
X5484672Y1588109D01*
X5480050Y1590243D01*
G37*
G36*
X3448050Y1543050D02*
G01*
X3495243Y1543050D01*
X3491433Y1550619D01*
X3483711Y1561846D01*
X3474567Y1572006D01*
X3464153Y1580794D01*
X3452672Y1588109D01*
X3448050Y1590243D01*
G37*
G36*
X5734050Y1543050D02*
G01*
X5781243Y1543050D01*
X5777433Y1550619D01*
X5769711Y1561846D01*
X5760567Y1572006D01*
X5750153Y1580794D01*
X5738672Y1588109D01*
X5734050Y1590243D01*
G37*
G36*
X3702050Y1543050D02*
G01*
X3749243Y1543050D01*
X3745433Y1550619D01*
X3737711Y1561846D01*
X3728567Y1572006D01*
X3718153Y1580794D01*
X3706672Y1588109D01*
X3702050Y1590243D01*
G37*
G36*
X4718050Y1543050D02*
G01*
X4765243Y1543050D01*
X4761433Y1550619D01*
X4753711Y1561846D01*
X4744567Y1572006D01*
X4734153Y1580794D01*
X4722672Y1588109D01*
X4718050Y1590243D01*
G37*
G36*
X4464050Y1543050D02*
G01*
X4511243Y1543050D01*
X4507433Y1550619D01*
X4499711Y1561846D01*
X4490567Y1572006D01*
X4480153Y1580794D01*
X4468672Y1588109D01*
X4464050Y1590243D01*
G37*
G36*
X4972050Y1543050D02*
G01*
X5019243Y1543050D01*
X5015433Y1550619D01*
X5007711Y1561846D01*
X4998567Y1572006D01*
X4988153Y1580794D01*
X4976672Y1588109D01*
X4972050Y1590243D01*
G37*
G36*
X3565804Y1543050D02*
G01*
X3613150Y1543050D01*
X3613150Y1590395D01*
X3602685Y1584655D01*
X3591712Y1576578D01*
X3581908Y1567078D01*
X3573424Y1556359D01*
X3566464Y1544624D01*
G37*
G36*
X4581804Y1543050D02*
G01*
X4629150Y1543050D01*
X4629150Y1590395D01*
X4618685Y1584655D01*
X4607712Y1576578D01*
X4597908Y1567078D01*
X4589424Y1556359D01*
X4582464Y1544624D01*
G37*
G36*
X3819804Y1543050D02*
G01*
X3867150Y1543050D01*
X3867150Y1590395D01*
X3856685Y1584655D01*
X3845712Y1576578D01*
X3835908Y1567078D01*
X3827424Y1556359D01*
X3820464Y1544624D01*
G37*
G36*
X5343804Y1543050D02*
G01*
X5391150Y1543050D01*
X5391150Y1590395D01*
X5380685Y1584655D01*
X5369712Y1576578D01*
X5359908Y1567078D01*
X5351424Y1556359D01*
X5344464Y1544624D01*
G37*
G36*
X4835804Y1543050D02*
G01*
X4883150Y1543050D01*
X4883150Y1590395D01*
X4872685Y1584655D01*
X4861712Y1576578D01*
X4851908Y1567078D01*
X4843424Y1556359D01*
X4836464Y1544624D01*
G37*
G36*
X3311804Y1543050D02*
G01*
X3359150Y1543050D01*
X3359150Y1590395D01*
X3348685Y1584655D01*
X3337712Y1576578D01*
X3327908Y1567078D01*
X3319424Y1556359D01*
X3312464Y1544624D01*
G37*
G36*
X4327804Y1543050D02*
G01*
X4375150Y1543050D01*
X4375150Y1590395D01*
X4364685Y1584655D01*
X4353712Y1576578D01*
X4343908Y1567078D01*
X4335424Y1556359D01*
X4328464Y1544624D01*
G37*
G36*
X4073804Y1543050D02*
G01*
X4121150Y1543050D01*
X4121150Y1590395D01*
X4110685Y1584655D01*
X4099712Y1576578D01*
X4089908Y1567078D01*
X4081424Y1556359D01*
X4074464Y1544624D01*
G37*
G36*
X5597804Y1543050D02*
G01*
X5645150Y1543050D01*
X5645150Y1590395D01*
X5634685Y1584655D01*
X5623712Y1576578D01*
X5613908Y1567078D01*
X5605424Y1556359D01*
X5598464Y1544624D01*
G37*
G36*
X2025650Y1555750D02*
G01*
X2072843Y1555750D01*
X2069033Y1563319D01*
X2061311Y1574546D01*
X2052167Y1584706D01*
X2041753Y1593494D01*
X2030272Y1600809D01*
X2025650Y1602943D01*
G37*
G36*
X2533650Y1555750D02*
G01*
X2580843Y1555750D01*
X2577033Y1563319D01*
X2569311Y1574546D01*
X2560167Y1584706D01*
X2549753Y1593494D01*
X2538272Y1600809D01*
X2533650Y1602943D01*
G37*
G36*
X2787650Y1555750D02*
G01*
X2834843Y1555750D01*
X2831033Y1563319D01*
X2823311Y1574546D01*
X2814167Y1584706D01*
X2803753Y1593494D01*
X2792272Y1600809D01*
X2787650Y1602943D01*
G37*
G36*
X1517650Y1555750D02*
G01*
X1564843Y1555750D01*
X1561033Y1563319D01*
X1553311Y1574546D01*
X1544167Y1584706D01*
X1533753Y1593494D01*
X1522272Y1600809D01*
X1517650Y1602943D01*
G37*
G36*
X1771650Y1555750D02*
G01*
X1818843Y1555750D01*
X1815033Y1563319D01*
X1807311Y1574546D01*
X1798167Y1584706D01*
X1787753Y1593494D01*
X1776272Y1600809D01*
X1771650Y1602943D01*
G37*
G36*
X1635404Y1555750D02*
G01*
X1682750Y1555750D01*
X1682750Y1603095D01*
X1672285Y1597355D01*
X1661312Y1589278D01*
X1651507Y1579778D01*
X1643024Y1569059D01*
X1636064Y1557324D01*
G37*
G36*
X1889404Y1555750D02*
G01*
X1936750Y1555750D01*
X1936750Y1603095D01*
X1926285Y1597355D01*
X1915312Y1589278D01*
X1905507Y1579778D01*
X1897024Y1569059D01*
X1890064Y1557324D01*
G37*
G36*
X1381404Y1555750D02*
G01*
X1428750Y1555750D01*
X1428750Y1603095D01*
X1418285Y1597355D01*
X1407312Y1589278D01*
X1397508Y1579778D01*
X1389024Y1569059D01*
X1382064Y1557324D01*
G37*
G36*
X2651404Y1555750D02*
G01*
X2698750Y1555750D01*
X2698750Y1603095D01*
X2688285Y1597355D01*
X2677312Y1589278D01*
X2667508Y1579778D01*
X2659024Y1569059D01*
X2652064Y1557324D01*
G37*
G36*
X939800Y1066292D02*
G01*
X955192Y1067257D01*
X970330Y1070000D01*
X985012Y1074572D01*
X999032Y1080922D01*
X1012240Y1088898D01*
X1024331Y1098397D01*
X1035202Y1109268D01*
X1044702Y1121359D01*
X1052677Y1134567D01*
X1059027Y1148588D01*
X1063599Y1163269D01*
X1066342Y1178407D01*
X1067308Y1193800D01*
X1066342Y1209192D01*
X1063599Y1224330D01*
X1059027Y1239012D01*
X1052677Y1253032D01*
X1044702Y1266240D01*
X1035202Y1278331D01*
X1024331Y1289202D01*
X1012240Y1298702D01*
X999032Y1306677D01*
X985012Y1313027D01*
X970330Y1317599D01*
X955192Y1320342D01*
X939800Y1321308D01*
X924407Y1320342D01*
X909269Y1317599D01*
X894587Y1313027D01*
X880567Y1306677D01*
X867359Y1298702D01*
X855268Y1289202D01*
X844397Y1278331D01*
X834898Y1266240D01*
X826922Y1253032D01*
X820572Y1239012D01*
X816000Y1224330D01*
X813257Y1209192D01*
X812292Y1193800D01*
X813257Y1178407D01*
X816000Y1163269D01*
X820572Y1148588D01*
X826922Y1134567D01*
X834898Y1121359D01*
X844397Y1109268D01*
X855268Y1098397D01*
X867359Y1088898D01*
X880567Y1080922D01*
X894587Y1074572D01*
X909269Y1070000D01*
X924407Y1067257D01*
G37*
G36*
X6311900Y1053592D02*
G01*
X6327292Y1054557D01*
X6342430Y1057300D01*
X6357112Y1061872D01*
X6371132Y1068222D01*
X6384340Y1076198D01*
X6396431Y1085697D01*
X6407302Y1096568D01*
X6416802Y1108659D01*
X6424777Y1121867D01*
X6431127Y1135888D01*
X6435699Y1150569D01*
X6438442Y1165707D01*
X6439408Y1181100D01*
X6438442Y1196492D01*
X6435699Y1211630D01*
X6431127Y1226312D01*
X6424777Y1240332D01*
X6416802Y1253540D01*
X6407302Y1265631D01*
X6396431Y1276502D01*
X6384340Y1286002D01*
X6371132Y1293977D01*
X6357112Y1300327D01*
X6342430Y1304899D01*
X6327292Y1307642D01*
X6311900Y1308608D01*
X6296507Y1307642D01*
X6281369Y1304899D01*
X6266688Y1300327D01*
X6252667Y1293977D01*
X6239459Y1286002D01*
X6227368Y1276502D01*
X6216497Y1265631D01*
X6206998Y1253540D01*
X6199022Y1240332D01*
X6192672Y1226312D01*
X6188100Y1211630D01*
X6185357Y1196492D01*
X6184392Y1181100D01*
X6185357Y1165707D01*
X6188100Y1150569D01*
X6192672Y1135888D01*
X6199022Y1121867D01*
X6206998Y1108659D01*
X6216497Y1096568D01*
X6227368Y1085697D01*
X6239459Y1076198D01*
X6252667Y1068222D01*
X6266688Y1061872D01*
X6281369Y1057300D01*
X6296507Y1054557D01*
G37*
G36*
X2805836Y3345942D02*
G01*
X2815640Y3346805D01*
X2825140Y3349345D01*
X2834030Y3353511D01*
X2842056Y3359150D01*
X2849016Y3366109D01*
X2854655Y3374136D01*
X2858820Y3383026D01*
X2861360Y3392525D01*
X2862224Y3402329D01*
X2861360Y3412134D01*
X2858820Y3421634D01*
X2854655Y3430524D01*
X2849016Y3438550D01*
X2847441Y3440176D01*
X2845206Y3443478D01*
X2844444Y3447338D01*
X2844444Y4150868D01*
X2845308Y4154932D01*
X2847695Y4158335D01*
X2851251Y4160469D01*
X2857347Y4162602D01*
X2862275Y4165701D01*
X2866339Y4169765D01*
X2869438Y4174693D01*
X2871368Y4180128D01*
X2872079Y4186478D01*
X2872079Y4271721D01*
X2871368Y4278071D01*
X2869438Y4283506D01*
X2866339Y4288434D01*
X2862275Y4292498D01*
X2857347Y4295597D01*
X2851912Y4297476D01*
X2845562Y4298188D01*
X2766060Y4298188D01*
X2759760Y4297476D01*
X2754274Y4295597D01*
X2749397Y4292498D01*
X2745282Y4288434D01*
X2742234Y4283506D01*
X2740101Y4277461D01*
X2737967Y4273905D01*
X2734564Y4271467D01*
X2730500Y4270654D01*
X2726436Y4271467D01*
X2723032Y4273905D01*
X2720898Y4277461D01*
X2718765Y4283506D01*
X2715717Y4288434D01*
X2711602Y4292498D01*
X2706725Y4295597D01*
X2700578Y4297730D01*
X2697022Y4299864D01*
X2694635Y4303268D01*
X2693771Y4307332D01*
X2693771Y5184902D01*
X2692958Y5192928D01*
X2690774Y5200142D01*
X2687218Y5206847D01*
X2682087Y5213045D01*
X2137816Y5757367D01*
X2135784Y5760262D01*
X2134870Y5763666D01*
X2134158Y5771692D01*
X2131618Y5781192D01*
X2127453Y5790082D01*
X2121865Y5798159D01*
X2114905Y5805119D01*
X2106828Y5810707D01*
X2097938Y5814872D01*
X2088438Y5817412D01*
X2078685Y5818276D01*
X2068880Y5817412D01*
X2059381Y5814872D01*
X2050491Y5810707D01*
X2042414Y5805119D01*
X2035454Y5798159D01*
X2029866Y5790082D01*
X2025700Y5781192D01*
X2023160Y5771692D01*
X2022297Y5761888D01*
X2023160Y5752134D01*
X2025700Y5742635D01*
X2029866Y5733745D01*
X2035454Y5725668D01*
X2042414Y5718708D01*
X2050491Y5713120D01*
X2059381Y5708954D01*
X2068880Y5706414D01*
X2076907Y5705703D01*
X2080310Y5704789D01*
X2083206Y5702757D01*
X2613558Y5172405D01*
X2615793Y5169103D01*
X2616555Y5165191D01*
X2616555Y4307332D01*
X2615692Y4303268D01*
X2613304Y4299864D01*
X2609748Y4297730D01*
X2603652Y4295597D01*
X2598724Y4292498D01*
X2594660Y4288434D01*
X2591562Y4283506D01*
X2589631Y4278071D01*
X2588920Y4271721D01*
X2588920Y4186478D01*
X2589631Y4180128D01*
X2591562Y4174693D01*
X2594660Y4169765D01*
X2598724Y4165701D01*
X2603652Y4162602D01*
X2609088Y4160723D01*
X2615438Y4160012D01*
X2694940Y4160012D01*
X2701239Y4160723D01*
X2706725Y4162602D01*
X2711602Y4165701D01*
X2715717Y4169765D01*
X2718765Y4174693D01*
X2720898Y4180738D01*
X2723032Y4184294D01*
X2726436Y4186732D01*
X2730500Y4187545D01*
X2734564Y4186732D01*
X2737967Y4184294D01*
X2740101Y4180738D01*
X2742234Y4174693D01*
X2745282Y4169765D01*
X2749397Y4165701D01*
X2754274Y4162602D01*
X2760421Y4160469D01*
X2763977Y4158335D01*
X2766364Y4154932D01*
X2767228Y4150868D01*
X2767228Y3447338D01*
X2766466Y3443478D01*
X2764231Y3440176D01*
X2762656Y3438550D01*
X2757017Y3430524D01*
X2752852Y3421634D01*
X2750312Y3412134D01*
X2749448Y3402329D01*
X2750312Y3392525D01*
X2752852Y3383026D01*
X2757017Y3374136D01*
X2762656Y3366109D01*
X2769616Y3359150D01*
X2777642Y3353511D01*
X2786532Y3349345D01*
X2796032Y3346805D01*
G37*
G36*
X1206500Y4711192D02*
G01*
X1221892Y4712157D01*
X1237030Y4714900D01*
X1251712Y4719472D01*
X1265732Y4725822D01*
X1278940Y4733798D01*
X1291031Y4743297D01*
X1301902Y4754168D01*
X1311402Y4766259D01*
X1319377Y4779467D01*
X1325727Y4793488D01*
X1330299Y4808169D01*
X1333042Y4823307D01*
X1334008Y4838700D01*
X1333042Y4854092D01*
X1330299Y4869230D01*
X1325727Y4883912D01*
X1319377Y4897932D01*
X1311402Y4911140D01*
X1301902Y4923231D01*
X1291031Y4934102D01*
X1278940Y4943602D01*
X1265732Y4951577D01*
X1251712Y4957927D01*
X1237030Y4962499D01*
X1221892Y4965242D01*
X1206500Y4966208D01*
X1191107Y4965242D01*
X1175969Y4962499D01*
X1161288Y4957927D01*
X1147267Y4951577D01*
X1134059Y4943602D01*
X1121968Y4934102D01*
X1111097Y4923231D01*
X1101598Y4911140D01*
X1093622Y4897932D01*
X1087272Y4883912D01*
X1082700Y4869230D01*
X1079957Y4854092D01*
X1078992Y4838700D01*
X1079957Y4823307D01*
X1082700Y4808169D01*
X1087272Y4793488D01*
X1093622Y4779467D01*
X1101598Y4766259D01*
X1111097Y4754168D01*
X1121968Y4743297D01*
X1134059Y4733798D01*
X1147267Y4725822D01*
X1161288Y4719472D01*
X1175969Y4714900D01*
X1191107Y4712157D01*
G37*
G36*
X1644650Y6245504D02*
G01*
X1644650Y6292850D01*
X1597304Y6292850D01*
X1597964Y6291275D01*
X1604924Y6279540D01*
X1613408Y6268821D01*
X1623212Y6259322D01*
X1634185Y6251244D01*
G37*
G36*
X1898650Y6245504D02*
G01*
X1898650Y6292850D01*
X1851304Y6292850D01*
X1851964Y6291275D01*
X1858924Y6279540D01*
X1867407Y6268821D01*
X1877212Y6259322D01*
X1888185Y6251244D01*
G37*
G36*
X1136650Y6245504D02*
G01*
X1136650Y6292850D01*
X1089304Y6292850D01*
X1089964Y6291275D01*
X1096924Y6279540D01*
X1105408Y6268821D01*
X1115212Y6259322D01*
X1126185Y6251244D01*
G37*
G36*
X1390650Y6245504D02*
G01*
X1390650Y6292850D01*
X1343304Y6292850D01*
X1343964Y6291275D01*
X1350924Y6279540D01*
X1359408Y6268821D01*
X1369212Y6259322D01*
X1380185Y6251244D01*
G37*
G36*
X4451350Y6245504D02*
G01*
X4451350Y6292850D01*
X4404004Y6292850D01*
X4404664Y6291275D01*
X4411624Y6279540D01*
X4420108Y6268821D01*
X4429912Y6259322D01*
X4440885Y6251244D01*
G37*
G36*
X3435350Y6245504D02*
G01*
X3435350Y6292850D01*
X3388004Y6292850D01*
X3388664Y6291275D01*
X3395624Y6279540D01*
X3404108Y6268821D01*
X3413912Y6259322D01*
X3424885Y6251244D01*
G37*
G36*
X3689350Y6245504D02*
G01*
X3689350Y6292850D01*
X3642004Y6292850D01*
X3642664Y6291275D01*
X3649624Y6279540D01*
X3658108Y6268821D01*
X3667912Y6259322D01*
X3678885Y6251244D01*
G37*
G36*
X4705350Y6245504D02*
G01*
X4705350Y6292850D01*
X4658004Y6292850D01*
X4658664Y6291275D01*
X4665624Y6279540D01*
X4674108Y6268821D01*
X4683912Y6259322D01*
X4694885Y6251244D01*
G37*
G36*
X2406650Y6245504D02*
G01*
X2406650Y6292850D01*
X2359304Y6292850D01*
X2359964Y6291275D01*
X2366924Y6279540D01*
X2375408Y6268821D01*
X2385212Y6259322D01*
X2396185Y6251244D01*
G37*
G36*
X4197350Y6245504D02*
G01*
X4197350Y6292850D01*
X4150004Y6292850D01*
X4150664Y6291275D01*
X4157624Y6279540D01*
X4166108Y6268821D01*
X4175912Y6259322D01*
X4186885Y6251244D01*
G37*
G36*
X3181350Y6245504D02*
G01*
X3181350Y6292850D01*
X3134004Y6292850D01*
X3134664Y6291275D01*
X3141624Y6279540D01*
X3150108Y6268821D01*
X3159912Y6259322D01*
X3170885Y6251244D01*
G37*
G36*
X3943350Y6245504D02*
G01*
X3943350Y6292850D01*
X3896004Y6292850D01*
X3896664Y6291275D01*
X3903624Y6279540D01*
X3912108Y6268821D01*
X3921912Y6259322D01*
X3932885Y6251244D01*
G37*
G36*
X2927350Y6245504D02*
G01*
X2927350Y6292850D01*
X2880004Y6292850D01*
X2880664Y6291275D01*
X2887624Y6279540D01*
X2896108Y6268821D01*
X2905912Y6259322D01*
X2916885Y6251244D01*
G37*
G36*
X2152650Y6245504D02*
G01*
X2152650Y6292850D01*
X2105304Y6292850D01*
X2105964Y6291275D01*
X2112924Y6279540D01*
X2121408Y6268821D01*
X2131212Y6259322D01*
X2142185Y6251244D01*
G37*
G36*
X1987550Y6245656D02*
G01*
X1992172Y6247790D01*
X2003653Y6255105D01*
X2014067Y6263894D01*
X2023211Y6274054D01*
X2030933Y6285280D01*
X2034743Y6292850D01*
X1987550Y6292850D01*
G37*
G36*
X3524250Y6245656D02*
G01*
X3528872Y6247790D01*
X3540353Y6255105D01*
X3550767Y6263894D01*
X3559911Y6274054D01*
X3567633Y6285280D01*
X3571443Y6292850D01*
X3524250Y6292850D01*
G37*
G36*
X4286250Y6245656D02*
G01*
X4290872Y6247790D01*
X4302353Y6255105D01*
X4312767Y6263894D01*
X4321911Y6274054D01*
X4329633Y6285280D01*
X4333443Y6292850D01*
X4286250Y6292850D01*
G37*
G36*
X2241550Y6245656D02*
G01*
X2246172Y6247790D01*
X2257653Y6255105D01*
X2268067Y6263894D01*
X2277211Y6274054D01*
X2284933Y6285280D01*
X2288743Y6292850D01*
X2241550Y6292850D01*
G37*
G36*
X3778250Y6245656D02*
G01*
X3782872Y6247790D01*
X3794353Y6255105D01*
X3804767Y6263894D01*
X3813911Y6274054D01*
X3821633Y6285280D01*
X3825443Y6292850D01*
X3778250Y6292850D01*
G37*
G36*
X3270250Y6245656D02*
G01*
X3274872Y6247790D01*
X3286353Y6255105D01*
X3296767Y6263894D01*
X3305911Y6274054D01*
X3313633Y6285280D01*
X3317443Y6292850D01*
X3270250Y6292850D01*
G37*
G36*
X4540250Y6245656D02*
G01*
X4544872Y6247790D01*
X4556353Y6255105D01*
X4566767Y6263894D01*
X4575911Y6274054D01*
X4583633Y6285280D01*
X4587443Y6292850D01*
X4540250Y6292850D01*
G37*
G36*
X2495550Y6245656D02*
G01*
X2500172Y6247790D01*
X2511653Y6255105D01*
X2522067Y6263894D01*
X2531211Y6274054D01*
X2538933Y6285280D01*
X2542743Y6292850D01*
X2495550Y6292850D01*
G37*
G36*
X4032250Y6245656D02*
G01*
X4036872Y6247790D01*
X4048353Y6255105D01*
X4058767Y6263894D01*
X4067911Y6274054D01*
X4075633Y6285280D01*
X4079443Y6292850D01*
X4032250Y6292850D01*
G37*
G36*
X4794250Y6245656D02*
G01*
X4798872Y6247790D01*
X4810353Y6255105D01*
X4820767Y6263894D01*
X4829911Y6274054D01*
X4837633Y6285280D01*
X4841443Y6292850D01*
X4794250Y6292850D01*
G37*
G36*
X3016250Y6245656D02*
G01*
X3020872Y6247790D01*
X3032353Y6255105D01*
X3042767Y6263894D01*
X3051911Y6274054D01*
X3059633Y6285280D01*
X3063443Y6292850D01*
X3016250Y6292850D01*
G37*
G36*
X1733550Y6245656D02*
G01*
X1738172Y6247790D01*
X1749653Y6255105D01*
X1760067Y6263894D01*
X1769211Y6274054D01*
X1776933Y6285280D01*
X1780743Y6292850D01*
X1733550Y6292850D01*
G37*
G36*
X1225550Y6245656D02*
G01*
X1230172Y6247790D01*
X1241653Y6255105D01*
X1252067Y6263894D01*
X1261211Y6274054D01*
X1268933Y6285280D01*
X1272743Y6292850D01*
X1225550Y6292850D01*
G37*
G36*
X1479550Y6245656D02*
G01*
X1484172Y6247790D01*
X1495653Y6255105D01*
X1506067Y6263894D01*
X1515211Y6274054D01*
X1522933Y6285280D01*
X1526743Y6292850D01*
X1479550Y6292850D01*
G37*
G36*
X3016250Y6381750D02*
G01*
X3063443Y6381750D01*
X3059633Y6389319D01*
X3051911Y6400546D01*
X3042767Y6410706D01*
X3032353Y6419494D01*
X3020872Y6426809D01*
X3016250Y6428943D01*
G37*
G36*
X3270250Y6381750D02*
G01*
X3317443Y6381750D01*
X3313633Y6389319D01*
X3305911Y6400546D01*
X3296767Y6410706D01*
X3286353Y6419494D01*
X3274872Y6426809D01*
X3270250Y6428943D01*
G37*
G36*
X2495550Y6381750D02*
G01*
X2542743Y6381750D01*
X2538933Y6389319D01*
X2531211Y6400546D01*
X2522067Y6410706D01*
X2511653Y6419494D01*
X2500172Y6426809D01*
X2495550Y6428943D01*
G37*
G36*
X3524250Y6381750D02*
G01*
X3571443Y6381750D01*
X3567633Y6389319D01*
X3559911Y6400546D01*
X3550767Y6410706D01*
X3540353Y6419494D01*
X3528872Y6426809D01*
X3524250Y6428943D01*
G37*
G36*
X4540250Y6381750D02*
G01*
X4587443Y6381750D01*
X4583633Y6389319D01*
X4575911Y6400546D01*
X4566767Y6410706D01*
X4556353Y6419494D01*
X4544872Y6426809D01*
X4540250Y6428943D01*
G37*
G36*
X2241550Y6381750D02*
G01*
X2288743Y6381750D01*
X2284933Y6389319D01*
X2277211Y6400546D01*
X2268067Y6410706D01*
X2257653Y6419494D01*
X2246172Y6426809D01*
X2241550Y6428943D01*
G37*
G36*
X4286250Y6381750D02*
G01*
X4333443Y6381750D01*
X4329633Y6389319D01*
X4321911Y6400546D01*
X4312767Y6410706D01*
X4302353Y6419494D01*
X4290872Y6426809D01*
X4286250Y6428943D01*
G37*
G36*
X3778250Y6381750D02*
G01*
X3825443Y6381750D01*
X3821633Y6389319D01*
X3813911Y6400546D01*
X3804767Y6410706D01*
X3794353Y6419494D01*
X3782872Y6426809D01*
X3778250Y6428943D01*
G37*
G36*
X1987550Y6381750D02*
G01*
X2034743Y6381750D01*
X2030933Y6389319D01*
X2023211Y6400546D01*
X2014067Y6410706D01*
X2003653Y6419494D01*
X1992172Y6426809D01*
X1987550Y6428943D01*
G37*
G36*
X4794250Y6381750D02*
G01*
X4841443Y6381750D01*
X4837633Y6389319D01*
X4829911Y6400546D01*
X4820767Y6410706D01*
X4810353Y6419494D01*
X4798872Y6426809D01*
X4794250Y6428943D01*
G37*
G36*
X4032250Y6381750D02*
G01*
X4079443Y6381750D01*
X4075633Y6389319D01*
X4067911Y6400546D01*
X4058767Y6410706D01*
X4048353Y6419494D01*
X4036872Y6426809D01*
X4032250Y6428943D01*
G37*
G36*
X1479550Y6381750D02*
G01*
X1526743Y6381750D01*
X1522933Y6389319D01*
X1515211Y6400546D01*
X1506067Y6410706D01*
X1495653Y6419494D01*
X1484172Y6426809D01*
X1479550Y6428943D01*
G37*
G36*
X1733550Y6381750D02*
G01*
X1780743Y6381750D01*
X1776933Y6389319D01*
X1769211Y6400546D01*
X1760067Y6410706D01*
X1749653Y6419494D01*
X1738172Y6426809D01*
X1733550Y6428943D01*
G37*
G36*
X1225550Y6381750D02*
G01*
X1272743Y6381750D01*
X1268933Y6389319D01*
X1261211Y6400546D01*
X1252067Y6410706D01*
X1241653Y6419494D01*
X1230172Y6426809D01*
X1225550Y6428943D01*
G37*
G36*
X1851304Y6381750D02*
G01*
X1898650Y6381750D01*
X1898650Y6429095D01*
X1888185Y6423355D01*
X1877212Y6415278D01*
X1867407Y6405778D01*
X1858924Y6395059D01*
X1851964Y6383324D01*
G37*
G36*
X1597304Y6381750D02*
G01*
X1644650Y6381750D01*
X1644650Y6429095D01*
X1634185Y6423355D01*
X1623212Y6415278D01*
X1613408Y6405778D01*
X1604924Y6395059D01*
X1597964Y6383324D01*
G37*
G36*
X1343304Y6381750D02*
G01*
X1390650Y6381750D01*
X1390650Y6429095D01*
X1380185Y6423355D01*
X1369212Y6415278D01*
X1359408Y6405778D01*
X1350924Y6395059D01*
X1343964Y6383324D01*
G37*
G36*
X1089304Y6381750D02*
G01*
X1136650Y6381750D01*
X1136650Y6429095D01*
X1126185Y6423355D01*
X1115212Y6415278D01*
X1105408Y6405778D01*
X1096924Y6395059D01*
X1089964Y6383324D01*
G37*
G36*
X2105304Y6381750D02*
G01*
X2152650Y6381750D01*
X2152650Y6429095D01*
X2142185Y6423355D01*
X2131212Y6415278D01*
X2121408Y6405778D01*
X2112924Y6395059D01*
X2105964Y6383324D01*
G37*
G36*
X3896004Y6381750D02*
G01*
X3943350Y6381750D01*
X3943350Y6429095D01*
X3932885Y6423355D01*
X3921912Y6415278D01*
X3912108Y6405778D01*
X3903624Y6395059D01*
X3896664Y6383324D01*
G37*
G36*
X3642004Y6381750D02*
G01*
X3689350Y6381750D01*
X3689350Y6429095D01*
X3678885Y6423355D01*
X3667912Y6415278D01*
X3658108Y6405778D01*
X3649624Y6395059D01*
X3642664Y6383324D01*
G37*
G36*
X4150004Y6381750D02*
G01*
X4197350Y6381750D01*
X4197350Y6429095D01*
X4186885Y6423355D01*
X4175912Y6415278D01*
X4166108Y6405778D01*
X4157624Y6395059D01*
X4150664Y6383324D01*
G37*
G36*
X2359304Y6381750D02*
G01*
X2406650Y6381750D01*
X2406650Y6429095D01*
X2396185Y6423355D01*
X2385212Y6415278D01*
X2375408Y6405778D01*
X2366924Y6395059D01*
X2359964Y6383324D01*
G37*
G36*
X4658004Y6381750D02*
G01*
X4705350Y6381750D01*
X4705350Y6429095D01*
X4694885Y6423355D01*
X4683912Y6415278D01*
X4674108Y6405778D01*
X4665624Y6395059D01*
X4658664Y6383324D01*
G37*
G36*
X3388004Y6381750D02*
G01*
X3435350Y6381750D01*
X3435350Y6429095D01*
X3424885Y6423355D01*
X3413912Y6415278D01*
X3404108Y6405778D01*
X3395624Y6395059D01*
X3388664Y6383324D01*
G37*
G36*
X4404004Y6381750D02*
G01*
X4451350Y6381750D01*
X4451350Y6429095D01*
X4440885Y6423355D01*
X4429912Y6415278D01*
X4420108Y6405778D01*
X4411624Y6395059D01*
X4404664Y6383324D01*
G37*
G36*
X2880004Y6381750D02*
G01*
X2927350Y6381750D01*
X2927350Y6429095D01*
X2916885Y6423355D01*
X2905912Y6415278D01*
X2896108Y6405778D01*
X2887624Y6395059D01*
X2880664Y6383324D01*
G37*
G36*
X3134004Y6381750D02*
G01*
X3181350Y6381750D01*
X3181350Y6429095D01*
X3170885Y6423355D01*
X3159912Y6415278D01*
X3150108Y6405778D01*
X3141624Y6395059D01*
X3134664Y6383324D01*
G37*
G36*
X2397404Y1555750D02*
G01*
X2444750Y1555750D01*
X2444750Y1603095D01*
X2434285Y1597355D01*
X2423312Y1589278D01*
X2413508Y1579778D01*
X2405024Y1569059D01*
X2398064Y1557324D01*
G37*

%LPD*%
D10*
X2805836Y4229100D02*
G01*
X2805836Y3402329D01*
X1435100Y6337300D02*
G01*
X1181100Y6337300D01*
X5118963Y3124200D02*
G01*
X5118963Y4315155D01*
X2655163Y4229100D02*
G01*
X2655163Y5185410D01*
X2078659Y5761913D01*
X2667863Y3225800D02*
G01*
X2599639Y3225800D01*
X2599639Y3225800D02*
G01*
X2599639Y1875739D01*
X2235200Y1511300D01*
X2818536Y3225800D02*
G01*
X2750286Y3225800D01*
X2750286Y3225800D02*
G01*
X2750286Y3294049D01*
X2668422Y3375913D01*
X2668422Y3502355D01*
X5269636Y3124200D02*
G01*
X5269636Y1586636D01*
X5181600Y1498600D01*
G36*
X2778201Y3182599D02*
G01*
X2778201Y3269000D01*
X2858848Y3269000D01*
X2858848Y3182599D01*
G37*
G36*
X2708198Y3182599D02*
G01*
X2708198Y3269000D01*
X2627551Y3269000D01*
X2627551Y3182599D01*
G37*
G36*
X2765501Y4185899D02*
G01*
X2765501Y4272300D01*
X2846148Y4272300D01*
X2846148Y4185899D01*
G37*
G36*
X2695498Y4185899D02*
G01*
X2695498Y4272300D01*
X2614851Y4272300D01*
X2614851Y4185899D01*
G37*
G36*
X5229301Y3080999D02*
G01*
X5229301Y3167400D01*
X5309948Y3167400D01*
X5309948Y3080999D01*
G37*
G36*
X5159298Y3080999D02*
G01*
X5159298Y3167400D01*
X5078651Y3167400D01*
X5078651Y3080999D01*
G37*
D13*
G01*
X1181100Y6337300D03*
G01*
X1435100Y6337300D03*
G01*
X1689100Y6337300D03*
G01*
X1943100Y6337300D03*
G01*
X2197100Y6337300D03*
G01*
X2451100Y6337300D03*
G01*
X1219200Y1511300D03*
G01*
X1473200Y1511300D03*
G01*
X1727200Y1511300D03*
G01*
X1981200Y1511300D03*
G01*
X2235200Y1511300D03*
G01*
X2489200Y1511300D03*
G01*
X2743200Y1511300D03*
G01*
X2997200Y1511300D03*
G01*
X2971800Y6337300D03*
G01*
X3225800Y6337300D03*
G01*
X3479800Y6337300D03*
G01*
X3733800Y6337300D03*
G01*
X3987800Y6337300D03*
G01*
X4241800Y6337300D03*
G01*
X4495800Y6337300D03*
G01*
X4749800Y6337300D03*
G01*
X3403600Y1498600D03*
G01*
X3657600Y1498600D03*
G01*
X3911600Y1498600D03*
G01*
X4165600Y1498600D03*
G01*
X4419600Y1498600D03*
G01*
X4673600Y1498600D03*
G01*
X4927600Y1498600D03*
G01*
X5181600Y1498600D03*
G01*
X5435600Y1498600D03*
G01*
X5689600Y1498600D03*
D11*
G01*
X2805836Y3402329D03*
G01*
X5118963Y4315155D03*
G01*
X2078659Y5761913D03*
G01*
X2668422Y3502355D03*
M02*
