G04 Layer: BottomPasteMaskLayer*
G04 EasyEDA v6.5.5, 2022-05-22 00:28:19*
G04 37d94133e9fb4008a465715c89777dd1,10*
G04 Gerber Generator version 0.2*
G04 Scale: 100 percent, Rotated: No, Reflected: No *
G04 Dimensions in millimeters *
G04 leading zeros omitted , absolute positions ,4 integer and 5 decimal *
%FSLAX45Y45*%
%MOMM*%

%ADD10C,0.0001*%

%LPD*%
G36*
X2249792Y5253997D02*
G01*
X2169792Y5253997D01*
X2169792Y4933998D01*
X2249792Y4933998D01*
G37*
G36*
X2249792Y5733994D02*
G01*
X2169792Y5733994D01*
X2169792Y5413994D01*
X2249792Y5413994D01*
G37*
G36*
X1995792Y5253997D02*
G01*
X1915792Y5253997D01*
X1915792Y4933998D01*
X1995792Y4933998D01*
G37*
G36*
X1995792Y5733994D02*
G01*
X1915792Y5733994D01*
X1915792Y5413994D01*
X1995792Y5413994D01*
G37*
G36*
X1741792Y5253997D02*
G01*
X1661792Y5253997D01*
X1661792Y4933998D01*
X1741792Y4933998D01*
G37*
G36*
X1741792Y5733994D02*
G01*
X1661792Y5733994D01*
X1661792Y5413994D01*
X1741792Y5413994D01*
G37*
G36*
X1487792Y5253997D02*
G01*
X1407792Y5253997D01*
X1407792Y4933998D01*
X1487792Y4933998D01*
G37*
G36*
X1487792Y5733994D02*
G01*
X1407792Y5733994D01*
X1407792Y5413994D01*
X1487792Y5413994D01*
G37*
G36*
X2262492Y3374397D02*
G01*
X2182492Y3374397D01*
X2182492Y3054398D01*
X2262492Y3054398D01*
G37*
G36*
X2262492Y3854394D02*
G01*
X2182492Y3854394D01*
X2182492Y3534394D01*
X2262492Y3534394D01*
G37*
G36*
X2008492Y3374397D02*
G01*
X1928492Y3374397D01*
X1928492Y3054398D01*
X2008492Y3054398D01*
G37*
G36*
X2008492Y3854394D02*
G01*
X1928492Y3854394D01*
X1928492Y3534394D01*
X2008492Y3534394D01*
G37*
G36*
X1754492Y3374397D02*
G01*
X1674492Y3374397D01*
X1674492Y3054398D01*
X1754492Y3054398D01*
G37*
G36*
X1754492Y3854394D02*
G01*
X1674492Y3854394D01*
X1674492Y3534394D01*
X1754492Y3534394D01*
G37*
G36*
X1500492Y3374397D02*
G01*
X1420492Y3374397D01*
X1420492Y3054398D01*
X1500492Y3054398D01*
G37*
G36*
X1500492Y3854394D02*
G01*
X1420492Y3854394D01*
X1420492Y3534394D01*
X1500492Y3534394D01*
G37*
M02*
