G04 Layer: TopSilkscreenLayer*
G04 EasyEDA v6.5.5, 2022-05-22 00:28:19*
G04 37d94133e9fb4008a465715c89777dd1,10*
G04 Gerber Generator version 0.2*
G04 Scale: 100 percent, Rotated: No, Reflected: No *
G04 Dimensions in millimeters *
G04 leading zeros omitted , absolute positions ,4 integer and 5 decimal *
%FSLAX45Y45*%
%MOMM*%

%ADD10C,0.2540*%
%ADD15C,0.1524*%

%LPD*%
D15*
X1816100Y6605015D02*
G01*
X1816100Y6527037D01*
X1821179Y6511544D01*
X1831594Y6501129D01*
X1847342Y6496050D01*
X1857755Y6496050D01*
X1873250Y6501129D01*
X1883663Y6511544D01*
X1888744Y6527037D01*
X1888744Y6605015D01*
X1923034Y6584187D02*
G01*
X1933447Y6589521D01*
X1949195Y6605015D01*
X1949195Y6496050D01*
X2108200Y1779015D02*
G01*
X2108200Y1701037D01*
X2113279Y1685544D01*
X2123693Y1675129D01*
X2139441Y1670050D01*
X2149856Y1670050D01*
X2165350Y1675129D01*
X2175763Y1685544D01*
X2180843Y1701037D01*
X2180843Y1779015D01*
X2220468Y1753107D02*
G01*
X2220468Y1758187D01*
X2225547Y1768602D01*
X2230881Y1773936D01*
X2241295Y1779015D01*
X2261870Y1779015D01*
X2272284Y1773936D01*
X2277618Y1768602D01*
X2282697Y1758187D01*
X2282697Y1747773D01*
X2277618Y1737360D01*
X2267204Y1721865D01*
X2215134Y1670050D01*
X2288031Y1670050D01*
X3860800Y6605015D02*
G01*
X3860800Y6527037D01*
X3865879Y6511544D01*
X3876293Y6501129D01*
X3892041Y6496050D01*
X3902456Y6496050D01*
X3917950Y6501129D01*
X3928363Y6511544D01*
X3933443Y6527037D01*
X3933443Y6605015D01*
X3978147Y6605015D02*
G01*
X4035297Y6605015D01*
X4004309Y6563360D01*
X4019804Y6563360D01*
X4030218Y6558279D01*
X4035297Y6553200D01*
X4040631Y6537452D01*
X4040631Y6527037D01*
X4035297Y6511544D01*
X4024884Y6501129D01*
X4009390Y6496050D01*
X3993895Y6496050D01*
X3978147Y6501129D01*
X3973068Y6506210D01*
X3967734Y6516623D01*
X4521200Y1766315D02*
G01*
X4521200Y1688337D01*
X4526279Y1672844D01*
X4536693Y1662429D01*
X4552441Y1657350D01*
X4562856Y1657350D01*
X4578350Y1662429D01*
X4588763Y1672844D01*
X4593843Y1688337D01*
X4593843Y1766315D01*
X4680204Y1766315D02*
G01*
X4628134Y1693671D01*
X4706111Y1693671D01*
X4680204Y1766315D02*
G01*
X4680204Y1657350D01*
X2743200Y3442715D02*
G01*
X2743200Y3333750D01*
X2743200Y3442715D02*
G01*
X2789936Y3442715D01*
X2805429Y3437636D01*
X2810763Y3432302D01*
X2815843Y3421887D01*
X2815843Y3411473D01*
X2810763Y3401060D01*
X2805429Y3395979D01*
X2789936Y3390900D01*
X2743200Y3390900D01*
X2779522Y3390900D02*
G01*
X2815843Y3333750D01*
X2850134Y3421887D02*
G01*
X2860547Y3427221D01*
X2876295Y3442715D01*
X2876295Y3333750D01*
X2730500Y4446015D02*
G01*
X2730500Y4337050D01*
X2730500Y4446015D02*
G01*
X2777236Y4446015D01*
X2792729Y4440936D01*
X2798063Y4435602D01*
X2803143Y4425187D01*
X2803143Y4414773D01*
X2798063Y4404360D01*
X2792729Y4399279D01*
X2777236Y4394200D01*
X2730500Y4394200D01*
X2766822Y4394200D02*
G01*
X2803143Y4337050D01*
X2842768Y4420107D02*
G01*
X2842768Y4425187D01*
X2847847Y4435602D01*
X2853181Y4440936D01*
X2863595Y4446015D01*
X2884170Y4446015D01*
X2894584Y4440936D01*
X2899918Y4435602D01*
X2904997Y4425187D01*
X2904997Y4414773D01*
X2899918Y4404360D01*
X2889504Y4388865D01*
X2837434Y4337050D01*
X2910331Y4337050D01*
X5194300Y3341115D02*
G01*
X5194300Y3232150D01*
X5194300Y3341115D02*
G01*
X5241036Y3341115D01*
X5256529Y3336036D01*
X5261863Y3330702D01*
X5266943Y3320287D01*
X5266943Y3309873D01*
X5261863Y3299460D01*
X5256529Y3294379D01*
X5241036Y3289300D01*
X5194300Y3289300D01*
X5230622Y3289300D02*
G01*
X5266943Y3232150D01*
X5311647Y3341115D02*
G01*
X5368797Y3341115D01*
X5337809Y3299460D01*
X5353304Y3299460D01*
X5363718Y3294379D01*
X5368797Y3289300D01*
X5374131Y3273552D01*
X5374131Y3263137D01*
X5368797Y3247644D01*
X5358384Y3237229D01*
X5342890Y3232150D01*
X5327395Y3232150D01*
X5311647Y3237229D01*
X5306568Y3242310D01*
X5301234Y3252723D01*
D10*
X1816100Y6273800D02*
G01*
X1752600Y6210300D01*
X1625600Y6210300D01*
X1562100Y6273800D01*
X1562100Y6400800D02*
G01*
X1498600Y6464300D01*
X1371600Y6464300D01*
X1308100Y6400800D01*
X1562100Y6273800D02*
G01*
X1498600Y6210300D01*
X1371600Y6210300D01*
X1308100Y6273800D01*
X2578100Y6400800D02*
G01*
X2578100Y6273800D01*
X1308100Y6400800D02*
G01*
X1244600Y6464300D01*
X1117600Y6464300D01*
X1054100Y6400800D01*
X1308100Y6273800D02*
G01*
X1244600Y6210300D01*
X1117600Y6210300D01*
X1054100Y6273800D01*
X1054100Y6400800D02*
G01*
X1054100Y6273800D01*
X1816100Y6400800D02*
G01*
X1752600Y6464300D01*
X1625600Y6464300D01*
X1562100Y6400800D01*
X2070100Y6400800D02*
G01*
X2006600Y6464300D01*
X1879600Y6464300D01*
X1816100Y6400800D01*
X2070100Y6273800D02*
G01*
X2006600Y6210300D01*
X1879600Y6210300D01*
X1816100Y6273800D01*
X2324100Y6400800D02*
G01*
X2260600Y6464300D01*
X2133600Y6464300D01*
X2070100Y6400800D01*
X2324100Y6273800D02*
G01*
X2260600Y6210300D01*
X2133600Y6210300D01*
X2070100Y6273800D01*
X2578100Y6400800D02*
G01*
X2514600Y6464300D01*
X2387600Y6464300D01*
X2324100Y6400800D01*
X2578100Y6273800D02*
G01*
X2514600Y6210300D01*
X2387600Y6210300D01*
X2324100Y6273800D01*
X1854200Y1447800D02*
G01*
X1790700Y1384300D01*
X1663700Y1384300D01*
X1600200Y1447800D01*
X1600200Y1574800D02*
G01*
X1536700Y1638300D01*
X1409700Y1638300D01*
X1346200Y1574800D01*
X1600200Y1447800D02*
G01*
X1536700Y1384300D01*
X1409700Y1384300D01*
X1346200Y1447800D01*
X3124200Y1574800D02*
G01*
X3124200Y1447800D01*
X1346200Y1574800D02*
G01*
X1282700Y1638300D01*
X1155700Y1638300D01*
X1092200Y1574800D01*
X1346200Y1447800D02*
G01*
X1282700Y1384300D01*
X1155700Y1384300D01*
X1092200Y1447800D01*
X1092200Y1574800D02*
G01*
X1092200Y1447800D01*
X1854200Y1574800D02*
G01*
X1790700Y1638300D01*
X1663700Y1638300D01*
X1600200Y1574800D01*
X2108200Y1574800D02*
G01*
X2044700Y1638300D01*
X1917700Y1638300D01*
X1854200Y1574800D01*
X2108200Y1447800D02*
G01*
X2044700Y1384300D01*
X1917700Y1384300D01*
X1854200Y1447800D01*
X2362200Y1574800D02*
G01*
X2298700Y1638300D01*
X2171700Y1638300D01*
X2108200Y1574800D01*
X2362200Y1447800D02*
G01*
X2298700Y1384300D01*
X2171700Y1384300D01*
X2108200Y1447800D01*
X2616200Y1574800D02*
G01*
X2552700Y1638300D01*
X2425700Y1638300D01*
X2362200Y1574800D01*
X2616200Y1447800D02*
G01*
X2552700Y1384300D01*
X2425700Y1384300D01*
X2362200Y1447800D01*
X2870200Y1574800D02*
G01*
X2806700Y1638300D01*
X2679700Y1638300D01*
X2616200Y1574800D01*
X3124200Y1574800D02*
G01*
X3060700Y1638300D01*
X2933700Y1638300D01*
X2870200Y1574800D01*
X2870200Y1447800D02*
G01*
X2806700Y1384300D01*
X2679700Y1384300D01*
X2616200Y1447800D01*
X3124200Y1447800D02*
G01*
X3060700Y1384300D01*
X2933700Y1384300D01*
X2870200Y1447800D01*
X3606800Y6273800D02*
G01*
X3543300Y6210300D01*
X3416300Y6210300D01*
X3352800Y6273800D01*
X3352800Y6400800D02*
G01*
X3289300Y6464300D01*
X3162300Y6464300D01*
X3098800Y6400800D01*
X3352800Y6273800D02*
G01*
X3289300Y6210300D01*
X3162300Y6210300D01*
X3098800Y6273800D01*
X4876800Y6400800D02*
G01*
X4876800Y6273800D01*
X3098800Y6400800D02*
G01*
X3035300Y6464300D01*
X2908300Y6464300D01*
X2844800Y6400800D01*
X3098800Y6273800D02*
G01*
X3035300Y6210300D01*
X2908300Y6210300D01*
X2844800Y6273800D01*
X2844800Y6400800D02*
G01*
X2844800Y6273800D01*
X3606800Y6400800D02*
G01*
X3543300Y6464300D01*
X3416300Y6464300D01*
X3352800Y6400800D01*
X3860800Y6400800D02*
G01*
X3797300Y6464300D01*
X3670300Y6464300D01*
X3606800Y6400800D01*
X3860800Y6273800D02*
G01*
X3797300Y6210300D01*
X3670300Y6210300D01*
X3606800Y6273800D01*
X4114800Y6400800D02*
G01*
X4051300Y6464300D01*
X3924300Y6464300D01*
X3860800Y6400800D01*
X4114800Y6273800D02*
G01*
X4051300Y6210300D01*
X3924300Y6210300D01*
X3860800Y6273800D01*
X4368800Y6400800D02*
G01*
X4305300Y6464300D01*
X4178300Y6464300D01*
X4114800Y6400800D01*
X4368800Y6273800D02*
G01*
X4305300Y6210300D01*
X4178300Y6210300D01*
X4114800Y6273800D01*
X4622800Y6400800D02*
G01*
X4559300Y6464300D01*
X4432300Y6464300D01*
X4368800Y6400800D01*
X4876800Y6400800D02*
G01*
X4813300Y6464300D01*
X4686300Y6464300D01*
X4622800Y6400800D01*
X4622800Y6273800D02*
G01*
X4559300Y6210300D01*
X4432300Y6210300D01*
X4368800Y6273800D01*
X4876800Y6273800D02*
G01*
X4813300Y6210300D01*
X4686300Y6210300D01*
X4622800Y6273800D01*
X5562597Y1435100D02*
G01*
X5499097Y1371600D01*
X5372097Y1371600D01*
X5308597Y1435100D01*
X5308600Y1435100D02*
G01*
X5245100Y1371600D01*
X5118100Y1371600D01*
X5054600Y1435100D01*
X5816597Y1562100D02*
G01*
X5753097Y1625600D01*
X5626097Y1625600D01*
X5562597Y1562100D01*
X5562597Y1562100D02*
G01*
X5499097Y1625600D01*
X5372097Y1625600D01*
X5308597Y1562100D01*
X5308600Y1562100D02*
G01*
X5245100Y1625600D01*
X5118100Y1625600D01*
X5054600Y1562100D01*
X5816597Y1562100D02*
G01*
X5816597Y1435100D01*
X4038600Y1435100D02*
G01*
X3975100Y1371600D01*
X3848100Y1371600D01*
X3784600Y1435100D01*
X3784600Y1562100D02*
G01*
X3721100Y1625600D01*
X3594100Y1625600D01*
X3530600Y1562100D01*
X3784600Y1435100D02*
G01*
X3721100Y1371600D01*
X3594100Y1371600D01*
X3530600Y1435100D01*
X3530600Y1562100D02*
G01*
X3467100Y1625600D01*
X3340100Y1625600D01*
X3276600Y1562100D01*
X3530600Y1435100D02*
G01*
X3467100Y1371600D01*
X3340100Y1371600D01*
X3276600Y1435100D01*
X3276600Y1562100D02*
G01*
X3276600Y1435100D01*
X4038600Y1562100D02*
G01*
X3975100Y1625600D01*
X3848100Y1625600D01*
X3784600Y1562100D01*
X4292600Y1562100D02*
G01*
X4229100Y1625600D01*
X4102100Y1625600D01*
X4038600Y1562100D01*
X4292600Y1435100D02*
G01*
X4229100Y1371600D01*
X4102100Y1371600D01*
X4038600Y1435100D01*
X4546600Y1562100D02*
G01*
X4483100Y1625600D01*
X4356100Y1625600D01*
X4292600Y1562100D01*
X4546600Y1435100D02*
G01*
X4483100Y1371600D01*
X4356100Y1371600D01*
X4292600Y1435100D01*
X4800600Y1562100D02*
G01*
X4737100Y1625600D01*
X4610100Y1625600D01*
X4546600Y1562100D01*
X4800600Y1435100D02*
G01*
X4737100Y1371600D01*
X4610100Y1371600D01*
X4546600Y1435100D01*
X5054600Y1562100D02*
G01*
X4991100Y1625600D01*
X4864100Y1625600D01*
X4800600Y1562100D01*
X5054600Y1435100D02*
G01*
X4991100Y1371600D01*
X4864100Y1371600D01*
X4800600Y1435100D01*
X5816597Y1435100D02*
G01*
X5753097Y1371600D01*
X5626097Y1371600D01*
X5562597Y1435100D01*
D15*
X2785821Y3159739D02*
G01*
X2881708Y3159739D01*
X2881708Y3291860D01*
X2785821Y3291860D01*
X2700578Y3159739D02*
G01*
X2604691Y3159739D01*
X2604691Y3291860D01*
X2700578Y3291860D01*
X2773121Y4163039D02*
G01*
X2869008Y4163039D01*
X2869008Y4295160D01*
X2773121Y4295160D01*
X2687878Y4163039D02*
G01*
X2591991Y4163039D01*
X2591991Y4295160D01*
X2687878Y4295160D01*
X5236921Y3058139D02*
G01*
X5332808Y3058139D01*
X5332808Y3190260D01*
X5236921Y3190260D01*
X5151678Y3058139D02*
G01*
X5055791Y3058139D01*
X5055791Y3190260D01*
X5151678Y3190260D01*
M02*
