G04 Layer: TopPasteMaskLayer*
G04 EasyEDA v6.5.5, 2022-05-22 00:28:19*
G04 37d94133e9fb4008a465715c89777dd1,10*
G04 Gerber Generator version 0.2*
G04 Scale: 100 percent, Rotated: No, Reflected: No *
G04 Dimensions in millimeters *
G04 leading zeros omitted , absolute positions ,4 integer and 5 decimal *
%FSLAX45Y45*%
%MOMM*%

%ADD10C,0.0001*%

%LPD*%
G36*
X2782722Y3270808D02*
G01*
X2777693Y3265779D01*
X2777693Y3243021D01*
X2814675Y3243021D01*
X2814675Y3210001D01*
X2777693Y3210001D01*
X2777693Y3185820D01*
X2782722Y3180791D01*
X2862681Y3180791D01*
X2867710Y3185820D01*
X2867710Y3265779D01*
X2862681Y3270808D01*
G37*
G36*
X2623718Y3270808D02*
G01*
X2618689Y3265779D01*
X2618689Y3185820D01*
X2623718Y3180791D01*
X2702712Y3180791D01*
X2707690Y3185820D01*
X2707690Y3210001D01*
X2669692Y3210001D01*
X2669692Y3243021D01*
X2707690Y3243021D01*
X2707690Y3265779D01*
X2702712Y3270808D01*
G37*
G36*
X2770022Y4274108D02*
G01*
X2764993Y4269079D01*
X2764993Y4246321D01*
X2801975Y4246321D01*
X2801975Y4213301D01*
X2764993Y4213301D01*
X2764993Y4189120D01*
X2770022Y4184091D01*
X2849981Y4184091D01*
X2855010Y4189120D01*
X2855010Y4269079D01*
X2849981Y4274108D01*
G37*
G36*
X2611018Y4274108D02*
G01*
X2605989Y4269079D01*
X2605989Y4189120D01*
X2611018Y4184091D01*
X2690012Y4184091D01*
X2694990Y4189120D01*
X2694990Y4213301D01*
X2656992Y4213301D01*
X2656992Y4246321D01*
X2694990Y4246321D01*
X2694990Y4269079D01*
X2690012Y4274108D01*
G37*
G36*
X5233822Y3169208D02*
G01*
X5228793Y3164179D01*
X5228793Y3141421D01*
X5265775Y3141421D01*
X5265775Y3108401D01*
X5228793Y3108401D01*
X5228793Y3084220D01*
X5233822Y3079191D01*
X5313781Y3079191D01*
X5318810Y3084220D01*
X5318810Y3164179D01*
X5313781Y3169208D01*
G37*
G36*
X5074818Y3169208D02*
G01*
X5069789Y3164179D01*
X5069789Y3084220D01*
X5074818Y3079191D01*
X5153812Y3079191D01*
X5158790Y3084220D01*
X5158790Y3108401D01*
X5120792Y3108401D01*
X5120792Y3141421D01*
X5158790Y3141421D01*
X5158790Y3164179D01*
X5153812Y3169208D01*
G37*
M02*
