G04 Layer: BottomLayer*
G04 EasyEDA v6.5.5, 2022-05-22 00:28:19*
G04 37d94133e9fb4008a465715c89777dd1,10*
G04 Gerber Generator version 0.2*
G04 Scale: 100 percent, Rotated: No, Reflected: No *
G04 Dimensions in millimeters *
G04 leading zeros omitted , absolute positions ,4 integer and 5 decimal *
%FSLAX45Y45*%
%MOMM*%

%ADD10C,0.2540*%
%ADD11C,0.6100*%
%ADD13C,1.5240*%

%LPD*%
G36*
X798068Y1029208D02*
G01*
X794156Y1029969D01*
X790905Y1032205D01*
X788670Y1035456D01*
X787908Y1039368D01*
X787908Y6530797D01*
X788720Y6534810D01*
X791057Y6538163D01*
X794562Y6540296D01*
X798576Y6540906D01*
X802538Y6539890D01*
X805789Y6537401D01*
X807872Y6533388D01*
X814222Y6519367D01*
X822198Y6506159D01*
X831697Y6494068D01*
X842568Y6483197D01*
X854659Y6473698D01*
X867867Y6465722D01*
X881887Y6459372D01*
X896569Y6454800D01*
X911707Y6452057D01*
X927100Y6451092D01*
X942492Y6452057D01*
X957630Y6454800D01*
X972312Y6459372D01*
X986332Y6465722D01*
X999540Y6473698D01*
X1011631Y6483197D01*
X1022502Y6494068D01*
X1032002Y6506159D01*
X1039977Y6519367D01*
X1046327Y6533388D01*
X1050899Y6548069D01*
X1053642Y6563207D01*
X1054608Y6578600D01*
X1053642Y6593992D01*
X1050899Y6609130D01*
X1046327Y6623812D01*
X1039977Y6637832D01*
X1032002Y6651040D01*
X1022502Y6663131D01*
X1011631Y6674002D01*
X999540Y6683502D01*
X986332Y6691477D01*
X972312Y6697827D01*
X957630Y6702399D01*
X942492Y6705142D01*
X927100Y6706108D01*
X911707Y6705142D01*
X896569Y6702399D01*
X881887Y6697827D01*
X867867Y6691477D01*
X854659Y6683502D01*
X842568Y6674002D01*
X831697Y6663131D01*
X822198Y6651040D01*
X814222Y6637832D01*
X807770Y6623405D01*
X805789Y6619798D01*
X802538Y6617309D01*
X798576Y6616293D01*
X794562Y6616903D01*
X791057Y6619036D01*
X788720Y6622389D01*
X787908Y6626402D01*
X787908Y6720331D01*
X788670Y6724243D01*
X790905Y6727494D01*
X794156Y6729730D01*
X798068Y6730492D01*
X6447891Y6730492D01*
X6451803Y6729730D01*
X6455105Y6727494D01*
X6460794Y6721805D01*
X6463030Y6718503D01*
X6463792Y6714591D01*
X6463792Y1039368D01*
X6463030Y1035456D01*
X6460794Y1032205D01*
X6457543Y1029969D01*
X6453632Y1029208D01*
G37*

%LPC*%
G36*
X1740865Y3780739D02*
G01*
X1780387Y3780739D01*
X1780387Y3853840D01*
X1779676Y3860139D01*
X1777796Y3865626D01*
X1774698Y3870502D01*
X1770583Y3874617D01*
X1765706Y3877665D01*
X1760220Y3879596D01*
X1753920Y3880307D01*
X1740865Y3880307D01*
G37*
G36*
X939800Y1066292D02*
G01*
X955192Y1067257D01*
X970330Y1070000D01*
X985012Y1074572D01*
X999032Y1080922D01*
X1012240Y1088898D01*
X1024331Y1098397D01*
X1035202Y1109268D01*
X1044702Y1121359D01*
X1052677Y1134567D01*
X1059027Y1148588D01*
X1063599Y1163269D01*
X1066342Y1178407D01*
X1067308Y1193800D01*
X1066342Y1209192D01*
X1063599Y1224330D01*
X1059027Y1239012D01*
X1052677Y1253032D01*
X1044702Y1266240D01*
X1035202Y1278331D01*
X1024331Y1289202D01*
X1012240Y1298702D01*
X999032Y1306677D01*
X985012Y1313027D01*
X970330Y1317599D01*
X955192Y1320342D01*
X939800Y1321308D01*
X924407Y1320342D01*
X909269Y1317599D01*
X894587Y1313027D01*
X880567Y1306677D01*
X867359Y1298702D01*
X855268Y1289202D01*
X844397Y1278331D01*
X834898Y1266240D01*
X826922Y1253032D01*
X820572Y1239012D01*
X816000Y1224330D01*
X813257Y1209192D01*
X812292Y1193800D01*
X813257Y1178407D01*
X816000Y1163269D01*
X820572Y1148588D01*
X826922Y1134567D01*
X834898Y1121359D01*
X844397Y1109268D01*
X855268Y1098397D01*
X867359Y1088898D01*
X880567Y1080922D01*
X894587Y1074572D01*
X909269Y1070000D01*
X924407Y1067257D01*
G37*
G36*
X5178196Y1396593D02*
G01*
X5191810Y1397050D01*
X5205272Y1399286D01*
X5218277Y1403350D01*
X5230672Y1409090D01*
X5242153Y1416405D01*
X5252567Y1425194D01*
X5261711Y1435354D01*
X5269433Y1446580D01*
X5275580Y1458722D01*
X5280050Y1471625D01*
X5282793Y1484985D01*
X5283708Y1498600D01*
X5282793Y1512214D01*
X5280050Y1525574D01*
X5275580Y1538478D01*
X5269433Y1550619D01*
X5261711Y1561846D01*
X5252567Y1572006D01*
X5242153Y1580794D01*
X5230672Y1588109D01*
X5218277Y1593850D01*
X5205272Y1597914D01*
X5191810Y1600149D01*
X5178196Y1600606D01*
X5164632Y1599285D01*
X5151374Y1596085D01*
X5138623Y1591208D01*
X5126685Y1584655D01*
X5115712Y1576578D01*
X5105908Y1567078D01*
X5097424Y1556359D01*
X5090464Y1544624D01*
X5085181Y1532077D01*
X5081574Y1518920D01*
X5079746Y1505407D01*
X5079746Y1491792D01*
X5081574Y1478280D01*
X5085181Y1465122D01*
X5090464Y1452575D01*
X5097424Y1440840D01*
X5105908Y1430121D01*
X5115712Y1420622D01*
X5126685Y1412544D01*
X5138623Y1405991D01*
X5151374Y1401114D01*
X5164632Y1397914D01*
G37*
G36*
X3613150Y1406804D02*
G01*
X3613150Y1454150D01*
X3565804Y1454150D01*
X3566464Y1452575D01*
X3573424Y1440840D01*
X3581908Y1430121D01*
X3591712Y1420622D01*
X3602685Y1412544D01*
G37*
G36*
X5391150Y1406804D02*
G01*
X5391150Y1454150D01*
X5343804Y1454150D01*
X5344464Y1452575D01*
X5351424Y1440840D01*
X5359908Y1430121D01*
X5369712Y1420622D01*
X5380685Y1412544D01*
G37*
G36*
X4121150Y1406804D02*
G01*
X4121150Y1454150D01*
X4073804Y1454150D01*
X4074464Y1452575D01*
X4081424Y1440840D01*
X4089908Y1430121D01*
X4099712Y1420622D01*
X4110685Y1412544D01*
G37*
G36*
X4883150Y1406804D02*
G01*
X4883150Y1454150D01*
X4835804Y1454150D01*
X4836464Y1452575D01*
X4843424Y1440840D01*
X4851908Y1430121D01*
X4861712Y1420622D01*
X4872685Y1412544D01*
G37*
G36*
X3867150Y1406804D02*
G01*
X3867150Y1454150D01*
X3819804Y1454150D01*
X3820464Y1452575D01*
X3827424Y1440840D01*
X3835908Y1430121D01*
X3845712Y1420622D01*
X3856685Y1412544D01*
G37*
G36*
X5645150Y1406804D02*
G01*
X5645150Y1454150D01*
X5597804Y1454150D01*
X5598464Y1452575D01*
X5605424Y1440840D01*
X5613908Y1430121D01*
X5623712Y1420622D01*
X5634685Y1412544D01*
G37*
G36*
X4629150Y1406804D02*
G01*
X4629150Y1454150D01*
X4581804Y1454150D01*
X4582464Y1452575D01*
X4589424Y1440840D01*
X4597908Y1430121D01*
X4607712Y1420622D01*
X4618685Y1412544D01*
G37*
G36*
X4375150Y1406804D02*
G01*
X4375150Y1454150D01*
X4327804Y1454150D01*
X4328464Y1452575D01*
X4335424Y1440840D01*
X4343908Y1430121D01*
X4353712Y1420622D01*
X4364685Y1412544D01*
G37*
G36*
X3359150Y1406804D02*
G01*
X3359150Y1454150D01*
X3311804Y1454150D01*
X3312464Y1452575D01*
X3319424Y1440840D01*
X3327908Y1430121D01*
X3337712Y1420622D01*
X3348685Y1412544D01*
G37*
G36*
X4210050Y1406956D02*
G01*
X4214672Y1409090D01*
X4226153Y1416405D01*
X4236567Y1425194D01*
X4245711Y1435354D01*
X4253433Y1446580D01*
X4257243Y1454150D01*
X4210050Y1454150D01*
G37*
G36*
X4718050Y1406956D02*
G01*
X4722672Y1409090D01*
X4734153Y1416405D01*
X4744567Y1425194D01*
X4753711Y1435354D01*
X4761433Y1446580D01*
X4765243Y1454150D01*
X4718050Y1454150D01*
G37*
G36*
X3956050Y1406956D02*
G01*
X3960672Y1409090D01*
X3972153Y1416405D01*
X3982567Y1425194D01*
X3991711Y1435354D01*
X3999433Y1446580D01*
X4003243Y1454150D01*
X3956050Y1454150D01*
G37*
G36*
X5734050Y1406956D02*
G01*
X5738672Y1409090D01*
X5750153Y1416405D01*
X5760567Y1425194D01*
X5769711Y1435354D01*
X5777433Y1446580D01*
X5781243Y1454150D01*
X5734050Y1454150D01*
G37*
G36*
X5480050Y1406956D02*
G01*
X5484672Y1409090D01*
X5496153Y1416405D01*
X5506567Y1425194D01*
X5515711Y1435354D01*
X5523433Y1446580D01*
X5527243Y1454150D01*
X5480050Y1454150D01*
G37*
G36*
X3448050Y1406956D02*
G01*
X3452672Y1409090D01*
X3464153Y1416405D01*
X3474567Y1425194D01*
X3483711Y1435354D01*
X3491433Y1446580D01*
X3495243Y1454150D01*
X3448050Y1454150D01*
G37*
G36*
X3702050Y1406956D02*
G01*
X3706672Y1409090D01*
X3718153Y1416405D01*
X3728567Y1425194D01*
X3737711Y1435354D01*
X3745433Y1446580D01*
X3749243Y1454150D01*
X3702050Y1454150D01*
G37*
G36*
X4464050Y1406956D02*
G01*
X4468672Y1409090D01*
X4480153Y1416405D01*
X4490567Y1425194D01*
X4499711Y1435354D01*
X4507433Y1446580D01*
X4511243Y1454150D01*
X4464050Y1454150D01*
G37*
G36*
X4972050Y1406956D02*
G01*
X4976672Y1409090D01*
X4988153Y1416405D01*
X4998567Y1425194D01*
X5007711Y1435354D01*
X5015433Y1446580D01*
X5019243Y1454150D01*
X4972050Y1454150D01*
G37*
G36*
X1215796Y1409293D02*
G01*
X1229410Y1409750D01*
X1242872Y1411986D01*
X1255877Y1416050D01*
X1268272Y1421790D01*
X1279753Y1429105D01*
X1290167Y1437894D01*
X1299311Y1448054D01*
X1307033Y1459280D01*
X1313180Y1471422D01*
X1317650Y1484325D01*
X1320393Y1497685D01*
X1321308Y1511300D01*
X1320393Y1524914D01*
X1317650Y1538274D01*
X1315415Y1544777D01*
X1314856Y1548536D01*
X1315669Y1552194D01*
X1317802Y1555292D01*
X1344472Y1581962D01*
X1347774Y1584147D01*
X1351635Y1584909D01*
X1380591Y1584909D01*
X1384757Y1584045D01*
X1388160Y1581556D01*
X1390294Y1577848D01*
X1390700Y1573631D01*
X1389329Y1569618D01*
X1382064Y1557324D01*
X1381404Y1555750D01*
X1428750Y1555750D01*
X1428750Y1574749D01*
X1429512Y1578660D01*
X1431747Y1581962D01*
X1434998Y1584147D01*
X1438910Y1584909D01*
X1507490Y1584909D01*
X1511401Y1584147D01*
X1514652Y1581962D01*
X1516888Y1578660D01*
X1517650Y1574749D01*
X1517650Y1555750D01*
X1564843Y1555750D01*
X1561033Y1563319D01*
X1557121Y1569008D01*
X1555496Y1573072D01*
X1555699Y1577441D01*
X1557731Y1581353D01*
X1561236Y1583994D01*
X1565503Y1584909D01*
X1634591Y1584909D01*
X1638757Y1584045D01*
X1642160Y1581556D01*
X1644294Y1577848D01*
X1644700Y1573631D01*
X1643329Y1569618D01*
X1636064Y1557324D01*
X1635404Y1555750D01*
X1682750Y1555750D01*
X1682750Y1574749D01*
X1683512Y1578660D01*
X1685747Y1581962D01*
X1688998Y1584147D01*
X1692910Y1584909D01*
X1761489Y1584909D01*
X1765401Y1584147D01*
X1768652Y1581962D01*
X1770888Y1578660D01*
X1771650Y1574749D01*
X1771650Y1555750D01*
X1818843Y1555750D01*
X1815033Y1563319D01*
X1811121Y1569008D01*
X1809496Y1573072D01*
X1809699Y1577441D01*
X1811731Y1581353D01*
X1815236Y1583994D01*
X1819503Y1584909D01*
X1888591Y1584909D01*
X1892757Y1584045D01*
X1896160Y1581556D01*
X1898294Y1577848D01*
X1898700Y1573631D01*
X1897329Y1569618D01*
X1890064Y1557324D01*
X1889404Y1555750D01*
X1936750Y1555750D01*
X1936750Y1574749D01*
X1937512Y1578660D01*
X1939747Y1581962D01*
X1942998Y1584147D01*
X1946910Y1584909D01*
X2015489Y1584909D01*
X2019401Y1584147D01*
X2022652Y1581962D01*
X2024888Y1578660D01*
X2025650Y1574749D01*
X2025650Y1555750D01*
X2072843Y1555750D01*
X2069033Y1563319D01*
X2065121Y1569008D01*
X2063496Y1573072D01*
X2063699Y1577441D01*
X2065731Y1581353D01*
X2069236Y1583994D01*
X2073503Y1584909D01*
X2142591Y1584909D01*
X2146757Y1584045D01*
X2150160Y1581556D01*
X2152294Y1577848D01*
X2152700Y1573631D01*
X2151329Y1569618D01*
X2144064Y1557324D01*
X2138781Y1544777D01*
X2135174Y1531620D01*
X2133346Y1518107D01*
X2133346Y1504492D01*
X2135174Y1490980D01*
X2138781Y1477822D01*
X2144064Y1465275D01*
X2151024Y1453540D01*
X2159508Y1442821D01*
X2169312Y1433322D01*
X2180285Y1425244D01*
X2192223Y1418691D01*
X2204974Y1413814D01*
X2218232Y1410614D01*
X2231796Y1409293D01*
X2245410Y1409750D01*
X2258872Y1411986D01*
X2271877Y1416050D01*
X2284272Y1421790D01*
X2295753Y1429105D01*
X2306167Y1437894D01*
X2315311Y1448054D01*
X2323033Y1459280D01*
X2329180Y1471422D01*
X2333650Y1484325D01*
X2336393Y1497685D01*
X2337308Y1511300D01*
X2336393Y1524914D01*
X2333650Y1538274D01*
X2329180Y1551178D01*
X2323033Y1563319D01*
X2319121Y1569008D01*
X2317496Y1573072D01*
X2317699Y1577441D01*
X2319731Y1581353D01*
X2323236Y1583994D01*
X2327503Y1584909D01*
X2396591Y1584909D01*
X2400757Y1584045D01*
X2404160Y1581556D01*
X2406294Y1577848D01*
X2406700Y1573631D01*
X2405329Y1569618D01*
X2398064Y1557324D01*
X2397404Y1555750D01*
X2444750Y1555750D01*
X2444750Y1574749D01*
X2445512Y1578660D01*
X2447747Y1581962D01*
X2450998Y1584147D01*
X2454910Y1584909D01*
X2523490Y1584909D01*
X2527401Y1584147D01*
X2530652Y1581962D01*
X2532888Y1578660D01*
X2533650Y1574749D01*
X2533650Y1555750D01*
X2580843Y1555750D01*
X2577033Y1563319D01*
X2573121Y1569008D01*
X2571496Y1573072D01*
X2571699Y1577441D01*
X2573731Y1581353D01*
X2577236Y1583994D01*
X2581503Y1584909D01*
X2650591Y1584909D01*
X2654757Y1584045D01*
X2658160Y1581556D01*
X2660294Y1577848D01*
X2660700Y1573631D01*
X2659329Y1569618D01*
X2652064Y1557324D01*
X2651404Y1555750D01*
X2698750Y1555750D01*
X2698750Y1574749D01*
X2699512Y1578660D01*
X2701747Y1581962D01*
X2704998Y1584147D01*
X2708910Y1584909D01*
X2777490Y1584909D01*
X2781401Y1584147D01*
X2784652Y1581962D01*
X2786888Y1578660D01*
X2787650Y1574749D01*
X2787650Y1555750D01*
X2834843Y1555750D01*
X2831033Y1563319D01*
X2827121Y1569008D01*
X2825496Y1573072D01*
X2825699Y1577441D01*
X2827731Y1581353D01*
X2831236Y1583994D01*
X2835503Y1584909D01*
X2864764Y1584909D01*
X2868625Y1584147D01*
X2871927Y1581962D01*
X2898394Y1555496D01*
X2900426Y1552600D01*
X2901340Y1549146D01*
X2901035Y1545590D01*
X2897174Y1531620D01*
X2895346Y1518107D01*
X2895346Y1504492D01*
X2897174Y1490980D01*
X2900781Y1477822D01*
X2906064Y1465275D01*
X2913024Y1453540D01*
X2921508Y1442821D01*
X2931312Y1433322D01*
X2942285Y1425244D01*
X2954223Y1418691D01*
X2966974Y1413814D01*
X2980232Y1410614D01*
X2993796Y1409293D01*
X3007410Y1409750D01*
X3020872Y1411986D01*
X3033877Y1416050D01*
X3046272Y1421790D01*
X3057753Y1429105D01*
X3068167Y1437894D01*
X3077311Y1448054D01*
X3085033Y1459280D01*
X3091180Y1471422D01*
X3095650Y1484325D01*
X3098393Y1497685D01*
X3099308Y1511300D01*
X3098393Y1524914D01*
X3095650Y1538274D01*
X3091180Y1551178D01*
X3085033Y1563319D01*
X3077311Y1574546D01*
X3068167Y1584706D01*
X3057753Y1593494D01*
X3046272Y1600809D01*
X3033877Y1606550D01*
X3020872Y1610614D01*
X3007410Y1612849D01*
X2993796Y1613306D01*
X2980232Y1611985D01*
X2966974Y1608785D01*
X2963976Y1607667D01*
X2960166Y1606956D01*
X2956356Y1607769D01*
X2953156Y1609953D01*
X2912618Y1650492D01*
X2906369Y1655622D01*
X2899714Y1659178D01*
X2892501Y1661363D01*
X2884474Y1662125D01*
X1331925Y1662125D01*
X1323898Y1661363D01*
X1316685Y1659178D01*
X1310030Y1655622D01*
X1303782Y1650492D01*
X1263243Y1609953D01*
X1260246Y1607870D01*
X1256690Y1607007D01*
X1253083Y1607464D01*
X1242872Y1610614D01*
X1229410Y1612849D01*
X1215796Y1613306D01*
X1202232Y1611985D01*
X1188974Y1608785D01*
X1176223Y1603908D01*
X1164285Y1597355D01*
X1153312Y1589278D01*
X1143508Y1579778D01*
X1135024Y1569059D01*
X1128064Y1557324D01*
X1122781Y1544777D01*
X1119174Y1531620D01*
X1117346Y1518107D01*
X1117346Y1504492D01*
X1119174Y1490980D01*
X1122781Y1477822D01*
X1128064Y1465275D01*
X1135024Y1453540D01*
X1143508Y1442821D01*
X1153312Y1433322D01*
X1164285Y1425244D01*
X1176223Y1418691D01*
X1188974Y1413814D01*
X1202232Y1410614D01*
G37*
G36*
X6197600Y6400292D02*
G01*
X6212992Y6401257D01*
X6228130Y6404000D01*
X6242812Y6408572D01*
X6256832Y6414922D01*
X6270040Y6422898D01*
X6282131Y6432397D01*
X6293002Y6443268D01*
X6302502Y6455359D01*
X6310477Y6468567D01*
X6316827Y6482588D01*
X6321399Y6497269D01*
X6324142Y6512407D01*
X6325108Y6527800D01*
X6324142Y6543192D01*
X6321399Y6558330D01*
X6316827Y6573012D01*
X6310477Y6587032D01*
X6302502Y6600240D01*
X6293002Y6612331D01*
X6282131Y6623202D01*
X6270040Y6632702D01*
X6256832Y6640677D01*
X6242812Y6647027D01*
X6228130Y6651599D01*
X6212992Y6654342D01*
X6197600Y6655308D01*
X6182207Y6654342D01*
X6167069Y6651599D01*
X6152388Y6647027D01*
X6138367Y6640677D01*
X6125159Y6632702D01*
X6113068Y6623202D01*
X6102197Y6612331D01*
X6092698Y6600240D01*
X6084722Y6587032D01*
X6078372Y6573012D01*
X6073800Y6558330D01*
X6071057Y6543192D01*
X6070092Y6527800D01*
X6071057Y6512407D01*
X6073800Y6497269D01*
X6078372Y6482588D01*
X6084722Y6468567D01*
X6092698Y6455359D01*
X6102197Y6443268D01*
X6113068Y6432397D01*
X6125159Y6422898D01*
X6138367Y6414922D01*
X6152388Y6408572D01*
X6167069Y6404000D01*
X6182207Y6401257D01*
G37*
G36*
X2359304Y6381750D02*
G01*
X2406650Y6381750D01*
X2406650Y6429095D01*
X2396185Y6423355D01*
X2385212Y6415278D01*
X2375408Y6405778D01*
X2366924Y6395059D01*
X2359964Y6383324D01*
G37*
G36*
X1428750Y1419504D02*
G01*
X1428750Y1466850D01*
X1381404Y1466850D01*
X1382064Y1465275D01*
X1389024Y1453540D01*
X1397508Y1442821D01*
X1407312Y1433322D01*
X1418285Y1425244D01*
G37*
G36*
X1682750Y1419504D02*
G01*
X1682750Y1466850D01*
X1635404Y1466850D01*
X1636064Y1465275D01*
X1643024Y1453540D01*
X1651507Y1442821D01*
X1661312Y1433322D01*
X1672285Y1425244D01*
G37*
G36*
X1936750Y1419504D02*
G01*
X1936750Y1466850D01*
X1889404Y1466850D01*
X1890064Y1465275D01*
X1897024Y1453540D01*
X1905507Y1442821D01*
X1915312Y1433322D01*
X1926285Y1425244D01*
G37*
G36*
X2698750Y1419504D02*
G01*
X2698750Y1466850D01*
X2651404Y1466850D01*
X2652064Y1465275D01*
X2659024Y1453540D01*
X2667508Y1442821D01*
X2677312Y1433322D01*
X2688285Y1425244D01*
G37*
G36*
X2444750Y1419504D02*
G01*
X2444750Y1466850D01*
X2397404Y1466850D01*
X2398064Y1465275D01*
X2405024Y1453540D01*
X2413508Y1442821D01*
X2423312Y1433322D01*
X2434285Y1425244D01*
G37*
G36*
X2787650Y1419656D02*
G01*
X2792272Y1421790D01*
X2803753Y1429105D01*
X2814167Y1437894D01*
X2823311Y1448054D01*
X2831033Y1459280D01*
X2834843Y1466850D01*
X2787650Y1466850D01*
G37*
G36*
X2533650Y1419656D02*
G01*
X2538272Y1421790D01*
X2549753Y1429105D01*
X2560167Y1437894D01*
X2569311Y1448054D01*
X2577033Y1459280D01*
X2580843Y1466850D01*
X2533650Y1466850D01*
G37*
G36*
X2025650Y1419656D02*
G01*
X2030272Y1421790D01*
X2041753Y1429105D01*
X2052167Y1437894D01*
X2061311Y1448054D01*
X2069033Y1459280D01*
X2072843Y1466850D01*
X2025650Y1466850D01*
G37*
G36*
X1771650Y1419656D02*
G01*
X1776272Y1421790D01*
X1787753Y1429105D01*
X1798167Y1437894D01*
X1807311Y1448054D01*
X1815033Y1459280D01*
X1818843Y1466850D01*
X1771650Y1466850D01*
G37*
G36*
X1517650Y1419656D02*
G01*
X1522272Y1421790D01*
X1533753Y1429105D01*
X1544167Y1437894D01*
X1553311Y1448054D01*
X1561033Y1459280D01*
X1564843Y1466850D01*
X1517650Y1466850D01*
G37*
G36*
X4210050Y1543050D02*
G01*
X4257243Y1543050D01*
X4253433Y1550619D01*
X4245711Y1561846D01*
X4236567Y1572006D01*
X4226153Y1580794D01*
X4214672Y1588109D01*
X4210050Y1590243D01*
G37*
G36*
X3956050Y1543050D02*
G01*
X4003243Y1543050D01*
X3999433Y1550619D01*
X3991711Y1561846D01*
X3982567Y1572006D01*
X3972153Y1580794D01*
X3960672Y1588109D01*
X3956050Y1590243D01*
G37*
G36*
X3448050Y1543050D02*
G01*
X3495243Y1543050D01*
X3491433Y1550619D01*
X3483711Y1561846D01*
X3474567Y1572006D01*
X3464153Y1580794D01*
X3452672Y1588109D01*
X3448050Y1590243D01*
G37*
G36*
X5734050Y1543050D02*
G01*
X5781243Y1543050D01*
X5777433Y1550619D01*
X5769711Y1561846D01*
X5760567Y1572006D01*
X5750153Y1580794D01*
X5738672Y1588109D01*
X5734050Y1590243D01*
G37*
G36*
X5480050Y1543050D02*
G01*
X5527243Y1543050D01*
X5523433Y1550619D01*
X5515711Y1561846D01*
X5506567Y1572006D01*
X5496153Y1580794D01*
X5484672Y1588109D01*
X5480050Y1590243D01*
G37*
G36*
X4464050Y1543050D02*
G01*
X4511243Y1543050D01*
X4507433Y1550619D01*
X4499711Y1561846D01*
X4490567Y1572006D01*
X4480153Y1580794D01*
X4468672Y1588109D01*
X4464050Y1590243D01*
G37*
G36*
X4718050Y1543050D02*
G01*
X4765243Y1543050D01*
X4761433Y1550619D01*
X4753711Y1561846D01*
X4744567Y1572006D01*
X4734153Y1580794D01*
X4722672Y1588109D01*
X4718050Y1590243D01*
G37*
G36*
X3702050Y1543050D02*
G01*
X3749243Y1543050D01*
X3745433Y1550619D01*
X3737711Y1561846D01*
X3728567Y1572006D01*
X3718153Y1580794D01*
X3706672Y1588109D01*
X3702050Y1590243D01*
G37*
G36*
X4972050Y1543050D02*
G01*
X5019243Y1543050D01*
X5015433Y1550619D01*
X5007711Y1561846D01*
X4998567Y1572006D01*
X4988153Y1580794D01*
X4976672Y1588109D01*
X4972050Y1590243D01*
G37*
G36*
X4073804Y1543050D02*
G01*
X4121150Y1543050D01*
X4121150Y1590395D01*
X4110685Y1584655D01*
X4099712Y1576578D01*
X4089908Y1567078D01*
X4081424Y1556359D01*
X4074464Y1544624D01*
G37*
G36*
X4835804Y1543050D02*
G01*
X4883150Y1543050D01*
X4883150Y1590395D01*
X4872685Y1584655D01*
X4861712Y1576578D01*
X4851908Y1567078D01*
X4843424Y1556359D01*
X4836464Y1544624D01*
G37*
G36*
X4581804Y1543050D02*
G01*
X4629150Y1543050D01*
X4629150Y1590395D01*
X4618685Y1584655D01*
X4607712Y1576578D01*
X4597908Y1567078D01*
X4589424Y1556359D01*
X4582464Y1544624D01*
G37*
G36*
X5343804Y1543050D02*
G01*
X5391150Y1543050D01*
X5391150Y1590395D01*
X5380685Y1584655D01*
X5369712Y1576578D01*
X5359908Y1567078D01*
X5351424Y1556359D01*
X5344464Y1544624D01*
G37*
G36*
X3565804Y1543050D02*
G01*
X3613150Y1543050D01*
X3613150Y1590395D01*
X3602685Y1584655D01*
X3591712Y1576578D01*
X3581908Y1567078D01*
X3573424Y1556359D01*
X3566464Y1544624D01*
G37*
G36*
X3819804Y1543050D02*
G01*
X3867150Y1543050D01*
X3867150Y1590395D01*
X3856685Y1584655D01*
X3845712Y1576578D01*
X3835908Y1567078D01*
X3827424Y1556359D01*
X3820464Y1544624D01*
G37*
G36*
X5597804Y1543050D02*
G01*
X5645150Y1543050D01*
X5645150Y1590395D01*
X5634685Y1584655D01*
X5623712Y1576578D01*
X5613908Y1567078D01*
X5605424Y1556359D01*
X5598464Y1544624D01*
G37*
G36*
X3311804Y1543050D02*
G01*
X3359150Y1543050D01*
X3359150Y1590395D01*
X3348685Y1584655D01*
X3337712Y1576578D01*
X3327908Y1567078D01*
X3319424Y1556359D01*
X3312464Y1544624D01*
G37*
G36*
X4327804Y1543050D02*
G01*
X4375150Y1543050D01*
X4375150Y1590395D01*
X4364685Y1584655D01*
X4353712Y1576578D01*
X4343908Y1567078D01*
X4335424Y1556359D01*
X4328464Y1544624D01*
G37*
G36*
X3642004Y6381750D02*
G01*
X3689350Y6381750D01*
X3689350Y6429095D01*
X3678885Y6423355D01*
X3667912Y6415278D01*
X3658108Y6405778D01*
X3649624Y6395059D01*
X3642664Y6383324D01*
G37*
G36*
X3388004Y6381750D02*
G01*
X3435350Y6381750D01*
X3435350Y6429095D01*
X3424885Y6423355D01*
X3413912Y6415278D01*
X3404108Y6405778D01*
X3395624Y6395059D01*
X3388664Y6383324D01*
G37*
G36*
X2105304Y6381750D02*
G01*
X2152650Y6381750D01*
X2152650Y6429095D01*
X2142185Y6423355D01*
X2131212Y6415278D01*
X2121408Y6405778D01*
X2112924Y6395059D01*
X2105964Y6383324D01*
G37*
G36*
X4658004Y6381750D02*
G01*
X4705350Y6381750D01*
X4705350Y6429095D01*
X4694885Y6423355D01*
X4683912Y6415278D01*
X4674108Y6405778D01*
X4665624Y6395059D01*
X4658664Y6383324D01*
G37*
G36*
X3896004Y6381750D02*
G01*
X3943350Y6381750D01*
X3943350Y6429095D01*
X3932885Y6423355D01*
X3921912Y6415278D01*
X3912108Y6405778D01*
X3903624Y6395059D01*
X3896664Y6383324D01*
G37*
G36*
X2880004Y6381750D02*
G01*
X2927350Y6381750D01*
X2927350Y6429095D01*
X2916885Y6423355D01*
X2905912Y6415278D01*
X2896108Y6405778D01*
X2887624Y6395059D01*
X2880664Y6383324D01*
G37*
G36*
X4404004Y6381750D02*
G01*
X4451350Y6381750D01*
X4451350Y6429095D01*
X4440885Y6423355D01*
X4429912Y6415278D01*
X4420108Y6405778D01*
X4411624Y6395059D01*
X4404664Y6383324D01*
G37*
G36*
X3134004Y6381750D02*
G01*
X3181350Y6381750D01*
X3181350Y6429095D01*
X3170885Y6423355D01*
X3159912Y6415278D01*
X3150108Y6405778D01*
X3141624Y6395059D01*
X3134664Y6383324D01*
G37*
G36*
X4150004Y6381750D02*
G01*
X4197350Y6381750D01*
X4197350Y6429095D01*
X4186885Y6423355D01*
X4175912Y6415278D01*
X4166108Y6405778D01*
X4157624Y6395059D01*
X4150664Y6383324D01*
G37*
G36*
X1851304Y6381750D02*
G01*
X1898650Y6381750D01*
X1898650Y6429095D01*
X1888185Y6423355D01*
X1877212Y6415278D01*
X1867407Y6405778D01*
X1858924Y6395059D01*
X1851964Y6383324D01*
G37*
G36*
X1089304Y6381750D02*
G01*
X1136650Y6381750D01*
X1136650Y6429095D01*
X1126185Y6423355D01*
X1115212Y6415278D01*
X1105408Y6405778D01*
X1096924Y6395059D01*
X1089964Y6383324D01*
G37*
G36*
X1597304Y6381750D02*
G01*
X1644650Y6381750D01*
X1644650Y6429095D01*
X1634185Y6423355D01*
X1623212Y6415278D01*
X1613408Y6405778D01*
X1604924Y6395059D01*
X1597964Y6383324D01*
G37*
G36*
X1740865Y3028492D02*
G01*
X1753920Y3028492D01*
X1760220Y3029204D01*
X1765706Y3031134D01*
X1770583Y3034182D01*
X1774698Y3038297D01*
X1777796Y3043174D01*
X1779676Y3048660D01*
X1780387Y3054959D01*
X1780387Y3128060D01*
X1740865Y3128060D01*
G37*
G36*
X1486865Y3028492D02*
G01*
X1499920Y3028492D01*
X1506220Y3029204D01*
X1511706Y3031134D01*
X1516583Y3034182D01*
X1520698Y3038297D01*
X1523796Y3043174D01*
X1525676Y3048660D01*
X1526387Y3054959D01*
X1526387Y3128060D01*
X1486865Y3128060D01*
G37*
G36*
X1421079Y3028492D02*
G01*
X1434134Y3028492D01*
X1434134Y3128060D01*
X1394561Y3128060D01*
X1394561Y3054959D01*
X1395272Y3048660D01*
X1397203Y3043174D01*
X1400302Y3038297D01*
X1404366Y3034182D01*
X1409293Y3031134D01*
X1414729Y3029204D01*
G37*
G36*
X1675079Y3028492D02*
G01*
X1688134Y3028492D01*
X1688134Y3128060D01*
X1648561Y3128060D01*
X1648561Y3054959D01*
X1649272Y3048660D01*
X1651203Y3043174D01*
X1654302Y3038297D01*
X1658366Y3034182D01*
X1663293Y3031134D01*
X1668729Y3029204D01*
G37*
G36*
X1929079Y3028492D02*
G01*
X1942134Y3028492D01*
X1942134Y3128060D01*
X1902561Y3128060D01*
X1902561Y3054959D01*
X1903272Y3048660D01*
X1905203Y3043174D01*
X1908302Y3038297D01*
X1912366Y3034182D01*
X1917293Y3031134D01*
X1922729Y3029204D01*
G37*
G36*
X1994865Y3028492D02*
G01*
X2007920Y3028492D01*
X2014220Y3029204D01*
X2019706Y3031134D01*
X2024583Y3034182D01*
X2028698Y3038297D01*
X2031796Y3043174D01*
X2033676Y3048660D01*
X2034387Y3054959D01*
X2034387Y3128060D01*
X1994865Y3128060D01*
G37*
G36*
X2183079Y3028492D02*
G01*
X2261920Y3028492D01*
X2268220Y3029204D01*
X2273706Y3031134D01*
X2278583Y3034182D01*
X2282698Y3038297D01*
X2285796Y3043174D01*
X2287676Y3048660D01*
X2288387Y3054959D01*
X2288387Y3353562D01*
X2289149Y3357473D01*
X2291384Y3360724D01*
X2294686Y3362960D01*
X2298547Y3363722D01*
X2760827Y3363722D01*
X2764688Y3362960D01*
X2767990Y3360724D01*
X2769616Y3359150D01*
X2777642Y3353511D01*
X2786532Y3349345D01*
X2796032Y3346805D01*
X2805836Y3345942D01*
X2815640Y3346805D01*
X2825140Y3349345D01*
X2834030Y3353511D01*
X2842056Y3359150D01*
X2849016Y3366109D01*
X2854655Y3374136D01*
X2858820Y3383026D01*
X2861360Y3392525D01*
X2862224Y3402329D01*
X2861360Y3412134D01*
X2858820Y3421634D01*
X2854655Y3430524D01*
X2849016Y3438550D01*
X2842056Y3445510D01*
X2834030Y3451148D01*
X2825140Y3455314D01*
X2815640Y3457854D01*
X2805836Y3458718D01*
X2796032Y3457854D01*
X2786532Y3455314D01*
X2777642Y3451148D01*
X2769616Y3445510D01*
X2767990Y3443935D01*
X2764688Y3441700D01*
X2760827Y3440937D01*
X2710840Y3440937D01*
X2706928Y3441700D01*
X2703626Y3443935D01*
X2701442Y3447237D01*
X2700680Y3451148D01*
X2701493Y3455060D01*
X2703677Y3458311D01*
X2711602Y3466134D01*
X2717241Y3474161D01*
X2721406Y3483051D01*
X2723946Y3492550D01*
X2724810Y3502355D01*
X2723946Y3512159D01*
X2721406Y3521659D01*
X2717241Y3530549D01*
X2711602Y3538575D01*
X2704642Y3545535D01*
X2696616Y3551174D01*
X2687726Y3555339D01*
X2678226Y3557879D01*
X2668422Y3558743D01*
X2658618Y3557879D01*
X2649118Y3555339D01*
X2640228Y3551174D01*
X2632202Y3545535D01*
X2630576Y3543960D01*
X2627274Y3541725D01*
X2623413Y3540963D01*
X2298547Y3540963D01*
X2294686Y3541725D01*
X2291384Y3543960D01*
X2289149Y3547211D01*
X2288387Y3551123D01*
X2288387Y3853840D01*
X2287676Y3860139D01*
X2285796Y3865626D01*
X2282698Y3870502D01*
X2278583Y3874617D01*
X2273706Y3877665D01*
X2267204Y3879951D01*
X2263902Y3881882D01*
X2261514Y3884879D01*
X2260295Y3889857D01*
X2258110Y3897071D01*
X2254554Y3903726D01*
X2249424Y3909974D01*
X2172055Y3987393D01*
X2169820Y3990695D01*
X2169058Y3994556D01*
X2169058Y4867706D01*
X2169820Y4871567D01*
X2172055Y4874869D01*
X2175306Y4877104D01*
X2179218Y4877866D01*
X2183130Y4877104D01*
X2186381Y4874869D01*
X2773070Y4288231D01*
X2779318Y4283100D01*
X2785973Y4279544D01*
X2793187Y4277360D01*
X2801213Y4276547D01*
X5073954Y4276547D01*
X5077815Y4275785D01*
X5081117Y4273550D01*
X5082743Y4271975D01*
X5090769Y4266336D01*
X5099659Y4262170D01*
X5109159Y4259630D01*
X5118963Y4258767D01*
X5128768Y4259630D01*
X5138267Y4262170D01*
X5147157Y4266336D01*
X5155184Y4271975D01*
X5162143Y4278934D01*
X5167782Y4286961D01*
X5171948Y4295851D01*
X5174488Y4305350D01*
X5175351Y4315155D01*
X5174488Y4324959D01*
X5171948Y4334459D01*
X5167782Y4343349D01*
X5162143Y4351375D01*
X5155184Y4358335D01*
X5147157Y4363974D01*
X5138267Y4368139D01*
X5128768Y4370679D01*
X5118963Y4371543D01*
X5109159Y4370679D01*
X5099659Y4368139D01*
X5090769Y4363974D01*
X5082743Y4358335D01*
X5081117Y4356760D01*
X5077815Y4354525D01*
X5073954Y4353763D01*
X2820924Y4353763D01*
X2817063Y4354525D01*
X2813761Y4356760D01*
X2268474Y4901996D01*
X2266289Y4905298D01*
X2265527Y4909210D01*
X2266289Y4913071D01*
X2268474Y4916373D01*
X2269998Y4917897D01*
X2273096Y4922774D01*
X2274976Y4928260D01*
X2275687Y4934559D01*
X2275687Y5253431D01*
X2274976Y5259730D01*
X2273096Y5265216D01*
X2269998Y5270093D01*
X2265883Y5274208D01*
X2261006Y5277307D01*
X2255520Y5279186D01*
X2249220Y5279898D01*
X2182723Y5279898D01*
X2178862Y5280660D01*
X2175560Y5282895D01*
X2173376Y5286197D01*
X2172563Y5290058D01*
X2173376Y5293969D01*
X2175560Y5297271D01*
X2236724Y5358434D01*
X2241854Y5364683D01*
X2245410Y5371338D01*
X2247595Y5378551D01*
X2248814Y5383530D01*
X2251202Y5386527D01*
X2254504Y5388457D01*
X2261006Y5390692D01*
X2265883Y5393791D01*
X2269998Y5397906D01*
X2273096Y5402783D01*
X2274976Y5408218D01*
X2275687Y5414568D01*
X2275687Y5733440D01*
X2274976Y5739739D01*
X2273096Y5745226D01*
X2269998Y5750102D01*
X2265883Y5754217D01*
X2261006Y5757265D01*
X2255520Y5759196D01*
X2249220Y5759907D01*
X2170379Y5759907D01*
X2164029Y5759196D01*
X2158593Y5757265D01*
X2153666Y5754217D01*
X2152243Y5752744D01*
X2148789Y5750509D01*
X2144776Y5749798D01*
X2140762Y5750712D01*
X2137460Y5753201D01*
X2135428Y5756757D01*
X2134158Y5771692D01*
X2131618Y5781192D01*
X2127453Y5790082D01*
X2121865Y5798159D01*
X2114905Y5805119D01*
X2106828Y5810707D01*
X2097938Y5814872D01*
X2088438Y5817412D01*
X2078685Y5818276D01*
X2068880Y5817412D01*
X2059381Y5814872D01*
X2050491Y5810707D01*
X2042414Y5805119D01*
X2040839Y5803493D01*
X2037537Y5801309D01*
X2033625Y5800496D01*
X1956307Y5800496D01*
X1948281Y5799734D01*
X1941068Y5797550D01*
X1934362Y5793994D01*
X1928520Y5789168D01*
X1923745Y5783326D01*
X1920189Y5776671D01*
X1918004Y5769457D01*
X1916785Y5764479D01*
X1914398Y5761482D01*
X1911096Y5759551D01*
X1904593Y5757265D01*
X1899666Y5754217D01*
X1895602Y5750102D01*
X1892503Y5745226D01*
X1890572Y5739739D01*
X1889861Y5733440D01*
X1889861Y5414568D01*
X1890572Y5408218D01*
X1892503Y5402783D01*
X1895602Y5397906D01*
X1899666Y5393791D01*
X1904593Y5390692D01*
X1910029Y5388813D01*
X1916379Y5388102D01*
X1995220Y5388102D01*
X2001520Y5388813D01*
X2007006Y5390692D01*
X2011883Y5393791D01*
X2015998Y5397906D01*
X2019096Y5402783D01*
X2020976Y5408218D01*
X2021687Y5414568D01*
X2021687Y5713120D01*
X2022449Y5717032D01*
X2024684Y5720334D01*
X2027986Y5722518D01*
X2031847Y5723280D01*
X2033625Y5723280D01*
X2037537Y5722518D01*
X2040839Y5720334D01*
X2042414Y5718708D01*
X2050491Y5713120D01*
X2059381Y5708954D01*
X2068880Y5706414D01*
X2078685Y5705551D01*
X2088438Y5706414D01*
X2097938Y5708954D01*
X2106828Y5713120D01*
X2114905Y5718708D01*
X2121865Y5725668D01*
X2125421Y5730748D01*
X2128520Y5733643D01*
X2132533Y5735015D01*
X2136800Y5734608D01*
X2140458Y5732526D01*
X2142998Y5729071D01*
X2143861Y5724956D01*
X2143861Y5414568D01*
X2144572Y5408218D01*
X2146503Y5402783D01*
X2149602Y5397906D01*
X2151126Y5396382D01*
X2153310Y5393080D01*
X2154072Y5389168D01*
X2153310Y5385308D01*
X2151126Y5382006D01*
X2103526Y5334406D01*
X2098395Y5328158D01*
X2094839Y5321503D01*
X2092655Y5314289D01*
X2091842Y5306263D01*
X2091842Y3974846D01*
X2092655Y3966819D01*
X2094839Y3959606D01*
X2098395Y3952951D01*
X2103526Y3946702D01*
X2163826Y3886403D01*
X2166010Y3883101D01*
X2166772Y3879240D01*
X2166010Y3875328D01*
X2163826Y3872026D01*
X2162302Y3870502D01*
X2159203Y3865626D01*
X2157272Y3860139D01*
X2156561Y3853840D01*
X2156561Y3534968D01*
X2157272Y3528618D01*
X2159203Y3523183D01*
X2162302Y3518306D01*
X2166366Y3514191D01*
X2171293Y3511092D01*
X2177796Y3508806D01*
X2181098Y3506927D01*
X2183485Y3503879D01*
X2184704Y3498951D01*
X2186889Y3491737D01*
X2190445Y3485083D01*
X2195576Y3478834D01*
X2198979Y3475431D01*
X2205228Y3470300D01*
X2211882Y3466744D01*
X2219096Y3464560D01*
X2227122Y3463747D01*
X2623413Y3463747D01*
X2627172Y3463036D01*
X2630424Y3460953D01*
X2633014Y3458464D01*
X2635300Y3455162D01*
X2636164Y3451250D01*
X2635453Y3447338D01*
X2633268Y3443986D01*
X2629916Y3441750D01*
X2626004Y3440937D01*
X2223008Y3440937D01*
X2214981Y3440125D01*
X2207768Y3437940D01*
X2201062Y3434384D01*
X2195220Y3429609D01*
X2190445Y3423767D01*
X2186889Y3417062D01*
X2184704Y3409848D01*
X2183485Y3404870D01*
X2181098Y3401872D01*
X2177796Y3399942D01*
X2171293Y3397707D01*
X2166366Y3394608D01*
X2162302Y3390493D01*
X2159203Y3385616D01*
X2157272Y3380130D01*
X2156561Y3373831D01*
X2156561Y3054959D01*
X2157272Y3048660D01*
X2159203Y3043174D01*
X2162302Y3038297D01*
X2166366Y3034182D01*
X2171293Y3031134D01*
X2176729Y3029204D01*
G37*
G36*
X1740865Y3300729D02*
G01*
X1780387Y3300729D01*
X1780387Y3373831D01*
X1779676Y3380130D01*
X1777796Y3385616D01*
X1774698Y3390493D01*
X1770583Y3394608D01*
X1765706Y3397707D01*
X1760220Y3399586D01*
X1753920Y3400298D01*
X1740865Y3400298D01*
G37*
G36*
X1486865Y3300729D02*
G01*
X1526387Y3300729D01*
X1526387Y3373831D01*
X1525676Y3380130D01*
X1523796Y3385616D01*
X1520698Y3390493D01*
X1516583Y3394608D01*
X1511706Y3397707D01*
X1506220Y3399586D01*
X1499920Y3400298D01*
X1486865Y3400298D01*
G37*
G36*
X1394561Y3300729D02*
G01*
X1434134Y3300729D01*
X1434134Y3400298D01*
X1421079Y3400298D01*
X1414729Y3399586D01*
X1409293Y3397707D01*
X1404366Y3394608D01*
X1400302Y3390493D01*
X1397203Y3385616D01*
X1395272Y3380130D01*
X1394561Y3373831D01*
G37*
G36*
X1648561Y3300729D02*
G01*
X1688134Y3300729D01*
X1688134Y3400298D01*
X1675079Y3400298D01*
X1668729Y3399586D01*
X1663293Y3397707D01*
X1658366Y3394608D01*
X1654302Y3390493D01*
X1651203Y3385616D01*
X1649272Y3380130D01*
X1648561Y3373831D01*
G37*
G36*
X1902561Y3300729D02*
G01*
X1942134Y3300729D01*
X1942134Y3400298D01*
X1929079Y3400298D01*
X1922729Y3399586D01*
X1917293Y3397707D01*
X1912366Y3394608D01*
X1908302Y3390493D01*
X1905203Y3385616D01*
X1903272Y3380130D01*
X1902561Y3373831D01*
G37*
G36*
X1994865Y3300729D02*
G01*
X2034387Y3300729D01*
X2034387Y3373831D01*
X2033676Y3380130D01*
X2031796Y3385616D01*
X2028698Y3390493D01*
X2024583Y3394608D01*
X2019706Y3397707D01*
X2014220Y3399586D01*
X2007920Y3400298D01*
X1994865Y3400298D01*
G37*
G36*
X1343304Y6381750D02*
G01*
X1390650Y6381750D01*
X1390650Y6429095D01*
X1380185Y6423355D01*
X1369212Y6415278D01*
X1359408Y6405778D01*
X1350924Y6395059D01*
X1343964Y6383324D01*
G37*
G36*
X1225550Y6381750D02*
G01*
X1272743Y6381750D01*
X1268933Y6389319D01*
X1261211Y6400546D01*
X1252067Y6410706D01*
X1241653Y6419494D01*
X1230172Y6426809D01*
X1225550Y6428943D01*
G37*
G36*
X1486865Y3508501D02*
G01*
X1499920Y3508501D01*
X1506220Y3509213D01*
X1511706Y3511092D01*
X1516583Y3514191D01*
X1520698Y3518306D01*
X1523796Y3523183D01*
X1525676Y3528618D01*
X1526387Y3534968D01*
X1526387Y3608019D01*
X1486865Y3608019D01*
G37*
G36*
X1740865Y3508501D02*
G01*
X1753920Y3508501D01*
X1760220Y3509213D01*
X1765706Y3511092D01*
X1770583Y3514191D01*
X1774698Y3518306D01*
X1777796Y3523183D01*
X1779676Y3528618D01*
X1780387Y3534968D01*
X1780387Y3608019D01*
X1740865Y3608019D01*
G37*
G36*
X1421079Y3508501D02*
G01*
X1434134Y3508501D01*
X1434134Y3608019D01*
X1394561Y3608019D01*
X1394561Y3534968D01*
X1395272Y3528618D01*
X1397203Y3523183D01*
X1400302Y3518306D01*
X1404366Y3514191D01*
X1409293Y3511092D01*
X1414729Y3509213D01*
G37*
G36*
X1675079Y3508501D02*
G01*
X1688134Y3508501D01*
X1688134Y3608019D01*
X1648561Y3608019D01*
X1648561Y3534968D01*
X1649272Y3528618D01*
X1651203Y3523183D01*
X1654302Y3518306D01*
X1658366Y3514191D01*
X1663293Y3511092D01*
X1668729Y3509213D01*
G37*
G36*
X1929079Y3508501D02*
G01*
X1942134Y3508501D01*
X1942134Y3608019D01*
X1902561Y3608019D01*
X1902561Y3534968D01*
X1903272Y3528618D01*
X1905203Y3523183D01*
X1908302Y3518306D01*
X1912366Y3514191D01*
X1917293Y3511092D01*
X1922729Y3509213D01*
G37*
G36*
X1994865Y3508501D02*
G01*
X2007920Y3508501D01*
X2014220Y3509213D01*
X2019706Y3511092D01*
X2024583Y3514191D01*
X2028698Y3518306D01*
X2031796Y3523183D01*
X2033676Y3528618D01*
X2034387Y3534968D01*
X2034387Y3608019D01*
X1994865Y3608019D01*
G37*
G36*
X1733550Y6381750D02*
G01*
X1780743Y6381750D01*
X1776933Y6389319D01*
X1769211Y6400546D01*
X1760067Y6410706D01*
X1749653Y6419494D01*
X1738172Y6426809D01*
X1733550Y6428943D01*
G37*
G36*
X1486865Y3780739D02*
G01*
X1526387Y3780739D01*
X1526387Y3853840D01*
X1525676Y3860139D01*
X1523796Y3865626D01*
X1520698Y3870502D01*
X1516583Y3874617D01*
X1511706Y3877665D01*
X1506220Y3879596D01*
X1499920Y3880307D01*
X1486865Y3880307D01*
G37*
G36*
X1394561Y3780739D02*
G01*
X1434134Y3780739D01*
X1434134Y3880307D01*
X1421079Y3880307D01*
X1414729Y3879596D01*
X1409293Y3877665D01*
X1404366Y3874617D01*
X1400302Y3870502D01*
X1397203Y3865626D01*
X1395272Y3860139D01*
X1394561Y3853840D01*
G37*
G36*
X6311900Y1053592D02*
G01*
X6327292Y1054557D01*
X6342430Y1057300D01*
X6357112Y1061872D01*
X6371132Y1068222D01*
X6384340Y1076198D01*
X6396431Y1085697D01*
X6407302Y1096568D01*
X6416802Y1108659D01*
X6424777Y1121867D01*
X6431127Y1135888D01*
X6435699Y1150569D01*
X6438442Y1165707D01*
X6439408Y1181100D01*
X6438442Y1196492D01*
X6435699Y1211630D01*
X6431127Y1226312D01*
X6424777Y1240332D01*
X6416802Y1253540D01*
X6407302Y1265631D01*
X6396431Y1276502D01*
X6384340Y1286002D01*
X6371132Y1293977D01*
X6357112Y1300327D01*
X6342430Y1304899D01*
X6327292Y1307642D01*
X6311900Y1308608D01*
X6296507Y1307642D01*
X6281369Y1304899D01*
X6266688Y1300327D01*
X6252667Y1293977D01*
X6239459Y1286002D01*
X6227368Y1276502D01*
X6216497Y1265631D01*
X6206998Y1253540D01*
X6199022Y1240332D01*
X6192672Y1226312D01*
X6188100Y1211630D01*
X6185357Y1196492D01*
X6184392Y1181100D01*
X6185357Y1165707D01*
X6188100Y1150569D01*
X6192672Y1135888D01*
X6199022Y1121867D01*
X6206998Y1108659D01*
X6216497Y1096568D01*
X6227368Y1085697D01*
X6239459Y1076198D01*
X6252667Y1068222D01*
X6266688Y1061872D01*
X6281369Y1057300D01*
X6296507Y1054557D01*
G37*
G36*
X1648561Y3780739D02*
G01*
X1688134Y3780739D01*
X1688134Y3880307D01*
X1675079Y3880307D01*
X1668729Y3879596D01*
X1663293Y3877665D01*
X1658366Y3874617D01*
X1654302Y3870502D01*
X1651203Y3865626D01*
X1649272Y3860139D01*
X1648561Y3853840D01*
G37*
G36*
X1902561Y3780739D02*
G01*
X1942134Y3780739D01*
X1942134Y3880307D01*
X1929079Y3880307D01*
X1922729Y3879596D01*
X1917293Y3877665D01*
X1912366Y3874617D01*
X1908302Y3870502D01*
X1905203Y3865626D01*
X1903272Y3860139D01*
X1902561Y3853840D01*
G37*
G36*
X1994865Y3780739D02*
G01*
X2034387Y3780739D01*
X2034387Y3853840D01*
X2033676Y3860139D01*
X2031796Y3865626D01*
X2028698Y3870502D01*
X2024583Y3874617D01*
X2019706Y3877665D01*
X2014220Y3879596D01*
X2007920Y3880307D01*
X1994865Y3880307D01*
G37*
G36*
X1479550Y6381750D02*
G01*
X1526743Y6381750D01*
X1522933Y6389319D01*
X1515211Y6400546D01*
X1506067Y6410706D01*
X1495653Y6419494D01*
X1484172Y6426809D01*
X1479550Y6428943D01*
G37*
G36*
X4540250Y6381750D02*
G01*
X4587443Y6381750D01*
X4583633Y6389319D01*
X4575911Y6400546D01*
X4566767Y6410706D01*
X4556353Y6419494D01*
X4544872Y6426809D01*
X4540250Y6428943D01*
G37*
G36*
X1206500Y4711192D02*
G01*
X1221892Y4712157D01*
X1237030Y4714900D01*
X1251712Y4719472D01*
X1265732Y4725822D01*
X1278940Y4733798D01*
X1291031Y4743297D01*
X1301902Y4754168D01*
X1311402Y4766259D01*
X1319377Y4779467D01*
X1325727Y4793488D01*
X1330299Y4808169D01*
X1333042Y4823307D01*
X1334008Y4838700D01*
X1333042Y4854092D01*
X1330299Y4869230D01*
X1325727Y4883912D01*
X1319377Y4897932D01*
X1311402Y4911140D01*
X1301902Y4923231D01*
X1291031Y4934102D01*
X1278940Y4943602D01*
X1265732Y4951577D01*
X1251712Y4957927D01*
X1237030Y4962499D01*
X1221892Y4965242D01*
X1206500Y4966208D01*
X1191107Y4965242D01*
X1175969Y4962499D01*
X1161288Y4957927D01*
X1147267Y4951577D01*
X1134059Y4943602D01*
X1121968Y4934102D01*
X1111097Y4923231D01*
X1101598Y4911140D01*
X1093622Y4897932D01*
X1087272Y4883912D01*
X1082700Y4869230D01*
X1079957Y4854092D01*
X1078992Y4838700D01*
X1079957Y4823307D01*
X1082700Y4808169D01*
X1087272Y4793488D01*
X1093622Y4779467D01*
X1101598Y4766259D01*
X1111097Y4754168D01*
X1121968Y4743297D01*
X1134059Y4733798D01*
X1147267Y4725822D01*
X1161288Y4719472D01*
X1175969Y4714900D01*
X1191107Y4712157D01*
G37*
G36*
X1408379Y4908092D02*
G01*
X1421434Y4908092D01*
X1421434Y5007660D01*
X1381861Y5007660D01*
X1381861Y4934559D01*
X1382572Y4928260D01*
X1384503Y4922774D01*
X1387602Y4917897D01*
X1391666Y4913782D01*
X1396593Y4910734D01*
X1402029Y4908804D01*
G37*
G36*
X1728165Y4908092D02*
G01*
X1741220Y4908092D01*
X1747520Y4908804D01*
X1753006Y4910734D01*
X1757883Y4913782D01*
X1761998Y4917897D01*
X1765096Y4922774D01*
X1766976Y4928260D01*
X1767687Y4934559D01*
X1767687Y5007660D01*
X1728165Y5007660D01*
G37*
G36*
X1662379Y4908092D02*
G01*
X1675434Y4908092D01*
X1675434Y5007660D01*
X1635861Y5007660D01*
X1635861Y4934559D01*
X1636572Y4928260D01*
X1638503Y4922774D01*
X1641602Y4917897D01*
X1645666Y4913782D01*
X1650593Y4910734D01*
X1656029Y4908804D01*
G37*
G36*
X1474165Y4908092D02*
G01*
X1487220Y4908092D01*
X1493520Y4908804D01*
X1499006Y4910734D01*
X1503883Y4913782D01*
X1507998Y4917897D01*
X1511096Y4922774D01*
X1512976Y4928260D01*
X1513687Y4934559D01*
X1513687Y5007660D01*
X1474165Y5007660D01*
G37*
G36*
X1916379Y4908092D02*
G01*
X1929434Y4908092D01*
X1929434Y5007660D01*
X1889861Y5007660D01*
X1889861Y4934559D01*
X1890572Y4928260D01*
X1892503Y4922774D01*
X1895602Y4917897D01*
X1899666Y4913782D01*
X1904593Y4910734D01*
X1910029Y4908804D01*
G37*
G36*
X1982165Y4908092D02*
G01*
X1995220Y4908092D01*
X2001520Y4908804D01*
X2007006Y4910734D01*
X2011883Y4913782D01*
X2015998Y4917897D01*
X2019096Y4922774D01*
X2020976Y4928260D01*
X2021687Y4934559D01*
X2021687Y5007660D01*
X1982165Y5007660D01*
G37*
G36*
X1728165Y5180330D02*
G01*
X1767687Y5180330D01*
X1767687Y5253431D01*
X1766976Y5259730D01*
X1765096Y5265216D01*
X1761998Y5270093D01*
X1757883Y5274208D01*
X1753006Y5277307D01*
X1747520Y5279186D01*
X1741220Y5279898D01*
X1728165Y5279898D01*
G37*
G36*
X1635861Y5180330D02*
G01*
X1675434Y5180330D01*
X1675434Y5279898D01*
X1662379Y5279898D01*
X1656029Y5279186D01*
X1650593Y5277307D01*
X1645666Y5274208D01*
X1641602Y5270093D01*
X1638503Y5265216D01*
X1636572Y5259730D01*
X1635861Y5253431D01*
G37*
G36*
X1474165Y5180330D02*
G01*
X1513687Y5180330D01*
X1513687Y5253431D01*
X1512976Y5259730D01*
X1511096Y5265216D01*
X1507998Y5270093D01*
X1503883Y5274208D01*
X1499006Y5277307D01*
X1493520Y5279186D01*
X1487220Y5279898D01*
X1474165Y5279898D01*
G37*
G36*
X1381861Y5180330D02*
G01*
X1421434Y5180330D01*
X1421434Y5279898D01*
X1408379Y5279898D01*
X1402029Y5279186D01*
X1396593Y5277307D01*
X1391666Y5274208D01*
X1387602Y5270093D01*
X1384503Y5265216D01*
X1382572Y5259730D01*
X1381861Y5253431D01*
G37*
G36*
X1889861Y5180330D02*
G01*
X1929434Y5180330D01*
X1929434Y5279898D01*
X1916379Y5279898D01*
X1910029Y5279186D01*
X1904593Y5277307D01*
X1899666Y5274208D01*
X1895602Y5270093D01*
X1892503Y5265216D01*
X1890572Y5259730D01*
X1889861Y5253431D01*
G37*
G36*
X1982165Y5180330D02*
G01*
X2021687Y5180330D01*
X2021687Y5253431D01*
X2020976Y5259730D01*
X2019096Y5265216D01*
X2015998Y5270093D01*
X2011883Y5274208D01*
X2007006Y5277307D01*
X2001520Y5279186D01*
X1995220Y5279898D01*
X1982165Y5279898D01*
G37*
G36*
X1728165Y5388102D02*
G01*
X1741220Y5388102D01*
X1747520Y5388813D01*
X1753006Y5390692D01*
X1757883Y5393791D01*
X1761998Y5397906D01*
X1765096Y5402783D01*
X1766976Y5408218D01*
X1767687Y5414568D01*
X1767687Y5487619D01*
X1728165Y5487619D01*
G37*
G36*
X1474165Y5388102D02*
G01*
X1487220Y5388102D01*
X1493520Y5388813D01*
X1499006Y5390692D01*
X1503883Y5393791D01*
X1507998Y5397906D01*
X1511096Y5402783D01*
X1512976Y5408218D01*
X1513687Y5414568D01*
X1513687Y5487619D01*
X1474165Y5487619D01*
G37*
G36*
X1662379Y5388102D02*
G01*
X1675434Y5388102D01*
X1675434Y5487619D01*
X1635861Y5487619D01*
X1635861Y5414568D01*
X1636572Y5408218D01*
X1638503Y5402783D01*
X1641602Y5397906D01*
X1645666Y5393791D01*
X1650593Y5390692D01*
X1656029Y5388813D01*
G37*
G36*
X1408379Y5388102D02*
G01*
X1421434Y5388102D01*
X1421434Y5487619D01*
X1381861Y5487619D01*
X1381861Y5414568D01*
X1382572Y5408218D01*
X1384503Y5402783D01*
X1387602Y5397906D01*
X1391666Y5393791D01*
X1396593Y5390692D01*
X1402029Y5388813D01*
G37*
G36*
X4032250Y6381750D02*
G01*
X4079443Y6381750D01*
X4075633Y6389319D01*
X4067911Y6400546D01*
X4058767Y6410706D01*
X4048353Y6419494D01*
X4036872Y6426809D01*
X4032250Y6428943D01*
G37*
G36*
X1728165Y5660339D02*
G01*
X1767687Y5660339D01*
X1767687Y5733440D01*
X1766976Y5739739D01*
X1765096Y5745226D01*
X1761998Y5750102D01*
X1757883Y5754217D01*
X1753006Y5757265D01*
X1747520Y5759196D01*
X1741220Y5759907D01*
X1728165Y5759907D01*
G37*
G36*
X1381861Y5660339D02*
G01*
X1421434Y5660339D01*
X1421434Y5759907D01*
X1408379Y5759907D01*
X1402029Y5759196D01*
X1396593Y5757265D01*
X1391666Y5754217D01*
X1387602Y5750102D01*
X1384503Y5745226D01*
X1382572Y5739739D01*
X1381861Y5733440D01*
G37*
G36*
X1635861Y5660339D02*
G01*
X1675434Y5660339D01*
X1675434Y5759907D01*
X1662379Y5759907D01*
X1656029Y5759196D01*
X1650593Y5757265D01*
X1645666Y5754217D01*
X1641602Y5750102D01*
X1638503Y5745226D01*
X1636572Y5739739D01*
X1635861Y5733440D01*
G37*
G36*
X1474165Y5660339D02*
G01*
X1513687Y5660339D01*
X1513687Y5733440D01*
X1512976Y5739739D01*
X1511096Y5745226D01*
X1507998Y5750102D01*
X1503883Y5754217D01*
X1499006Y5757265D01*
X1493520Y5759196D01*
X1487220Y5759907D01*
X1474165Y5759907D01*
G37*
G36*
X4794250Y6381750D02*
G01*
X4841443Y6381750D01*
X4837633Y6389319D01*
X4829911Y6400546D01*
X4820767Y6410706D01*
X4810353Y6419494D01*
X4798872Y6426809D01*
X4794250Y6428943D01*
G37*
G36*
X1987550Y6381750D02*
G01*
X2034743Y6381750D01*
X2030933Y6389319D01*
X2023211Y6400546D01*
X2014067Y6410706D01*
X2003653Y6419494D01*
X1992172Y6426809D01*
X1987550Y6428943D01*
G37*
G36*
X1898650Y6245504D02*
G01*
X1898650Y6292850D01*
X1851304Y6292850D01*
X1851964Y6291275D01*
X1858924Y6279540D01*
X1867407Y6268821D01*
X1877212Y6259322D01*
X1888185Y6251244D01*
G37*
G36*
X1390650Y6245504D02*
G01*
X1390650Y6292850D01*
X1343304Y6292850D01*
X1343964Y6291275D01*
X1350924Y6279540D01*
X1359408Y6268821D01*
X1369212Y6259322D01*
X1380185Y6251244D01*
G37*
G36*
X1644650Y6245504D02*
G01*
X1644650Y6292850D01*
X1597304Y6292850D01*
X1597964Y6291275D01*
X1604924Y6279540D01*
X1613408Y6268821D01*
X1623212Y6259322D01*
X1634185Y6251244D01*
G37*
G36*
X1136650Y6245504D02*
G01*
X1136650Y6292850D01*
X1089304Y6292850D01*
X1089964Y6291275D01*
X1096924Y6279540D01*
X1105408Y6268821D01*
X1115212Y6259322D01*
X1126185Y6251244D01*
G37*
G36*
X3689350Y6245504D02*
G01*
X3689350Y6292850D01*
X3642004Y6292850D01*
X3642664Y6291275D01*
X3649624Y6279540D01*
X3658108Y6268821D01*
X3667912Y6259322D01*
X3678885Y6251244D01*
G37*
G36*
X2152650Y6245504D02*
G01*
X2152650Y6292850D01*
X2105304Y6292850D01*
X2105964Y6291275D01*
X2112924Y6279540D01*
X2121408Y6268821D01*
X2131212Y6259322D01*
X2142185Y6251244D01*
G37*
G36*
X2927350Y6245504D02*
G01*
X2927350Y6292850D01*
X2880004Y6292850D01*
X2880664Y6291275D01*
X2887624Y6279540D01*
X2896108Y6268821D01*
X2905912Y6259322D01*
X2916885Y6251244D01*
G37*
G36*
X4705350Y6245504D02*
G01*
X4705350Y6292850D01*
X4658004Y6292850D01*
X4658664Y6291275D01*
X4665624Y6279540D01*
X4674108Y6268821D01*
X4683912Y6259322D01*
X4694885Y6251244D01*
G37*
G36*
X3435350Y6245504D02*
G01*
X3435350Y6292850D01*
X3388004Y6292850D01*
X3388664Y6291275D01*
X3395624Y6279540D01*
X3404108Y6268821D01*
X3413912Y6259322D01*
X3424885Y6251244D01*
G37*
G36*
X4451350Y6245504D02*
G01*
X4451350Y6292850D01*
X4404004Y6292850D01*
X4404664Y6291275D01*
X4411624Y6279540D01*
X4420108Y6268821D01*
X4429912Y6259322D01*
X4440885Y6251244D01*
G37*
G36*
X3943350Y6245504D02*
G01*
X3943350Y6292850D01*
X3896004Y6292850D01*
X3896664Y6291275D01*
X3903624Y6279540D01*
X3912108Y6268821D01*
X3921912Y6259322D01*
X3932885Y6251244D01*
G37*
G36*
X2406650Y6245504D02*
G01*
X2406650Y6292850D01*
X2359304Y6292850D01*
X2359964Y6291275D01*
X2366924Y6279540D01*
X2375408Y6268821D01*
X2385212Y6259322D01*
X2396185Y6251244D01*
G37*
G36*
X4197350Y6245504D02*
G01*
X4197350Y6292850D01*
X4150004Y6292850D01*
X4150664Y6291275D01*
X4157624Y6279540D01*
X4166108Y6268821D01*
X4175912Y6259322D01*
X4186885Y6251244D01*
G37*
G36*
X3181350Y6245504D02*
G01*
X3181350Y6292850D01*
X3134004Y6292850D01*
X3134664Y6291275D01*
X3141624Y6279540D01*
X3150108Y6268821D01*
X3159912Y6259322D01*
X3170885Y6251244D01*
G37*
G36*
X3778250Y6245656D02*
G01*
X3782872Y6247790D01*
X3794353Y6255105D01*
X3804767Y6263894D01*
X3813911Y6274054D01*
X3821633Y6285280D01*
X3825443Y6292850D01*
X3778250Y6292850D01*
G37*
G36*
X1987550Y6245656D02*
G01*
X1992172Y6247790D01*
X2003653Y6255105D01*
X2014067Y6263894D01*
X2023211Y6274054D01*
X2030933Y6285280D01*
X2034743Y6292850D01*
X1987550Y6292850D01*
G37*
G36*
X3524250Y6245656D02*
G01*
X3528872Y6247790D01*
X3540353Y6255105D01*
X3550767Y6263894D01*
X3559911Y6274054D01*
X3567633Y6285280D01*
X3571443Y6292850D01*
X3524250Y6292850D01*
G37*
G36*
X4794250Y6245656D02*
G01*
X4798872Y6247790D01*
X4810353Y6255105D01*
X4820767Y6263894D01*
X4829911Y6274054D01*
X4837633Y6285280D01*
X4841443Y6292850D01*
X4794250Y6292850D01*
G37*
G36*
X3016250Y6245656D02*
G01*
X3020872Y6247790D01*
X3032353Y6255105D01*
X3042767Y6263894D01*
X3051911Y6274054D01*
X3059633Y6285280D01*
X3063443Y6292850D01*
X3016250Y6292850D01*
G37*
G36*
X4032250Y6245656D02*
G01*
X4036872Y6247790D01*
X4048353Y6255105D01*
X4058767Y6263894D01*
X4067911Y6274054D01*
X4075633Y6285280D01*
X4079443Y6292850D01*
X4032250Y6292850D01*
G37*
G36*
X2241550Y6245656D02*
G01*
X2246172Y6247790D01*
X2257653Y6255105D01*
X2268067Y6263894D01*
X2277211Y6274054D01*
X2284933Y6285280D01*
X2288743Y6292850D01*
X2241550Y6292850D01*
G37*
G36*
X4540250Y6245656D02*
G01*
X4544872Y6247790D01*
X4556353Y6255105D01*
X4566767Y6263894D01*
X4575911Y6274054D01*
X4583633Y6285280D01*
X4587443Y6292850D01*
X4540250Y6292850D01*
G37*
G36*
X4286250Y6245656D02*
G01*
X4290872Y6247790D01*
X4302353Y6255105D01*
X4312767Y6263894D01*
X4321911Y6274054D01*
X4329633Y6285280D01*
X4333443Y6292850D01*
X4286250Y6292850D01*
G37*
G36*
X2495550Y6245656D02*
G01*
X2500172Y6247790D01*
X2511653Y6255105D01*
X2522067Y6263894D01*
X2531211Y6274054D01*
X2538933Y6285280D01*
X2542743Y6292850D01*
X2495550Y6292850D01*
G37*
G36*
X3270250Y6245656D02*
G01*
X3274872Y6247790D01*
X3286353Y6255105D01*
X3296767Y6263894D01*
X3305911Y6274054D01*
X3313633Y6285280D01*
X3317443Y6292850D01*
X3270250Y6292850D01*
G37*
G36*
X1479550Y6245656D02*
G01*
X1484172Y6247790D01*
X1495653Y6255105D01*
X1506067Y6263894D01*
X1515211Y6274054D01*
X1522933Y6285280D01*
X1526743Y6292850D01*
X1479550Y6292850D01*
G37*
G36*
X1225550Y6245656D02*
G01*
X1230172Y6247790D01*
X1241653Y6255105D01*
X1252067Y6263894D01*
X1261211Y6274054D01*
X1268933Y6285280D01*
X1272743Y6292850D01*
X1225550Y6292850D01*
G37*
G36*
X1733550Y6245656D02*
G01*
X1738172Y6247790D01*
X1749653Y6255105D01*
X1760067Y6263894D01*
X1769211Y6274054D01*
X1776933Y6285280D01*
X1780743Y6292850D01*
X1733550Y6292850D01*
G37*
G36*
X3016250Y6381750D02*
G01*
X3063443Y6381750D01*
X3059633Y6389319D01*
X3051911Y6400546D01*
X3042767Y6410706D01*
X3032353Y6419494D01*
X3020872Y6426809D01*
X3016250Y6428943D01*
G37*
G36*
X3270250Y6381750D02*
G01*
X3317443Y6381750D01*
X3313633Y6389319D01*
X3305911Y6400546D01*
X3296767Y6410706D01*
X3286353Y6419494D01*
X3274872Y6426809D01*
X3270250Y6428943D01*
G37*
G36*
X2495550Y6381750D02*
G01*
X2542743Y6381750D01*
X2538933Y6389319D01*
X2531211Y6400546D01*
X2522067Y6410706D01*
X2511653Y6419494D01*
X2500172Y6426809D01*
X2495550Y6428943D01*
G37*
G36*
X3524250Y6381750D02*
G01*
X3571443Y6381750D01*
X3567633Y6389319D01*
X3559911Y6400546D01*
X3550767Y6410706D01*
X3540353Y6419494D01*
X3528872Y6426809D01*
X3524250Y6428943D01*
G37*
G36*
X2241550Y6381750D02*
G01*
X2288743Y6381750D01*
X2284933Y6389319D01*
X2277211Y6400546D01*
X2268067Y6410706D01*
X2257653Y6419494D01*
X2246172Y6426809D01*
X2241550Y6428943D01*
G37*
G36*
X3778250Y6381750D02*
G01*
X3825443Y6381750D01*
X3821633Y6389319D01*
X3813911Y6400546D01*
X3804767Y6410706D01*
X3794353Y6419494D01*
X3782872Y6426809D01*
X3778250Y6428943D01*
G37*
G36*
X4286250Y6381750D02*
G01*
X4333443Y6381750D01*
X4329633Y6389319D01*
X4321911Y6400546D01*
X4312767Y6410706D01*
X4302353Y6419494D01*
X4290872Y6426809D01*
X4286250Y6428943D01*
G37*

%LPD*%
D10*
X2222500Y3402329D02*
G01*
X2805836Y3402329D01*
X2222500Y3214420D02*
G01*
X2222500Y3402329D01*
X2997200Y1511300D02*
G01*
X2884957Y1623542D01*
X1331442Y1623542D01*
X1219200Y1511300D01*
X1454353Y6318046D02*
G01*
X1435100Y6337300D01*
X1968500Y3214420D02*
G01*
X1968500Y2933700D01*
X3403600Y1498600D01*
X1968500Y3308375D02*
G01*
X1968500Y3214420D01*
X1968500Y3308375D02*
G01*
X1968500Y3402329D01*
X1454353Y5761913D02*
G01*
X1454353Y6318046D01*
X1689100Y6337300D02*
G01*
X1473606Y6337300D01*
X1454353Y6318046D01*
X1943100Y6337300D02*
G01*
X1689100Y6337300D01*
X2197100Y6337300D02*
G01*
X1943100Y6337300D01*
X2451100Y6337300D02*
G01*
X2197100Y6337300D01*
X2971800Y6337300D02*
G01*
X2451100Y6337300D01*
X1981200Y1511300D02*
G01*
X2087067Y1405432D01*
X2383332Y1405432D01*
X2489200Y1511300D01*
X1727200Y1511300D02*
G01*
X1981200Y1511300D01*
X1727200Y1511300D02*
G01*
X1473200Y1511300D01*
X2489200Y1511300D02*
G01*
X2743200Y1511300D01*
X3403600Y1498600D02*
G01*
X3308832Y1403832D01*
X2850667Y1403832D01*
X2743200Y1511300D01*
X3225800Y6337300D02*
G01*
X2971800Y6337300D01*
X3479800Y6337300D02*
G01*
X3225800Y6337300D01*
X3733800Y6337300D02*
G01*
X3479800Y6337300D01*
X3987800Y6337300D02*
G01*
X3733800Y6337300D01*
X4241800Y6337300D02*
G01*
X3987800Y6337300D01*
X4495800Y6337300D02*
G01*
X4241800Y6337300D01*
X4749800Y6337300D02*
G01*
X4495800Y6337300D01*
X3657600Y1498600D02*
G01*
X3403600Y1498600D01*
X3911600Y1498600D02*
G01*
X3657600Y1498600D01*
X4165600Y1498600D02*
G01*
X3911600Y1498600D01*
X4419600Y1498600D02*
G01*
X4165600Y1498600D01*
X4673600Y1498600D02*
G01*
X4419600Y1498600D01*
X4927600Y1498600D02*
G01*
X4673600Y1498600D01*
X5435600Y1498600D02*
G01*
X5318836Y1381836D01*
X5044363Y1381836D01*
X4927600Y1498600D01*
X5689600Y1498600D02*
G01*
X5435600Y1498600D01*
X1447800Y5667959D02*
G01*
X1454353Y5674512D01*
X1454353Y5761913D01*
X1454353Y5761913D02*
G01*
X1701800Y5761913D01*
X1447800Y5574004D02*
G01*
X1447800Y5667959D01*
X1955800Y5094020D02*
G01*
X1955800Y5281929D01*
X1701800Y5187975D02*
G01*
X1795754Y5281929D01*
X1955800Y5281929D01*
X1701800Y5187975D02*
G01*
X1701800Y5281929D01*
X1701800Y5094020D02*
G01*
X1701800Y5187975D01*
X1701800Y5574004D02*
G01*
X1701800Y5281929D01*
X1701800Y5667959D02*
G01*
X1701800Y5574004D01*
X1701800Y5667959D02*
G01*
X1701800Y5761913D01*
X1447800Y5094020D02*
G01*
X1447800Y5281929D01*
X1447800Y5281929D02*
G01*
X1701800Y5281929D01*
X1701800Y3882313D02*
G01*
X1714500Y3882313D01*
X1460500Y3882313D02*
G01*
X1701800Y3882313D01*
X1701800Y3882313D02*
G01*
X1701800Y5094020D01*
X1968500Y3694404D02*
G01*
X1968500Y3402329D01*
X1968500Y3788359D02*
G01*
X1968500Y3694404D01*
X1968500Y3788359D02*
G01*
X1968500Y3882313D01*
X1714500Y3308375D02*
G01*
X1808454Y3402329D01*
X1968500Y3402329D01*
X1714500Y3308375D02*
G01*
X1714500Y3402329D01*
X1714500Y3214420D02*
G01*
X1714500Y3308375D01*
X1714500Y3788359D02*
G01*
X1808454Y3882313D01*
X1968500Y3882313D01*
X1714500Y3788359D02*
G01*
X1714500Y3882313D01*
X1714500Y3694404D02*
G01*
X1714500Y3788359D01*
X1460500Y3214420D02*
G01*
X1460500Y3402329D01*
X1460500Y3402329D02*
G01*
X1714500Y3402329D01*
X1460500Y3694404D02*
G01*
X1460500Y3882313D01*
X2209800Y4906086D02*
G01*
X2800731Y4315155D01*
X5118963Y4315155D01*
X2209800Y5094020D02*
G01*
X2209800Y4906086D01*
X1955800Y5761913D02*
G01*
X2078659Y5761913D01*
X1955800Y5574004D02*
G01*
X1955800Y5761913D01*
X2209800Y5574004D02*
G01*
X2209800Y5386095D01*
X2222500Y3694404D02*
G01*
X2222500Y3882313D01*
X2222500Y3882313D02*
G01*
X2130450Y3974363D01*
X2130450Y5306745D01*
X2209800Y5386095D01*
X2222500Y3600450D02*
G01*
X2222500Y3694404D01*
X2222500Y3600450D02*
G01*
X2222500Y3506495D01*
X2668422Y3502355D02*
G01*
X2226640Y3502355D01*
X2222500Y3506495D01*
G36*
X2249792Y5253997D02*
G01*
X2169792Y5253997D01*
X2169792Y4933998D01*
X2249792Y4933998D01*
G37*
G36*
X2249792Y5733994D02*
G01*
X2169792Y5733994D01*
X2169792Y5413994D01*
X2249792Y5413994D01*
G37*
G36*
X1995792Y5253997D02*
G01*
X1915792Y5253997D01*
X1915792Y4933998D01*
X1995792Y4933998D01*
G37*
G36*
X1995792Y5733994D02*
G01*
X1915792Y5733994D01*
X1915792Y5413994D01*
X1995792Y5413994D01*
G37*
G36*
X1741792Y5253997D02*
G01*
X1661792Y5253997D01*
X1661792Y4933998D01*
X1741792Y4933998D01*
G37*
G36*
X1741792Y5733994D02*
G01*
X1661792Y5733994D01*
X1661792Y5413994D01*
X1741792Y5413994D01*
G37*
G36*
X1487792Y5253997D02*
G01*
X1407792Y5253997D01*
X1407792Y4933998D01*
X1487792Y4933998D01*
G37*
G36*
X1487792Y5733994D02*
G01*
X1407792Y5733994D01*
X1407792Y5413994D01*
X1487792Y5413994D01*
G37*
G36*
X2262492Y3374397D02*
G01*
X2182492Y3374397D01*
X2182492Y3054398D01*
X2262492Y3054398D01*
G37*
G36*
X2262492Y3854394D02*
G01*
X2182492Y3854394D01*
X2182492Y3534394D01*
X2262492Y3534394D01*
G37*
G36*
X2008492Y3374397D02*
G01*
X1928492Y3374397D01*
X1928492Y3054398D01*
X2008492Y3054398D01*
G37*
G36*
X2008492Y3854394D02*
G01*
X1928492Y3854394D01*
X1928492Y3534394D01*
X2008492Y3534394D01*
G37*
G36*
X1754492Y3374397D02*
G01*
X1674492Y3374397D01*
X1674492Y3054398D01*
X1754492Y3054398D01*
G37*
G36*
X1754492Y3854394D02*
G01*
X1674492Y3854394D01*
X1674492Y3534394D01*
X1754492Y3534394D01*
G37*
G36*
X1500492Y3374397D02*
G01*
X1420492Y3374397D01*
X1420492Y3054398D01*
X1500492Y3054398D01*
G37*
G36*
X1500492Y3854394D02*
G01*
X1420492Y3854394D01*
X1420492Y3534394D01*
X1500492Y3534394D01*
G37*
D13*
G01*
X1181100Y6337300D03*
G01*
X1435100Y6337300D03*
G01*
X1689100Y6337300D03*
G01*
X1943100Y6337300D03*
G01*
X2197100Y6337300D03*
G01*
X2451100Y6337300D03*
G01*
X1219200Y1511300D03*
G01*
X1473200Y1511300D03*
G01*
X1727200Y1511300D03*
G01*
X1981200Y1511300D03*
G01*
X2235200Y1511300D03*
G01*
X2489200Y1511300D03*
G01*
X2743200Y1511300D03*
G01*
X2997200Y1511300D03*
G01*
X2971800Y6337300D03*
G01*
X3225800Y6337300D03*
G01*
X3479800Y6337300D03*
G01*
X3733800Y6337300D03*
G01*
X3987800Y6337300D03*
G01*
X4241800Y6337300D03*
G01*
X4495800Y6337300D03*
G01*
X4749800Y6337300D03*
G01*
X3403600Y1498600D03*
G01*
X3657600Y1498600D03*
G01*
X3911600Y1498600D03*
G01*
X4165600Y1498600D03*
G01*
X4419600Y1498600D03*
G01*
X4673600Y1498600D03*
G01*
X4927600Y1498600D03*
G01*
X5181600Y1498600D03*
G01*
X5435600Y1498600D03*
G01*
X5689600Y1498600D03*
D11*
G01*
X2805836Y3402329D03*
G01*
X5118963Y4315155D03*
G01*
X2078659Y5761913D03*
G01*
X2668422Y3502355D03*
M02*
